<svg xmlns="http://www.w3.org/2000/svg" width="24" height="25" viewBox="0 0 24 25" fill="none">
  <rect y="0.0371094" width="24" height="24" rx="5" fill="#454545"/>
  <path fill-rule="evenodd" clip-rule="evenodd" d="M6 12.0371C6 9.64035 6 8.44197 6.57113 7.57881C6.82616 7.19337 7.15626 6.86327 7.5417 6.60824C8.40486 6.03711 9.60324 6.03711 12 6.03711C14.3968 6.03711 15.5951 6.03711 16.4583 6.60824C16.8437 6.86327 17.1738 7.19337 17.4289 7.57881C18 8.44197 18 9.64035 18 12.0371C18 14.4339 18 15.6322 17.4289 16.4954C17.1738 16.8808 16.8437 17.2109 16.4583 17.466C15.5951 18.0371 14.3968 18.0371 12 18.0371C9.60324 18.0371 8.40486 18.0371 7.5417 17.466C7.15626 17.2109 6.82616 16.8808 6.57113 16.4954C6 15.6322 6 14.4339 6 12.0371ZM15.1062 12.0373C15.1062 13.7528 13.7154 15.1435 11.9999 15.1435C10.2843 15.1435 8.89362 13.7528 8.89362 12.0373C8.89362 10.3217 10.2843 8.93099 11.9999 8.93099C13.7154 8.93099 15.1062 10.3217 15.1062 12.0373ZM11.9999 14.0926C13.135 14.0926 14.0552 13.1724 14.0552 12.0373C14.0552 10.9021 13.135 9.98193 11.9999 9.98193C10.8648 9.98193 9.94456 10.9021 9.94456 12.0373C9.94456 13.1724 10.8648 14.0926 11.9999 14.0926ZM15.2289 9.50481C15.632 9.50481 15.9587 9.17803 15.9587 8.77493C15.9587 8.37182 15.632 8.04504 15.2289 8.04504C14.8257 8.04504 14.499 8.37182 14.499 8.77493C14.499 9.17803 14.8257 9.50481 15.2289 9.50481Z" fill="white"/>
</svg>
