<svg xmlns="http://www.w3.org/2000/svg" width="24" height="25" viewBox="0 0 24 25" fill="none">
  <rect y="0.0371094" width="24" height="24" rx="5" fill="#454545"/>
  <path d="M6 7.6508C6 7.266 6.13514 6.94853 6.40541 6.69842C6.67567 6.4483 7.02703 6.32324 7.45946 6.32324C7.88417 6.32324 8.2278 6.44637 8.49035 6.69265C8.76061 6.94662 8.89575 7.27754 8.89575 7.68543C8.89575 8.05484 8.76448 8.36268 8.50193 8.60896C8.23166 8.86292 7.87645 8.98991 7.43629 8.98991H7.42471C7 8.98991 6.65637 8.86292 6.39382 8.60896C6.13127 8.35499 6 8.0356 6 7.6508ZM6.15058 17.7518V10.0404H8.72201V17.7518H6.15058ZM10.1467 17.7518H12.7181V13.4459C12.7181 13.1765 12.749 12.9687 12.8108 12.8225C12.9189 12.5608 13.083 12.3396 13.3031 12.1587C13.5232 11.9779 13.7992 11.8875 14.1313 11.8875C14.9961 11.8875 15.4286 12.4685 15.4286 13.6306V17.7518H18V13.3305C18 12.1914 17.7297 11.3276 17.1892 10.7388C16.6486 10.1501 15.9344 9.85571 15.0463 9.85571C14.0502 9.85571 13.2741 10.2828 12.7181 11.1371V11.1602H12.7066L12.7181 11.1371V10.0404H10.1467C10.1622 10.2867 10.1699 11.0524 10.1699 12.3377C10.1699 13.6229 10.1622 15.4276 10.1467 17.7518Z" fill="white"/>
</svg>
