<svg xmlns="http://www.w3.org/2000/svg" width="24" height="25" viewBox="0 0 24 25" fill="none">
  <rect y="0.0371094" width="24" height="24" rx="5" fill="#454545"/>
  <path d="M14.018 7.17111V7.16895H14.5807L14.7863 7.21001C14.9234 7.23666 15.0478 7.2716 15.1596 7.31482C15.2714 7.35804 15.3796 7.40847 15.4842 7.4661C15.5888 7.52373 15.6837 7.58244 15.7688 7.64223C15.8532 7.7013 15.929 7.76398 15.996 7.83025C16.0624 7.89724 16.1659 7.91453 16.3066 7.88212C16.4473 7.8497 16.5987 7.80467 16.761 7.74705C16.9234 7.68942 17.0839 7.62459 17.2426 7.55254C17.4013 7.4805 17.4979 7.43476 17.5326 7.41531C17.5665 7.39515 17.5845 7.38434 17.5867 7.3829L17.5888 7.37965L17.5996 7.37425L17.6105 7.36885L17.6213 7.36345L17.6321 7.35804L17.6343 7.3548L17.6375 7.35264L17.6408 7.35048L17.6429 7.34724L17.6537 7.344L17.6646 7.34183L17.6624 7.35804L17.6592 7.37425L17.6537 7.39046L17.6483 7.40667L17.6429 7.41747L17.6375 7.42828L17.6321 7.44449C17.6285 7.45529 17.6249 7.4697 17.6213 7.48771C17.6177 7.50572 17.5834 7.57775 17.5185 7.70382C17.4536 7.82989 17.3724 7.95775 17.275 8.08742C17.1776 8.21709 17.0904 8.31505 17.0132 8.38133C16.9353 8.44833 16.8837 8.49515 16.8584 8.52181C16.8332 8.54918 16.8025 8.57439 16.7665 8.59745L16.7124 8.6331L16.7015 8.63851L16.6907 8.64391L16.6886 8.64715L16.6853 8.64931L16.6821 8.65147L16.6799 8.65472L16.6691 8.66012L16.6583 8.66552L16.6561 8.66876L16.6528 8.67092L16.6496 8.67309L16.6474 8.67633L16.6453 8.67957L16.642 8.68173L16.6388 8.68389L16.6366 8.68713H16.6907L16.9937 8.6223C17.1957 8.57908 17.3886 8.52685 17.5726 8.46562L17.8647 8.36837L17.8972 8.35756L17.9134 8.35216L17.9243 8.34676L17.9351 8.34135L17.9459 8.33595L17.9567 8.33055L17.9784 8.32731L18 8.32514V8.34676L17.9946 8.34892L17.9892 8.35216L17.987 8.3554L17.9838 8.35756L17.9805 8.35972L17.9784 8.36296L17.9762 8.36621L17.9729 8.36837L17.9697 8.37053L17.9675 8.37377L17.9654 8.37701L17.9621 8.37917L17.9567 8.38998L17.9513 8.40078L17.9481 8.40295C17.9466 8.40511 17.9008 8.46633 17.8106 8.58664C17.7205 8.70766 17.6718 8.76889 17.6646 8.77034C17.6574 8.7725 17.6472 8.7833 17.6343 8.80275C17.622 8.82292 17.5455 8.90324 17.4049 9.04372C17.2642 9.18419 17.1264 9.30917 16.9915 9.41867C16.8559 9.52889 16.7874 9.66432 16.7859 9.82496C16.7838 9.98489 16.7755 10.1657 16.761 10.3674C16.7466 10.5691 16.7196 10.787 16.6799 11.0211C16.6402 11.2553 16.5789 11.52 16.4959 11.8154C16.413 12.1107 16.312 12.3989 16.193 12.6798C16.0739 12.9607 15.9495 13.2129 15.8197 13.4362C15.6898 13.6595 15.5708 13.8486 15.4626 14.0035C15.3544 14.1584 15.2444 14.3042 15.1326 14.4411C15.0207 14.578 14.8794 14.7322 14.7084 14.9036C14.5367 15.0743 14.4429 15.168 14.4271 15.1845C14.4105 15.2004 14.3398 15.2595 14.215 15.3618C14.0909 15.4648 13.9574 15.5678 13.8146 15.6708C13.6725 15.7731 13.5419 15.8585 13.4229 15.9269C13.3039 15.9953 13.1603 16.0735 12.9922 16.1614C12.8249 16.25 12.6438 16.3321 12.4491 16.4077C12.2543 16.4834 12.0487 16.5536 11.8323 16.6184C11.6159 16.6833 11.4067 16.7337 11.2047 16.7697C11.0027 16.8057 10.7737 16.8364 10.5176 16.8616L10.1335 16.8994V16.9048H9.43012V16.8994L9.33814 16.894C9.27683 16.8904 9.22633 16.8868 9.18665 16.8832C9.14699 16.8796 8.99729 16.8598 8.7376 16.8238C8.47791 16.7877 8.27412 16.7517 8.12624 16.7157C7.97837 16.6797 7.75834 16.6112 7.46619 16.5104C7.17403 16.4095 6.92408 16.3076 6.71632 16.2046C6.50929 16.1023 6.37944 16.0375 6.32678 16.0101C6.27484 15.9834 6.21641 15.9503 6.15149 15.9107L6.0541 15.8512L6.05195 15.848L6.04869 15.8458L6.04545 15.8437L6.04328 15.8404L6.03246 15.835L6.02164 15.8296L6.01949 15.8264L6.01623 15.8242L6.01298 15.8221L6.01082 15.8188L6.00867 15.8156L6.00541 15.8134H6V15.7918L6.01082 15.794L6.02164 15.7972L6.07033 15.8026C6.1028 15.8062 6.19117 15.8116 6.33544 15.8188C6.47972 15.826 6.633 15.826 6.79531 15.8188C6.95762 15.8116 7.12354 15.7954 7.29306 15.7702C7.46258 15.745 7.66276 15.7018 7.8936 15.6405C8.12444 15.5793 8.33653 15.5065 8.52986 15.4223C8.72246 15.3373 8.85952 15.2739 8.94104 15.2321C9.02183 15.191 9.14518 15.1147 9.31109 15.003L9.55996 14.8355L9.56213 14.8323L9.56537 14.8301L9.56863 14.828L9.57078 14.8247L9.57295 14.8215L9.57619 14.8193L9.57945 14.8172L9.58161 14.8139L9.59243 14.8107L9.60325 14.8085L9.60541 14.7977L9.60866 14.7869L9.61191 14.7847L9.61407 14.7815L9.5275 14.7761C9.4698 14.7725 9.41389 14.7689 9.35978 14.7653C9.30568 14.7617 9.22092 14.7455 9.1055 14.7167C8.99009 14.6878 8.86565 14.6446 8.73219 14.587C8.59874 14.5294 8.46889 14.4609 8.34265 14.3817C8.21642 14.3024 8.12516 14.2365 8.06889 14.1839C8.01335 14.1321 7.94121 14.0586 7.85248 13.9635C7.76448 13.8677 7.68801 13.7694 7.62308 13.6685C7.55816 13.5677 7.49613 13.4513 7.43698 13.3195L7.34716 13.1228L7.34175 13.1066L7.33634 13.0904L7.33309 13.0796L7.33093 13.0688L7.34716 13.071L7.36339 13.0742L7.48242 13.0904C7.56177 13.1012 7.68621 13.1048 7.85573 13.1012C8.02525 13.0976 8.14247 13.0904 8.20739 13.0796C8.27232 13.0688 8.312 13.0616 8.32642 13.058L8.34806 13.0526L8.37511 13.0472L8.40216 13.0418L8.40433 13.0385L8.40757 13.0364L8.41083 13.0342L8.41298 13.031L8.39134 13.0256L8.3697 13.0202L8.34806 13.0148L8.32642 13.0094L8.30478 13.004C8.29036 13.0004 8.26511 12.9932 8.22904 12.9824C8.19297 12.9716 8.09559 12.9319 7.93688 12.8635C7.77819 12.7951 7.65194 12.7284 7.55816 12.6636C7.46415 12.5986 7.3745 12.5275 7.28981 12.4507C7.20541 12.3729 7.11272 12.2728 7.01172 12.1503C6.91073 12.0279 6.82057 11.8856 6.74121 11.7235C6.66186 11.5614 6.60235 11.4065 6.56267 11.2589C6.52315 11.1121 6.49708 10.962 6.48477 10.8104L6.46528 10.5835L6.4761 10.5857L6.48693 10.5889L6.49775 10.5943L6.50857 10.5997L6.51939 10.6051L6.53021 10.6105L6.69793 10.6862C6.80975 10.7366 6.94861 10.7798 7.11452 10.8158C7.28044 10.8519 7.37962 10.8717 7.41208 10.8753L7.46078 10.8807H7.55816L7.55601 10.8774L7.55275 10.8753L7.5495 10.8731L7.54734 10.8699L7.54519 10.8666L7.54193 10.8645L7.53868 10.8623L7.53652 10.8591L7.5257 10.8537L7.51488 10.8483L7.51272 10.845L7.50947 10.8429L7.50622 10.8407L7.50406 10.8374L7.49324 10.832L7.48242 10.8266L7.48026 10.8234C7.4781 10.822 7.44708 10.7989 7.3872 10.7542C7.32804 10.7089 7.26601 10.6502 7.20108 10.5781C7.13616 10.5061 7.07124 10.4304 7.00631 10.3512C6.94127 10.2718 6.88334 10.1868 6.83318 10.0973C6.78269 10.0072 6.72931 9.89267 6.67304 9.75365C6.6175 9.61533 6.5753 9.47594 6.54644 9.33547C6.51759 9.195 6.50136 9.05633 6.49775 8.91945C6.49414 8.78258 6.49775 8.66552 6.50857 8.56827C6.51939 8.47102 6.54103 8.36116 6.57349 8.2387C6.60595 8.11624 6.65285 7.98657 6.71416 7.8497L6.80613 7.64439L6.81154 7.62818L6.81695 7.61198L6.82021 7.60981L6.82236 7.60657L6.82453 7.60333L6.82777 7.60117L6.83103 7.60333L6.83318 7.60657L6.83535 7.60981L6.83859 7.61198L6.84185 7.61414L6.844 7.61738L6.84617 7.62062L6.84941 7.62278L6.85482 7.63359L6.86023 7.64439L6.86349 7.64655L6.86564 7.64979L7.01172 7.81188C7.10911 7.91993 7.22453 8.0406 7.35798 8.17387C7.49144 8.30713 7.56538 8.37629 7.5798 8.38133C7.59424 8.38709 7.61226 8.40366 7.6339 8.43104C7.65555 8.4577 7.72769 8.52145 7.85032 8.6223C7.97296 8.72315 8.13346 8.84022 8.33183 8.97348C8.53021 9.10675 8.75023 9.23822 8.99188 9.36789C9.23355 9.49755 9.49324 9.61461 9.77096 9.71907C10.0487 9.82353 10.2435 9.89196 10.3553 9.92437C10.4671 9.95679 10.6583 9.99821 10.9288 10.0486C11.1993 10.0991 11.4031 10.1315 11.5401 10.1459C11.6772 10.1603 11.771 10.1686 11.8215 10.1707L11.8972 10.1729L11.8951 10.1567L11.8918 10.1405L11.8702 10.0054C11.8557 9.91537 11.8485 9.7893 11.8485 9.62722C11.8485 9.46514 11.8611 9.31566 11.8864 9.17879C11.9116 9.04191 11.9495 8.90324 12 8.76277C12.0505 8.6223 12.0999 8.50955 12.1482 8.42456C12.1973 8.34027 12.2615 8.2441 12.3408 8.13605C12.4202 8.02799 12.523 7.91634 12.6492 7.80107C12.7755 7.68581 12.9197 7.58316 13.0821 7.49311C13.2444 7.40307 13.3941 7.33463 13.5311 7.28781C13.6682 7.24099 13.7836 7.21036 13.8774 7.19596C13.9711 7.18156 14.018 7.17327 14.018 7.17111Z" fill="white"/>
</svg>
