<svg xmlns="http://www.w3.org/2000/svg" width="24" height="25" viewBox="0 0 24 25" fill="none">
  <rect y="0.0371094" width="24" height="24" rx="5" fill="#454545"/>
  <path d="M12.2928 16.6899L9.5847 16.6393C8.70787 16.6217 7.82885 16.6569 6.96921 16.4741C5.66151 16.2011 5.56886 14.8625 5.47192 13.7397C5.33835 12.1611 5.39006 10.5539 5.64213 8.98855C5.78443 8.1102 6.34446 7.58609 7.21051 7.52905C10.1341 7.32207 13.0771 7.3466 15.9942 7.44316C16.3023 7.45202 16.6124 7.5004 16.9162 7.55547C18.4158 7.82409 18.4523 9.34102 18.5495 10.618C18.6465 11.9081 18.6056 13.2049 18.4203 14.4863C18.2716 15.5472 17.9872 16.4369 16.787 16.5228C15.2831 16.6351 13.8138 16.7255 12.3057 16.6967C12.3058 16.6899 12.2971 16.6899 12.2928 16.6899ZM10.7007 14.0039C11.834 13.339 12.9456 12.6851 14.0724 12.0246C12.937 11.3597 11.8275 10.7058 10.7007 10.0454V14.0039Z" fill="white"/>
</svg>
