<svg xmlns="http://www.w3.org/2000/svg" width="174" height="51" viewBox="0 0 174 51" fill="none">
  <path d="M44.1924 30.7373C43.827 30.5878 43.4207 30.5725 43.0451 30.6941C42.6695 30.8158 42.3489 31.0665 42.1396 31.402L38.4902 29.9224V29.8652C38.4932 29.7282 38.4646 29.5923 38.4065 29.4683C38.3483 29.3443 38.2623 29.2354 38.1552 29.1504C39.1153 26.2824 39.0371 23.1669 37.9342 20.351L42.1111 18.5854C42.3218 18.9279 42.6445 19.1864 43.0241 19.3167C43.4037 19.4471 43.8166 19.4413 44.1924 19.3002C44.4838 19.1716 44.7329 18.963 44.9112 18.6986C45.0895 18.4341 45.1897 18.1245 45.2002 17.8055C45.2106 17.4864 45.131 17.1709 44.9705 16.8952C44.8099 16.6196 44.575 16.395 44.2927 16.2475C44.0105 16.0999 43.6924 16.0353 43.3751 16.0611C43.0578 16.087 42.7543 16.2022 42.4995 16.3935C42.2446 16.5848 42.0489 16.8444 41.9348 17.1424C41.8207 17.4404 41.7928 17.7647 41.8545 18.0779L37.6919 19.8077C36.9548 18.1033 35.8552 16.581 34.4701 15.3473C34.5155 15.2592 34.5352 15.1601 34.5271 15.0614C34.5319 14.8983 34.4906 14.7372 34.408 14.5967C34.3253 14.4562 34.2048 14.342 34.0602 14.2672C33.9156 14.1925 33.7529 14.1603 33.5909 14.1743C33.4288 14.1884 33.274 14.2481 33.1443 14.3465C32.4892 13.9066 31.8031 13.5148 31.0915 13.1742L32.7879 9.01401C33.1712 9.10459 33.5742 9.05318 33.9226 8.86928C34.271 8.68537 34.5414 8.38135 34.6839 8.01327C34.8439 7.60231 34.8385 7.14509 34.6687 6.7381C34.4989 6.3311 34.1782 6.00615 33.7741 5.8318C33.37 5.65746 32.9141 5.64736 32.5028 5.80363C32.0914 5.95991 31.7566 6.27033 31.5691 6.66941C31.421 7.03711 31.4063 7.44525 31.5274 7.82274C31.6485 8.20023 31.8979 8.52314 32.232 8.73523L30.5071 12.8669C27.8217 11.8056 24.8572 11.6872 22.0963 12.5309C21.9772 12.3448 21.8139 12.1912 21.6211 12.0839C21.4283 11.9766 21.2119 11.919 20.9915 11.9162H20.7705L19.4305 8.68519C19.7549 8.46607 19.9966 8.14406 20.1168 7.77078C20.237 7.39749 20.2287 6.99455 20.0933 6.62652C20.0106 6.41386 19.8859 6.22009 19.7269 6.05674C19.5679 5.89339 19.3777 5.76381 19.1677 5.67571C18.9577 5.58762 18.7322 5.54281 18.5045 5.54397C18.2769 5.54512 18.0518 5.59221 17.8427 5.68243C17.6336 5.77265 17.4447 5.90415 17.2873 6.0691C17.13 6.23405 17.0073 6.42908 16.9267 6.64257C16.846 6.85606 16.8091 7.08364 16.818 7.31176C16.8269 7.53988 16.8815 7.76386 16.9785 7.97038C17.1271 8.33349 17.3988 8.63231 17.7457 8.81409C18.0926 8.99588 18.4924 9.04896 18.8745 8.96397L20.2145 12.1949C20.041 12.3123 19.8994 12.4711 19.8023 12.657C19.7053 12.843 19.6559 13.0502 19.6586 13.26C19.6486 13.3575 19.6712 13.4555 19.7227 13.5388C17.1753 14.8918 15.1639 17.0753 14.0205 19.7291L9.9006 18.0064C9.99292 17.6229 9.94338 17.2188 9.76118 16.8691C9.57898 16.5195 9.27649 16.248 8.90984 16.105C8.49773 15.9268 8.03191 15.92 7.61485 16.0863C7.1978 16.2525 6.86367 16.5781 6.68597 16.9914C6.50827 17.4046 6.50156 17.8718 6.66731 18.29C6.83307 18.7083 7.15771 19.0434 7.56981 19.2216C7.93035 19.3699 8.33116 19.3875 8.70325 19.2714C9.07534 19.1553 9.39542 18.9127 9.60836 18.5854L13.7282 20.3152C13.1905 21.6965 12.8869 23.1582 12.8301 24.6399C12.6939 24.6867 12.5768 24.7771 12.497 24.8973C12.4171 25.0174 12.3789 25.1606 12.3882 25.3047C12.3875 25.447 12.4292 25.5863 12.5079 25.7048C12.5866 25.8232 12.6988 25.9154 12.8301 25.9694C12.948 27.2445 13.2307 28.4988 13.6712 29.7008L9.55847 31.4521C9.349 31.1159 9.03116 30.8617 8.65775 30.7317C8.28434 30.6016 7.87781 30.6036 7.50566 30.7373C7.30161 30.8255 7.11688 30.9532 6.96203 31.113C6.80718 31.2729 6.68524 31.4617 6.60316 31.6688C6.52109 31.8759 6.4805 32.0972 6.4837 32.32C6.4869 32.5428 6.53383 32.7628 6.62182 32.9675C6.70981 33.1721 6.83712 33.3574 6.9965 33.5127C7.15588 33.668 7.3442 33.7903 7.5507 33.8726C7.75721 33.9549 7.97786 33.9956 8.20005 33.9924C8.42225 33.9892 8.64163 33.9421 8.84569 33.8539C9.20901 33.7086 9.50856 33.4378 9.69025 33.0904C9.87194 32.743 9.9238 32.342 9.83645 31.9596L13.9563 30.2297C14.4083 31.2757 15.0085 32.2508 15.7383 33.1247C15.6711 33.263 15.6347 33.4142 15.6313 33.5679C15.6294 33.6852 15.651 33.8017 15.6946 33.9105C15.7383 34.0193 15.8032 34.1182 15.8855 34.2015C15.9679 34.2847 16.066 34.3506 16.1742 34.3953C16.2823 34.4399 16.3983 34.4624 16.5152 34.4615C16.6517 34.4476 16.7846 34.4088 16.9072 34.3471C18.0008 35.3967 19.2762 36.2372 20.6707 36.8275L18.9101 40.9591C18.5279 40.8689 18.1259 40.9206 17.7787 41.1045C17.4315 41.2885 17.1624 41.5923 17.0213 41.9599C16.9333 42.1645 16.8863 42.3845 16.8831 42.6074C16.8799 42.8302 16.9205 43.0515 17.0026 43.2586C17.0847 43.4657 17.2066 43.6545 17.3615 43.8143C17.5163 43.9742 17.7011 44.1019 17.9051 44.1901C18.1092 44.2783 18.3286 44.3254 18.5508 44.3286C18.7729 44.3318 18.9936 44.2911 19.2001 44.2088C19.4066 44.1265 19.5949 44.0042 19.7543 43.8489C19.9137 43.6936 20.041 43.5084 20.129 43.3037C20.2795 42.9374 20.2955 42.5295 20.1741 42.1525C20.0527 41.7755 19.8018 41.4539 19.4661 41.2451L21.1839 37.1134C22.6711 37.7081 24.2587 38.0091 25.8597 37.9998C27.4567 37.9909 29.0387 37.6906 30.5284 37.1134L32.2534 41.2951C31.927 41.5125 31.6837 41.8344 31.5633 42.2083C31.4429 42.5822 31.4525 42.986 31.5905 43.3538C31.6785 43.5584 31.8058 43.7437 31.9652 43.899C32.1245 44.0542 32.3129 44.1765 32.5194 44.2588C32.7259 44.3412 32.9465 44.3819 33.1687 44.3787C33.3909 44.3754 33.6103 44.3284 33.8144 44.2401C34.0184 44.1519 34.2031 44.0242 34.358 43.8644C34.5128 43.7045 34.6348 43.5157 34.7169 43.3086C34.7989 43.1015 34.8395 42.8802 34.8363 42.6574C34.8331 42.4346 34.7862 42.2146 34.6982 42.0099C34.5517 41.6416 34.2784 41.3382 33.928 41.1546C33.5775 40.971 33.1731 40.9194 32.7879 41.0092L31.0702 36.8275C33.8501 35.6151 36.1195 33.4656 37.4852 30.7516H37.5921C37.723 30.7574 37.8533 30.7296 37.9706 30.6708C38.0878 30.612 38.1882 30.5242 38.2621 30.4156L41.8759 31.9239C41.7836 32.3074 41.8331 32.7114 42.0153 33.0611C42.1975 33.4108 42.5 33.6823 42.8666 33.8253C43.2828 33.9805 43.7416 33.975 44.1539 33.8099C44.5663 33.6447 44.9026 33.3318 45.0976 32.9317C45.2657 32.5202 45.2648 32.0587 45.0953 31.6477C44.9258 31.2367 44.6013 30.9095 44.1924 30.7373ZM21.1982 14.5896L23.643 20.3796L21.1483 21.7735C20.9885 21.6126 20.803 21.4797 20.5994 21.3803L21.1982 14.5896ZM25.318 25.5763L24.8761 26.6843L24.2346 26.0195L25.318 25.5763ZM23.7071 25.5763L21.5688 23.5176L25.1327 25.0187L23.7071 25.5763ZM25.8455 25.7979L27.1214 28.8644L25.318 27.1632L25.8455 25.7979ZM26.7863 29.372C26.6798 29.5777 26.6213 29.805 26.6153 30.0367V30.2583L23.4434 31.688L25.0543 27.7279L26.7863 29.372ZM27.9553 28.6572H27.7985L26.5226 25.5406L29.3737 26.7057L28.383 28.7215C28.2543 28.679 28.1172 28.6692 27.9838 28.6929L27.9553 28.6572ZM26.6438 25.0187L31.0345 23.1817L29.4735 26.191L26.6438 25.0187ZM31.2056 24.2396L30.8777 26.8058L30.0366 26.4484L31.2056 24.2396ZM31.9184 23.4533C31.9825 23.4533 31.9825 23.4533 32.0324 23.389L36.637 29.1075L31.5263 26.963L31.9184 23.4533ZM30.8135 22.6241L26.4228 24.4612L28.5612 19.2216H28.8391C28.9923 19.2174 29.1429 19.1808 29.2811 19.1144L31.006 21.9736C30.8798 22.174 30.804 22.4021 30.785 22.6384L30.8135 22.6241ZM28.0195 19L25.8811 24.2396L24.3772 20.6655L27.7985 18.8427C27.8769 18.8928 27.9268 18.9428 28.0337 19H28.0195ZM25.3038 24.4612L21.4833 22.8743V22.6527C21.493 22.5392 21.4708 22.4253 21.4191 22.3239L23.864 20.98L25.3038 24.4612ZM20.186 23.9608H20.2502L21.0271 26.6986L18.8888 27.5849L20.1076 23.9608H20.186ZM20.8061 23.7964C20.8631 23.7964 20.8631 23.7392 20.913 23.7392L23.1369 25.8837L21.5902 26.4484L20.8061 23.7964ZM23.586 26.2983L24.6409 27.299L22.9658 31.3163L21.7541 27.0774L23.586 26.2983ZM26.8505 30.8159C26.9697 30.9872 27.1286 31.1268 27.3137 31.2227C27.4987 31.3186 27.7043 31.3679 27.9125 31.3663H28.1335L29.5591 34.8189L23.6073 32.2527L26.8505 30.8159ZM28.6966 31.0947C28.9735 30.8895 29.1702 30.5936 29.2526 30.2583H30.4643L29.9653 34.1684L28.6966 31.0947ZM29.2526 29.665C29.1769 29.3891 29.0235 29.1409 28.8106 28.9502L29.8014 26.9416L30.7993 27.3347L30.5142 29.615L29.2526 29.665ZM31.3909 27.6064L36.1166 29.5578L31.1272 29.6222L31.3909 27.6064ZM32.4529 23.0315C32.5446 22.9033 32.5829 22.7444 32.5599 22.5884V22.5312L35.0047 21.5304L36.8365 28.6071L32.4529 23.0315ZM32.3389 21.9736L32.1678 21.8021L33.5934 16.1693L34.8122 20.9014L32.3389 21.9736ZM33.0517 15.6118L31.5477 21.6305H31.4408L29.7159 18.7712C29.8535 18.6448 29.9638 18.4914 30.0398 18.3205C30.1158 18.1496 30.156 17.9648 30.1578 17.7777C30.1578 17.6061 30.1008 17.4917 30.1008 17.3345L33.0517 15.6118ZM27.435 18.2423L24.0992 20.0794L21.7185 14.3608L21.8896 14.1893L27.3922 17.4202C27.3415 17.5621 27.3221 17.7133 27.3352 17.8634C27.4168 17.988 27.4681 18.13 27.4849 18.278L27.435 18.2423ZM20.5353 14.5038L19.9579 21.3446C19.7782 21.3646 19.6053 21.4251 19.4522 21.5217C19.2991 21.6182 19.1699 21.7483 19.0741 21.9021L16.5152 20.8371L20.5353 14.5038ZM18.8103 22.3668V22.7599L13.9706 24.6828L16.1944 21.2302L18.8103 22.3668ZM13.8708 25.3833L18.9885 23.3747C19.0852 23.5359 19.2198 23.6709 19.3806 23.7678L18.0405 27.8994L17.4846 28.121L13.7639 25.4977C13.9207 25.4619 13.9207 25.4119 13.9207 25.4119L13.8708 25.3833ZM18.5894 28.3283L21.1483 27.2704L22.417 31.4521L18.5324 28.7429L18.5894 28.3283ZM22.1533 32.0168L17.3206 33.0747C17.2738 32.9781 17.196 32.9 17.0997 32.8531L18.2686 29.279L22.1533 32.0168ZM22.3101 32.6315L21.804 33.9754L18.2401 33.5322L22.3101 32.6315ZM22.8661 32.9032C22.9474 32.9054 23.0283 32.8914 23.1042 32.8619C23.1801 32.8325 23.2494 32.7882 23.308 32.7316L28.0266 34.7903L22.4099 34.0183L22.8661 32.9032ZM30.4857 34.633L31.0416 30.2297L36.5942 30.1225L30.4857 34.633ZM37.5422 28.8359L35.5963 21.2802L37.3782 20.5654C38.4303 23.2181 38.5086 26.1593 37.5992 28.8644L37.5422 28.8359ZM37.1573 20.015L35.4395 20.7298L34.1565 15.8834C35.4691 17.0026 36.4977 18.4188 37.1573 20.015ZM32.7879 14.7611C32.7879 14.8255 32.7309 14.9327 32.7309 14.9827V15.1543L29.78 16.8841L29.5591 16.6625L30.7708 13.6532C31.4781 13.9545 32.1539 14.3256 32.7879 14.7611ZM25.8455 12.6167C27.3671 12.6223 28.8747 12.9082 30.2932 13.4602L29.1029 16.4409H28.8249C28.4274 16.447 28.0473 16.6056 27.7629 16.8841L22.2602 13.6532C22.3113 13.5288 22.3308 13.3938 22.3172 13.26V13.0813C23.4807 12.7841 24.6737 12.6187 25.874 12.5881L25.8455 12.6167ZM20.0007 14.1249C20.0007 14.1821 20.0648 14.1821 20.0648 14.2322L15.945 20.594L14.5836 20.015C15.6752 17.4787 17.5959 15.3911 20.0292 14.0963L20.0007 14.1249ZM15.6812 21.0587L13.5928 24.3039C13.6495 23.0206 13.9319 21.7574 14.4268 20.5726L15.6812 21.0587ZM13.5928 26.0195L16.9856 28.407L14.3626 29.472C13.9117 28.3736 13.6513 27.2059 13.5928 26.0195ZM17.5345 28.8073L17.8196 28.9788L16.6007 32.7102C16.501 32.6954 16.3994 32.7183 16.3156 32.7745C15.6475 31.9304 15.0872 31.0059 14.6477 30.0224L17.5345 28.8073ZM17.4276 33.9968L21.6543 34.5472L20.9416 36.3343C19.6259 35.799 18.431 35.0041 17.4276 33.9968ZM21.4191 36.5559L22.196 34.6116L29.3238 35.4979C29.3698 35.6538 29.4632 35.7914 29.591 35.8914C29.7189 35.9914 29.8747 36.0487 30.0366 36.0555L30.2077 36.4987C27.3949 37.6523 24.2466 37.6728 21.4191 36.5559ZM30.8777 36.3343L30.6995 35.8911C30.8421 35.7431 30.9236 35.5464 30.9276 35.3407V35.1691L36.8152 30.8159C35.5148 33.2754 33.4219 35.2206 30.8777 36.3343Z" fill="white"/>
  <path d="M21.1483 5.71859C21.2457 5.85316 21.3203 6.00289 21.3693 6.16178C21.4361 6.30049 21.4749 6.45113 21.4833 6.60496L24.8761 4.10311C25.1659 3.8878 25.517 3.77158 25.8776 3.77158C26.2382 3.77158 26.5893 3.8878 26.879 4.10311L30.2719 6.60496C30.336 6.43341 30.336 6.31904 30.3859 6.16178C30.4494 6.00918 30.5232 5.8611 30.6069 5.71859C30.8576 5.2921 31.2232 4.94523 31.6618 4.71785L28.2191 2.14451C27.5578 1.59781 26.7275 1.29883 25.8705 1.29883C25.0134 1.29883 24.1831 1.59781 23.5218 2.14451L20.0577 4.725C20.5125 4.93891 20.8925 5.28512 21.1483 5.71859Z" fill="white"/>
  <path d="M30.6492 44.319C30.549 44.1862 30.4741 44.0359 30.4283 43.8758C30.3614 43.7371 30.3227 43.5865 30.3142 43.4326L26.9214 45.9345C26.6316 46.1498 26.2806 46.266 25.9199 46.266C25.5593 46.266 25.2082 46.1498 24.9185 45.9345L21.5257 43.4326C21.4615 43.6042 21.4615 43.7185 21.4116 43.8758C21.3481 44.0284 21.2743 44.1765 21.1907 44.319C20.9399 44.7455 20.5743 45.0924 20.1357 45.3197L23.5856 47.8931C24.2485 48.4453 25.0831 48.7476 25.9449 48.7476C26.8067 48.7476 27.6413 48.4453 28.3042 47.8931L31.7469 45.3269C31.2768 45.1268 30.8893 44.771 30.6492 44.319Z" fill="white"/>
  <path d="M8.91676 14.6965L9.42284 14.868C9.56971 14.9121 9.70407 14.9905 9.81487 15.0968L10.4279 10.9151C10.4782 10.5633 10.6408 10.2374 10.8914 9.98608C11.142 9.73479 11.467 9.57169 11.8178 9.52121L15.9875 8.90647C15.9234 8.7921 15.8165 8.62055 15.7666 8.50617C15.7167 8.3918 15.6525 8.17736 15.5955 8.0058C15.4766 7.53372 15.4964 7.03722 15.6525 6.57617L11.4044 7.14802C10.5493 7.2333 9.7501 7.61333 9.14311 8.22336C8.53613 8.83338 8.15888 9.63563 8.07568 10.4934L7.45557 14.7322C7.93404 14.6124 8.43303 14.6002 8.91676 14.6965Z" fill="white"/>
  <path d="M42.824 35.276L42.3179 35.1044C42.1728 35.0599 42.039 34.9843 41.9259 34.8828L41.3414 39.0645C41.2878 39.4202 41.1194 39.7485 40.8619 39.999C40.6044 40.2495 40.272 40.4083 39.9159 40.4512L35.7461 41.0731C35.8293 41.1985 35.9031 41.33 35.9671 41.4663C36.0312 41.6378 36.0811 41.7951 36.1452 41.9738C36.2599 42.4468 36.2376 42.9427 36.0811 43.4034L40.3079 42.7887C41.1633 42.7023 41.9626 42.3221 42.5706 41.7125C43.1785 41.1028 43.5576 40.3012 43.6437 39.4433L44.2567 35.2045C43.7961 35.3672 43.2984 35.3921 42.824 35.276Z" fill="white"/>
  <path d="M7.08493 29.5289C7.22502 29.468 7.37451 29.4318 7.52685 29.4217L5.03212 26.0192C4.81743 25.7286 4.70154 25.3765 4.70154 25.0148C4.70154 24.6532 4.81743 24.3011 5.03212 24.0105L7.52685 20.608C7.35578 20.5437 7.24887 20.5437 7.08493 20.4936C6.92099 20.4436 6.75705 20.3221 6.643 20.272C6.21917 20.0188 5.87372 19.6526 5.64511 19.2141L3.09336 22.6667C2.54008 23.3302 2.23694 24.1677 2.23694 25.0327C2.23694 25.8977 2.54008 26.7352 3.09336 27.3988L5.64511 30.8513C5.89085 30.4254 6.2326 30.0631 6.643 29.7934C6.7675 29.6716 6.91891 29.581 7.08493 29.5289Z" fill="white"/>
  <path d="M48.6614 22.6237L46.1096 19.1711C45.8642 19.5992 45.5225 19.9639 45.1118 20.2362C44.9751 20.3298 44.8265 20.4044 44.6698 20.4578C44.5297 20.5187 44.3802 20.5549 44.2279 20.565L46.7226 23.9676C46.9379 24.2592 47.0541 24.6125 47.0541 24.9754C47.0541 25.3383 46.9379 25.6916 46.7226 25.9833L44.2279 29.3859C44.399 29.443 44.5059 29.443 44.6698 29.4931C44.8338 29.5431 44.9977 29.6646 45.1118 29.7147C45.5356 29.9679 45.881 30.3341 46.1096 30.7726L48.6614 27.3272C49.2152 26.6694 49.5189 25.8363 49.5189 24.9754C49.5189 24.1146 49.2152 23.2815 48.6614 22.6237Z" fill="white"/>
  <path d="M10.4636 39.0717L9.85064 34.8972C9.74372 34.9544 9.57265 35.0688 9.45861 35.1188L8.95254 35.2904C8.48092 35.4053 7.98639 35.383 7.52698 35.226L8.13997 39.4649C8.22448 40.3221 8.60214 41.1236 9.20887 41.7334C9.81561 42.3432 10.614 42.7236 11.4686 42.8102L15.7026 43.425C15.5756 42.9591 15.5537 42.4707 15.6384 41.9953C15.7026 41.8166 15.7525 41.6594 15.8095 41.4878C15.8521 41.3415 15.9277 41.207 16.0304 41.0947L11.8678 40.4728C11.5068 40.4423 11.1681 40.285 10.9112 40.0288C10.6544 39.7725 10.4959 39.4336 10.4636 39.0717Z" fill="white"/>
  <path d="M41.3412 10.915L41.9542 15.0967C42.0682 15.0324 42.2393 14.918 42.3462 14.868L42.8523 14.6964C43.3238 14.581 43.8185 14.6034 44.2778 14.7607L43.6648 10.5219C43.5882 9.66012 43.2147 8.85203 42.6086 8.23636C42.0025 7.62069 41.2015 7.23585 40.3433 7.14794L36.1094 6.5332C36.2398 6.99851 36.2617 7.48766 36.1735 7.96283C36.1094 8.14154 36.0666 8.2988 36.0025 8.47035C35.9598 8.61667 35.8842 8.75118 35.7815 8.8635L39.9513 9.48539C40.3092 9.53301 40.6408 9.69982 40.8928 9.95908C41.1449 10.2183 41.3028 10.555 41.3412 10.915Z" fill="white"/>
  <path d="M63.9363 16.919H62.8387L62.2969 15.375H59.9234L59.4102 16.919H58.3125L60.5863 10.8645H61.7196L63.9363 16.919ZM62.0118 14.5601L61.1921 12.1512C61.159 12.0269 61.1351 11.9002 61.1209 11.7723C61.1055 11.9012 61.0768 12.0282 61.0353 12.1512L60.2085 14.5672L62.0118 14.5601Z" fill="white"/>
  <path d="M69.0611 11.308L65.7538 16.0687H69.0254V16.9193H64.3496V16.4404L67.6712 11.7083H64.6133V10.8792H69.0611V11.308Z" fill="white"/>
  <path d="M69.6031 13.4669H74.1863C74.1567 12.9631 73.9316 12.4909 73.5591 12.1516C73.1646 11.8099 72.6542 11.6333 72.1335 11.6584C71.5243 11.6437 70.9259 11.8212 70.4228 12.1659V11.2366C70.9785 10.9293 71.606 10.7763 72.2404 10.7935C72.645 10.7693 73.0501 10.8306 73.4295 10.9735C73.8089 11.1163 74.1541 11.3375 74.4429 11.6226C74.7189 11.9286 74.9316 12.2864 75.0686 12.6754C75.2056 13.0643 75.2643 13.4767 75.2412 13.8886C75.269 14.7178 74.984 15.527 74.4429 16.1546C74.1749 16.4537 73.8441 16.6896 73.4744 16.8454C73.1047 17.0011 72.7052 17.0728 72.3046 17.0552C71.919 17.0778 71.5335 17.0079 71.1803 16.8512C70.827 16.6946 70.516 16.4558 70.2731 16.1546C69.7649 15.3553 69.5297 14.412 69.6031 13.4669ZM74.1863 14.2961H70.6866C70.6729 14.79 70.8374 15.2722 71.1499 15.6542C71.304 15.8226 71.493 15.9552 71.7035 16.0428C71.914 16.1305 72.141 16.171 72.3687 16.1617C72.6033 16.167 72.8366 16.1247 73.0546 16.0375C73.2726 15.9503 73.4708 15.82 73.6375 15.6542C73.9687 15.277 74.1622 14.7981 74.1863 14.2961Z" fill="white"/>
  <path d="M81.0216 16.919H79.8313L78.8762 15.3035C78.799 15.1695 78.7133 15.0405 78.6196 14.9175C78.5427 14.821 78.4541 14.7346 78.3558 14.6602C78.2679 14.6017 78.1749 14.5515 78.0779 14.5101C77.9647 14.476 77.8466 14.4615 77.7286 14.4672H77.3223V16.919H76.3315V10.8645H78.3059C78.5729 10.8638 78.8388 10.8974 79.0971 10.9646C79.3244 11.0244 79.5376 11.1289 79.7244 11.272C79.8995 11.4067 80.041 11.5805 80.1378 11.7795C80.2414 12.0032 80.2926 12.2477 80.2875 12.4943C80.2874 12.6939 80.2536 12.8921 80.1877 13.0804C80.1317 13.2594 80.0395 13.4249 79.9168 13.5665C79.7994 13.7075 79.6598 13.8283 79.5034 13.9239C79.3294 14.0236 79.1422 14.0981 78.9474 14.1455C79.0519 14.2035 79.1478 14.2757 79.2326 14.36C79.3179 14.4313 79.3967 14.5102 79.4678 14.5959C79.5391 14.6673 79.6103 14.7674 79.6887 14.8603C79.7671 14.9533 79.8313 15.0891 79.9168 15.2106L81.0216 16.919ZM77.3579 11.6866V13.6523H78.199C78.3452 13.6525 78.4901 13.6258 78.6267 13.5737C78.755 13.5317 78.8721 13.4608 78.9688 13.3664C79.0701 13.2753 79.1462 13.1596 79.1898 13.0304C79.2463 12.8945 79.2753 12.7487 79.2753 12.6015C79.2829 12.4753 79.2625 12.349 79.2157 12.2316C79.1689 12.1142 79.0967 12.0086 79.0045 11.9224C78.781 11.7491 78.5025 11.6627 78.2204 11.6794H77.3579V11.6866Z" fill="white"/>
  <path d="M81.7271 16.9194V10.8649H83.6444C84.1482 10.8305 84.6493 10.9637 85.07 11.2438C85.2301 11.3563 85.3605 11.5062 85.4499 11.6806C85.5393 11.8549 85.585 12.0485 85.5832 12.2445C85.5906 12.5693 85.4876 12.887 85.2909 13.1452C85.0827 13.403 84.8021 13.5923 84.4855 13.6885C84.8613 13.7135 85.2155 13.8734 85.4834 14.1388C85.7346 14.4155 85.8677 14.7799 85.854 15.1538C85.8585 15.3972 85.8053 15.6382 85.6987 15.857C85.5921 16.0757 85.4353 16.2659 85.241 16.4119C84.7974 16.7431 84.2541 16.9121 83.7014 16.8908H81.7627L81.7271 16.9194ZM82.7178 11.6798V13.4025H83.395C83.6875 13.4151 83.9759 13.3295 84.2146 13.1595C84.3175 13.0727 84.3982 12.9626 84.4503 12.8383C84.5023 12.714 84.5242 12.5791 84.514 12.4447C84.514 11.93 84.1648 11.6727 83.4805 11.6727L82.7178 11.6798ZM82.7178 14.2031V16.1188H83.566C83.8762 16.1403 84.1833 16.0461 84.4285 15.8544C84.5317 15.7675 84.6132 15.6576 84.6664 15.5335C84.7196 15.4093 84.7431 15.2744 84.735 15.1395C84.735 14.5105 84.3073 14.2031 83.4306 14.2031H82.7178Z" fill="white"/>
  <path d="M91.8775 16.919H90.787L90.2453 15.375H87.8717L87.3514 16.919H86.2466L88.5061 10.8645H89.6394L91.8775 16.919ZM89.9887 14.5601L89.1476 12.1512C89.1144 12.0269 89.0906 11.9002 89.0763 11.7723C89.0609 11.9012 89.0323 12.0282 88.9908 12.1512L88.1711 14.5672L89.9887 14.5601Z" fill="white"/>
  <path d="M96.2682 10.8788L94.2867 14.7245V16.919H93.2959V14.7317L91.3643 10.8645H92.5047L93.6879 13.4521C93.6879 13.4879 93.7449 13.6022 93.8091 13.7952C93.844 13.6771 93.8894 13.5623 93.9445 13.4521L95.1848 10.8645H96.2539L96.2682 10.8788Z" fill="white"/>
  <path d="M101.037 16.6699C100.508 16.9234 99.9261 17.0459 99.3402 17.0273C98.9461 17.05 98.5516 16.9884 98.183 16.8467C97.8143 16.705 97.4799 16.4863 97.2019 16.2052C96.6624 15.6088 96.3805 14.8223 96.4178 14.0179C96.3993 13.5885 96.4681 13.1599 96.62 12.758C96.772 12.3562 97.0039 11.9895 97.3017 11.6805C97.596 11.3842 97.9477 11.1515 98.335 10.9967C98.7224 10.8418 99.1372 10.768 99.5541 10.7798C100.04 10.7692 100.524 10.8517 100.98 11.0228V12.0236C100.574 11.7844 100.11 11.6608 99.6396 11.6662C99.3469 11.6568 99.0555 11.7078 98.7833 11.816C98.5111 11.9242 98.264 12.0873 98.0572 12.2952C97.8494 12.5204 97.6887 12.785 97.5846 13.0736C97.4805 13.3621 97.4352 13.6686 97.4514 13.975C97.4345 14.2644 97.4764 14.5543 97.5744 14.8271C97.6724 15.0998 97.8245 15.3498 98.0216 15.5619C98.2137 15.7592 98.4448 15.9139 98.7002 16.0161C98.9555 16.1183 99.2294 16.1657 99.5042 16.1552C100.025 16.1691 100.539 16.0272 100.98 15.7478V16.6699H101.037Z" fill="white"/>
  <path d="M107.138 16.919H106.04L105.491 15.375H103.118L102.64 16.919H101.542L103.809 10.8645H104.942L107.138 16.919ZM105.228 14.5601L104.394 12.1512C104.36 12.0269 104.337 11.9002 104.322 11.7723C104.307 11.9012 104.278 12.0282 104.237 12.1512L103.41 14.5672L105.228 14.5601Z" fill="white"/>
  <path d="M113.076 16.919H111.978L109.127 12.4657C109.054 12.3576 108.992 12.2427 108.942 12.1226C108.979 12.3949 108.994 12.6699 108.984 12.9446V16.919H108.008V10.8645H109.177L111.957 15.2034C112.041 15.3205 112.115 15.4449 112.178 15.5751C112.146 15.3047 112.134 15.0324 112.142 14.7602V10.8645H113.097V16.919H113.076Z" fill="white"/>
  <path d="M121.608 16.919H120.46L119.498 15.3035C119.421 15.1695 119.335 15.0405 119.241 14.9175C119.167 14.8211 119.081 14.7347 118.985 14.6602C118.894 14.6017 118.799 14.5514 118.699 14.5101C118.589 14.4755 118.473 14.461 118.357 14.4672H117.951V16.919H116.953V10.8645H118.935C119.202 10.8638 119.467 10.8974 119.726 10.9646C119.951 11.0246 120.162 11.1291 120.346 11.272C120.524 11.4059 120.668 11.5797 120.766 11.7795C120.87 12.0032 120.921 12.2477 120.916 12.4943C120.916 12.6939 120.882 12.8921 120.816 13.0804C120.755 13.2568 120.663 13.4213 120.546 13.5665C120.427 13.7093 120.285 13.8303 120.125 13.9239C119.954 14.0245 119.769 14.0992 119.576 14.1455C119.678 14.2035 119.772 14.2757 119.854 14.36C119.943 14.4275 120.022 14.5069 120.089 14.5959C120.17 14.6777 120.244 14.7661 120.31 14.8603C120.389 14.9604 120.46 15.0891 120.546 15.2106L121.608 16.919ZM117.944 11.6866V13.6523H118.778C118.926 13.653 119.074 13.6264 119.213 13.5737C119.34 13.5299 119.457 13.4592 119.555 13.3664C119.656 13.2753 119.732 13.1596 119.776 13.0304C119.832 12.8945 119.861 12.7487 119.861 12.6015C119.869 12.4753 119.848 12.349 119.802 12.2316C119.755 12.1142 119.683 12.0086 119.59 11.9224C119.367 11.7491 119.088 11.6627 118.806 11.6794H117.944V11.6866Z" fill="white"/>
  <path d="M125.691 16.919H122.306V10.8645H125.556V11.7151H123.311V13.4307H125.385V14.2956H123.311V16.0827H125.699L125.691 16.919Z" fill="white"/>
  <path d="M126.49 16.6843V15.6478C126.585 15.7408 126.696 15.8159 126.818 15.8694C126.948 15.9377 127.084 15.995 127.224 16.0409C127.364 16.0881 127.507 16.1263 127.652 16.1553C127.785 16.165 127.918 16.165 128.051 16.1553C128.375 16.1766 128.699 16.1047 128.985 15.948C129.084 15.879 129.165 15.7856 129.218 15.6768C129.272 15.568 129.297 15.4473 129.291 15.3261C129.294 15.1975 129.259 15.0708 129.191 14.9616C129.119 14.846 129.021 14.7482 128.906 14.6756C128.771 14.5817 128.628 14.5003 128.479 14.4326L127.937 14.1824C127.73 14.0752 127.545 13.9608 127.359 13.8464C127.193 13.7446 127.039 13.6221 126.903 13.4819C126.765 13.3424 126.657 13.1758 126.586 12.9926C126.515 12.8093 126.482 12.6133 126.49 12.4168C126.484 12.165 126.551 11.9169 126.682 11.702C126.809 11.4916 126.982 11.313 127.188 11.1802C127.409 11.0425 127.65 10.9389 127.901 10.8728C128.168 10.8137 128.44 10.7826 128.714 10.7799C129.182 10.754 129.65 10.8245 130.089 10.9872V11.9736C129.701 11.7114 129.239 11.5811 128.771 11.6019C128.623 11.6035 128.475 11.6154 128.329 11.6377C128.193 11.6656 128.061 11.7112 127.937 11.7735C127.828 11.8389 127.731 11.9237 127.652 12.0237C127.589 12.1323 127.556 12.2556 127.556 12.3811C127.556 12.5065 127.589 12.6298 127.652 12.7385C127.717 12.844 127.802 12.9361 127.901 13.0101C128.024 13.1007 128.156 13.1797 128.293 13.246C128.45 13.3175 128.621 13.4033 128.835 13.489C129.049 13.5748 129.241 13.7106 129.419 13.8321C129.597 13.9511 129.761 14.0876 129.911 14.2396C130.056 14.3785 130.17 14.5466 130.246 14.7328C130.332 14.9235 130.373 15.1313 130.367 15.3404C130.38 15.6101 130.315 15.8778 130.182 16.1124C130.06 16.324 129.889 16.503 129.683 16.6342C129.463 16.7682 129.222 16.8648 128.97 16.9202C128.687 16.9788 128.398 17.0075 128.108 17.0059C128.008 17.0059 127.887 17.0059 127.737 17.0059L127.288 16.9487C127.136 16.9225 126.986 16.8842 126.839 16.8344C126.717 16.8002 126.599 16.7497 126.49 16.6843Z" fill="white"/>
  <path d="M132.449 14.7247V16.9192H131.451V10.8647H133.29C133.866 10.8272 134.437 10.997 134.901 11.3436C135.095 11.5128 135.248 11.7246 135.348 11.9625C135.449 12.2005 135.493 12.4583 135.478 12.7161C135.488 12.9838 135.44 13.2504 135.336 13.4974C135.233 13.7443 135.077 13.9656 134.879 14.1457C134.435 14.5353 133.857 14.7354 133.268 14.7033H132.456L132.449 14.7247ZM132.449 11.7011V13.9098H133.104C133.456 13.9314 133.805 13.8276 134.088 13.6168C134.2 13.5081 134.287 13.3765 134.344 13.2309C134.4 13.0853 134.425 12.9293 134.416 12.7733C134.416 12.0585 133.995 11.7011 133.176 11.7011H132.449Z" fill="white"/>
  <path d="M141.13 14.4749C141.13 16.1762 140.332 17.0268 138.721 17.0268C137.11 17.0268 136.419 16.2119 136.419 14.575V10.8794H137.417V14.3677C137.417 15.5472 137.873 16.1405 138.793 16.1405C139.712 16.1405 140.118 15.5758 140.118 14.4249V10.8508H141.13V14.4249V14.4749Z" fill="white"/>
  <path d="M142.556 16.9197V10.8652H144.473C144.977 10.8297 145.479 10.963 145.899 11.2441C146.061 11.3549 146.194 11.5043 146.285 11.6789C146.375 11.8535 146.422 12.0479 146.419 12.2448C146.425 12.5705 146.319 12.8883 146.12 13.1455C145.916 13.4045 145.637 13.5941 145.322 13.6888C145.697 13.7157 146.051 13.8753 146.32 14.1391C146.571 14.4158 146.704 14.7802 146.69 15.1541C146.693 15.3981 146.639 15.6392 146.531 15.8579C146.423 16.0766 146.265 16.2666 146.07 16.4122C145.629 16.7434 145.088 16.9125 144.538 16.8911H142.556V16.9197ZM143.554 11.6801V13.4028H144.203C144.497 13.4164 144.788 13.3309 145.029 13.1598C145.131 13.0722 145.21 12.9618 145.261 12.8376C145.312 12.7133 145.333 12.5788 145.322 12.445C145.322 11.9303 144.979 11.673 144.288 11.673L143.554 11.6801ZM143.554 14.2034V16.1191H144.402C144.712 16.1406 145.019 16.0464 145.265 15.8547C145.368 15.7678 145.449 15.6579 145.503 15.5338C145.556 15.4096 145.579 15.2747 145.571 15.1398C145.571 14.5108 145.136 14.2034 144.267 14.2034H143.554Z" fill="white"/>
  <path d="M151.11 16.919H147.767V10.8645H148.764V16.0684H151.11V16.919Z" fill="white"/>
  <path d="M152.449 10.3077C152.316 10.3064 152.188 10.2584 152.086 10.1719C152.038 10.1288 152 10.0759 151.974 10.0167C151.948 9.95748 151.935 9.8934 151.936 9.82879C151.936 9.76424 151.949 9.7003 151.974 9.64116C152 9.58203 152.038 9.52904 152.086 9.48567C152.134 9.43915 152.191 9.40307 152.254 9.3797C152.316 9.35633 152.383 9.34617 152.449 9.34986C152.585 9.34748 152.718 9.39589 152.82 9.48567C152.869 9.52812 152.908 9.58094 152.934 9.64029C152.959 9.69964 152.972 9.76403 152.97 9.82879C152.971 9.8934 152.958 9.95748 152.932 10.0167C152.906 10.0759 152.868 10.1288 152.82 10.1719C152.771 10.219 152.713 10.2553 152.649 10.2787C152.585 10.3021 152.517 10.312 152.449 10.3077ZM152.984 16.9198H151.95V10.8653H152.984V16.9198Z" fill="white"/>
  <path d="M159.028 16.9193H157.724L155.621 14.153C155.57 14.0866 155.523 14.0174 155.479 13.9457V16.9336H154.481V10.8792H155.479V13.7384C155.521 13.6656 155.568 13.5962 155.621 13.5311L157.653 10.8934H158.857L156.484 13.7527L159.028 16.9193Z" fill="white"/>
  <path d="M164.688 16.919H163.59L163.048 15.375H160.675L160.162 16.919H159.064L161.331 10.8645H162.457L164.688 16.919ZM162.778 14.5601L161.944 12.1512C161.91 12.0269 161.887 11.9002 161.872 11.7723C161.862 11.9007 161.838 12.0277 161.801 12.1512L160.974 14.5672L162.778 14.5601Z" fill="white"/>
  <path d="M165.237 16.6843V15.6478C165.335 15.7394 165.449 15.8142 165.572 15.8694C165.702 15.9376 165.838 15.995 165.978 16.0409C166.117 16.0899 166.26 16.1281 166.406 16.1553C166.536 16.1646 166.667 16.1646 166.798 16.1553C167.122 16.1787 167.447 16.1066 167.731 15.948C167.832 15.8798 167.914 15.7868 167.969 15.678C168.024 15.5691 168.05 15.448 168.045 15.3261C168.045 15.1978 168.01 15.0719 167.945 14.9615C167.869 14.8492 167.772 14.7522 167.66 14.6756C167.525 14.5817 167.382 14.5003 167.232 14.4326L166.691 14.1824C166.477 14.0752 166.299 13.9608 166.113 13.8464C165.945 13.7464 165.792 13.6237 165.657 13.4819C165.529 13.3489 165.425 13.1939 165.351 13.0244C165.269 12.8326 165.23 12.6253 165.237 12.4168C165.234 12.1643 165.303 11.9163 165.436 11.702C165.561 11.4899 165.734 11.311 165.942 11.1802C166.163 11.0425 166.403 10.9389 166.655 10.8728C166.92 10.8141 167.189 10.783 167.46 10.7799C167.931 10.754 168.401 10.8245 168.843 10.9872V11.9736C168.454 11.7132 167.992 11.5831 167.525 11.6019C167.377 11.6032 167.229 11.6151 167.083 11.6377C166.946 11.6635 166.814 11.7093 166.691 11.7735C166.579 11.835 166.481 11.9204 166.406 12.0237C166.343 12.1323 166.31 12.2556 166.31 12.3811C166.31 12.5065 166.343 12.6298 166.406 12.7385C166.468 12.8438 166.55 12.9361 166.648 13.0101C166.773 13.0976 166.904 13.1764 167.04 13.246L167.582 13.489C167.795 13.6034 167.988 13.7106 168.173 13.8321C168.35 13.9511 168.515 14.0876 168.665 14.2396C168.808 14.3801 168.922 14.5478 169 14.7328C169.086 14.9235 169.127 15.1313 169.121 15.3404C169.129 15.6097 169.065 15.8763 168.936 16.1124C168.813 16.3259 168.639 16.5053 168.43 16.6342C168.21 16.7689 167.969 16.8655 167.717 16.9201C167.433 16.9788 167.144 17.0075 166.855 17.0059C166.755 17.0059 166.634 17.0059 166.484 17.0059L166.028 16.9487C165.878 16.9216 165.73 16.8833 165.586 16.8344C165.464 16.7994 165.346 16.749 165.237 16.6843Z" fill="white"/>
  <path d="M171.224 16.919H170.19V10.8645H171.224V16.919Z" fill="white"/>
  <path d="M63.6371 28.0137H62.4681L61.513 26.3982C61.4376 26.2654 61.3518 26.1387 61.2564 26.0194C61.1834 25.9175 61.0943 25.8281 60.9927 25.7549C60.9062 25.696 60.8128 25.648 60.7147 25.6119C60.6043 25.5758 60.4886 25.5589 60.3726 25.5619H59.9663V28.0137H58.9684V21.9592H60.9499C61.2144 21.959 61.4779 21.9926 61.734 22.0593C61.9602 22.1221 62.1728 22.2263 62.3612 22.3667C62.5365 22.5032 62.6801 22.6764 62.7818 22.8742C62.8796 23.0995 62.9282 23.3433 62.9243 23.589C62.9242 23.791 62.8905 23.9915 62.8245 24.1823C62.7665 24.3567 62.6771 24.5191 62.5608 24.6612C62.3072 24.9562 61.9642 25.1596 61.5843 25.2402C61.6895 25.294 61.7857 25.364 61.8694 25.4475C61.9531 25.5207 62.0316 25.5995 62.1046 25.6834C62.1831 25.7699 62.2568 25.8606 62.3256 25.9551C62.3969 26.0551 62.4681 26.1766 62.5608 26.2982L63.6371 28.0137ZM59.9734 22.7884V24.747H60.8145C60.9602 24.7495 61.1051 24.7253 61.2421 24.6755C61.3709 24.631 61.4879 24.5577 61.5843 24.4611C61.6855 24.3729 61.7617 24.2594 61.8052 24.1323C61.8616 23.9938 61.8906 23.8458 61.8908 23.6962C61.8983 23.5711 61.8778 23.4458 61.831 23.3296C61.7841 23.2134 61.712 23.1091 61.6199 23.0243C61.3994 22.8447 61.1193 22.7554 60.8359 22.7741H59.9734V22.7884Z" fill="white"/>
  <path d="M63.9438 24.5609H68.5341C68.5088 24.0478 68.2835 23.5652 67.9068 23.217C67.5105 22.8785 67.0014 22.7023 66.4813 22.7238C65.874 22.7067 65.2771 22.8845 64.7777 23.2313V22.3092C65.331 21.995 65.9597 21.8392 66.5953 21.8589C66.9998 21.8347 67.4049 21.8961 67.7844 22.0389C68.1638 22.1817 68.509 22.4029 68.7978 22.6881C69.0731 22.9944 69.2854 23.3523 69.4224 23.7412C69.5594 24.1301 69.6184 24.5422 69.5961 24.954C69.6222 25.7851 69.3375 26.5959 68.7978 27.2272C68.5295 27.5259 68.1987 27.7615 67.829 27.9172C67.4594 28.0729 67.06 28.1448 66.6594 28.1278C66.2752 28.1481 65.8915 28.077 65.5398 27.9205C65.188 27.764 64.8781 27.5265 64.6352 27.2272C64.1115 26.442 63.8679 25.5024 63.9438 24.5609ZM68.5341 25.3972H65.0272C65.0129 25.8924 65.1803 26.3757 65.4976 26.7554C65.6502 26.9257 65.8389 27.0597 66.0498 27.1475C66.2607 27.2353 66.4884 27.2747 66.7165 27.2629C66.9503 27.2705 67.1833 27.2294 67.4004 27.142C67.6176 27.0546 67.8143 26.923 67.9781 26.7554C68.3224 26.3858 68.5202 25.9028 68.5341 25.3972Z" fill="white"/>
  <path d="M73.1882 28.1138C72.7772 28.118 72.3696 28.0378 71.9907 27.8779C71.6458 27.7351 71.3348 27.5207 71.0784 27.2489C70.8263 26.9671 70.6303 26.6395 70.501 26.2839C70.3592 25.8848 70.2892 25.4637 70.2943 25.0401C70.2901 24.5932 70.3599 24.1487 70.501 23.7248C70.626 23.349 70.8275 23.0034 71.0926 22.7098C71.3517 22.4277 71.6709 22.2078 72.0264 22.0664C72.4201 21.9165 72.8383 21.8413 73.2595 21.8448C73.655 21.8438 74.047 21.9191 74.4142 22.0664C74.7583 22.2128 75.0676 22.4305 75.3219 22.7053C75.5761 22.98 75.7696 23.3055 75.8896 23.6605C76.0299 24.055 76.0998 24.4712 76.0964 24.89C76.106 25.4286 76.0066 25.9636 75.8041 26.4626C75.6184 26.8874 75.3292 27.2585 74.963 27.5419L76.7093 28.8143H75.184L74.1291 27.9923C73.9794 28.028 73.8297 28.0637 73.68 28.0852C73.5173 28.1096 73.3527 28.1191 73.1882 28.1138ZM73.2381 22.7527C72.992 22.7533 72.7489 22.8069 72.5253 22.9099C72.2967 23.0164 72.0946 23.1727 71.9337 23.3674C71.7619 23.5783 71.6335 23.8212 71.5559 24.0822C71.3754 24.6812 71.3754 25.3203 71.5559 25.9193C71.6295 26.1804 71.7557 26.4237 71.9266 26.6341C72.0816 26.8289 72.2792 26.9854 72.5039 27.0916C72.7261 27.199 72.9702 27.2528 73.2167 27.2489C73.4828 27.256 73.7474 27.2073 73.9937 27.1059C74.2191 27.0072 74.4191 26.8581 74.5781 26.6699C74.755 26.4634 74.8818 26.2188 74.9488 25.955C75.0397 25.6513 75.0853 25.3358 75.0842 25.0186C75.0906 24.6928 75.0498 24.3677 74.963 24.0536C74.8866 23.7964 74.766 23.5545 74.6066 23.3388C74.4524 23.1468 74.2544 22.9948 74.0293 22.8956C73.7764 22.8002 73.5083 22.7517 73.2381 22.7527Z" fill="white"/>
  <path d="M76.8164 24.5613H81.4067C81.3778 24.0491 81.1531 23.5678 80.7795 23.2174C80.3832 22.8789 79.8741 22.7027 79.3539 22.7242C78.7467 22.707 78.1498 22.8849 77.6504 23.2317V22.3096C78.2037 21.9954 78.8324 21.8396 79.468 21.8593C79.8724 21.836 80.2773 21.8978 80.6566 22.0405C81.0358 22.1833 81.3812 22.404 81.6705 22.6885C81.9458 22.9948 82.1581 23.3527 82.2951 23.7416C82.4321 24.1304 82.4911 24.5426 82.4688 24.9544C82.4949 25.7855 82.2101 26.5963 81.6705 27.2275C81.4012 27.5251 81.0703 27.76 80.7008 27.9156C80.3314 28.0712 79.9325 28.1437 79.5321 28.1282C79.1478 28.1484 78.7642 28.0774 78.4125 27.9209C78.0607 27.7644 77.7508 27.5268 77.5078 27.2275C76.9842 26.4424 76.7405 25.5028 76.8164 24.5613ZM81.4067 25.3976H77.8999C77.8856 25.8928 78.0529 26.3761 78.3703 26.7558C78.5222 26.9251 78.7097 27.0585 78.9192 27.1463C79.1288 27.2341 79.3552 27.274 79.582 27.2633C79.8169 27.2706 80.0508 27.2294 80.2691 27.142C80.4874 27.0547 80.6854 26.9232 80.8508 26.7558C81.1951 26.3862 81.3928 25.9032 81.4067 25.3976Z" fill="white"/>
  <path d="M90.0598 28.0141H89.0976V24.104C89.0976 23.7895 89.0976 23.3892 89.1617 22.9389C89.1252 23.1311 89.0727 23.32 89.0049 23.5036L87.2087 28.0284H86.4959L84.6926 23.5393C84.6427 23.4035 84.5928 23.2034 84.5287 22.9389C84.5287 23.1819 84.5287 23.5751 84.5287 24.1183V28.0284H83.6021V21.9739H85.0276L86.61 26.0054C86.7076 26.2369 86.7862 26.476 86.8452 26.7203C86.9083 26.4745 86.9942 26.2352 87.1018 26.0054L88.7127 22.0025H90.0741V28.0284L90.0598 28.0141Z" fill="white"/>
  <path d="M91.2357 27.7776V26.7411C91.3344 26.8349 91.4475 26.9122 91.5708 26.9698C91.7008 27.0339 91.834 27.0911 91.9699 27.1414C92.1112 27.1905 92.2568 27.2264 92.4047 27.2486C92.5339 27.2734 92.6652 27.2854 92.7967 27.2843C93.1215 27.3077 93.4459 27.2357 93.7305 27.077C93.8403 27.0135 93.9312 26.9216 93.9939 26.8111C94.0565 26.7005 94.0886 26.5752 94.0869 26.448C94.0905 26.317 94.0558 26.1878 93.9871 26.0763C93.9134 25.9642 93.819 25.8671 93.7091 25.7904C93.5727 25.6949 93.427 25.6135 93.2743 25.5473L92.7397 25.2971C92.5259 25.1899 92.3406 25.0756 92.1552 24.9683C91.9908 24.8636 91.8399 24.7387 91.7062 24.5966C91.5762 24.4648 91.4722 24.3096 91.3997 24.1391C91.3085 23.9687 91.2527 23.7814 91.2357 23.5887C91.234 23.3364 91.3032 23.0887 91.4353 22.8739C91.5596 22.6659 91.7304 22.4897 91.9343 22.3593C92.1543 22.2199 92.3948 22.1162 92.647 22.0519C92.9131 21.987 93.1858 21.9534 93.4596 21.9518C93.9275 21.9251 94.3959 21.9957 94.8353 22.1591V23.1455C94.4475 22.8875 93.9889 22.7575 93.5238 22.7738C93.3754 22.7736 93.2274 22.788 93.0818 22.8167C92.9435 22.8357 92.8103 22.8819 92.6898 22.9525C92.5766 23.0093 92.4788 23.0927 92.4047 23.1956C92.328 23.3041 92.2881 23.4343 92.2907 23.5673C92.2874 23.6873 92.317 23.806 92.3762 23.9104C92.4416 24.0159 92.5262 24.108 92.6257 24.182C92.7471 24.2752 92.8786 24.3543 93.0177 24.4179L93.5594 24.661C93.7624 24.7676 93.9598 24.8845 94.151 25.0112C94.3314 25.1257 94.4967 25.2626 94.6428 25.4187C94.7853 25.5583 94.897 25.7263 94.9707 25.9119C95.0589 26.0995 95.1028 26.305 95.099 26.5123C95.1063 26.7838 95.0424 27.0525 94.9137 27.2915C94.7848 27.4983 94.612 27.674 94.4076 27.8061C94.1878 27.9412 93.9468 28.0378 93.6948 28.0921C93.4112 28.151 93.1221 28.1798 92.8324 28.1779C92.7397 28.1779 92.6114 28.1779 92.4689 28.1779C92.3263 28.1779 92.1695 28.1779 92.0127 28.1207C91.8628 28.0935 91.7151 28.0553 91.5708 28.0063C91.4493 27.9456 91.3366 27.8687 91.2357 27.7776Z" fill="white"/>
  <path d="M101.215 28.014H100.117L99.5538 26.4485H97.1802L96.6599 27.9854H95.5693L97.8288 21.9309H98.9622L101.215 28.014ZM99.3114 25.6622L98.4703 23.2462C98.4266 23.1248 98.3909 23.0006 98.3634 22.8745C98.3487 23.0058 98.3201 23.1352 98.2779 23.2605L97.4582 25.6765L99.3114 25.6622Z" fill="white"/>
  <path d="M105.356 28.0137H102.006V21.9592H103.004V27.1631H105.342V28.0137H105.356Z" fill="white"/>
  <path d="M109.091 21.4447C108.956 21.4422 108.825 21.3944 108.72 21.3089C108.674 21.2636 108.637 21.209 108.612 21.1487C108.588 21.0885 108.576 21.0237 108.578 20.9586C108.576 20.8946 108.587 20.8308 108.612 20.7717C108.637 20.7125 108.673 20.6593 108.72 20.6155C108.769 20.5685 108.828 20.5321 108.891 20.5087C108.955 20.4853 109.023 20.4755 109.091 20.4797C109.227 20.4773 109.359 20.5257 109.461 20.6155C109.509 20.6587 109.546 20.7118 109.571 20.7711C109.596 20.8304 109.607 20.8945 109.604 20.9586C109.606 21.0237 109.594 21.0885 109.569 21.1487C109.545 21.209 109.508 21.2636 109.461 21.3089C109.358 21.397 109.227 21.4451 109.091 21.4447ZM109.618 28.0496H108.585V21.9594H109.618V28.0496Z" fill="white"/>
  <path d="M116.219 28.0137H115.128L112.277 23.5604C112.206 23.4515 112.144 23.3368 112.092 23.2173C112.122 23.4926 112.134 23.7696 112.127 24.0465V28.0137H111.158V21.9592H112.327L115.107 26.2982C115.187 26.4181 115.261 26.5422 115.328 26.6699C115.299 26.3992 115.288 26.1271 115.292 25.855V21.9592H116.183V28.0137H116.219Z" fill="white"/>
  <path d="M122.27 28.0141H120.966L118.827 25.2549C118.776 25.1863 118.728 25.1147 118.685 25.0404V28.0284H117.687V21.9739H118.685V24.8331C118.728 24.7614 118.776 24.6922 118.827 24.6258L120.859 21.9882H122.063L119.747 24.8689L122.27 28.0141Z" fill="white"/>
  <path d="M123.46 21.4439C123.327 21.4426 123.199 21.3946 123.097 21.3081C123.049 21.2631 123.012 21.2088 122.986 21.1485C122.96 21.0883 122.947 21.0234 122.947 20.9578C122.947 20.8933 122.96 20.8293 122.986 20.7702C123.011 20.7111 123.049 20.6581 123.097 20.6147C123.144 20.5674 123.201 20.5309 123.264 20.5075C123.327 20.484 123.394 20.4743 123.46 20.4789C123.597 20.4765 123.729 20.5249 123.831 20.6147C123.88 20.6571 123.919 20.71 123.945 20.7693C123.97 20.8287 123.983 20.8931 123.981 20.9578C123.981 21.0234 123.968 21.0883 123.942 21.1485C123.916 21.2088 123.879 21.2631 123.831 21.3081C123.73 21.4004 123.597 21.4492 123.46 21.4439ZM124.002 28.0488H122.969V21.9586H124.024L124.002 28.0488Z" fill="white"/>
  <path d="M125.207 27.7779V26.7414C125.305 26.8352 125.419 26.9125 125.542 26.9701C125.674 27.0354 125.809 27.0927 125.948 27.1417C126.087 27.1916 126.23 27.2275 126.376 27.2489C126.505 27.2737 126.636 27.2857 126.768 27.2846C127.093 27.308 127.417 27.236 127.702 27.0773C127.801 27.0098 127.882 26.918 127.937 26.8105C127.992 26.703 128.019 26.5833 128.015 26.4626C128.016 26.3319 127.982 26.2033 127.915 26.0909C127.837 25.9802 127.741 25.8835 127.63 25.805C127.495 25.711 127.352 25.6297 127.203 25.5619L126.661 25.3117C126.447 25.2045 126.269 25.0902 126.084 24.9829C125.917 24.8782 125.764 24.7534 125.627 24.6112C125.497 24.4794 125.393 24.3242 125.321 24.1537C125.24 23.9642 125.201 23.7594 125.207 23.5533C125.205 23.301 125.274 23.0532 125.406 22.8385C125.531 22.6285 125.705 22.4519 125.912 22.3238C126.132 22.1832 126.373 22.0794 126.625 22.0164C127.351 21.8517 128.107 21.8887 128.813 22.1237V23.1101C128.423 22.8528 127.962 22.723 127.495 22.7384C127.347 22.7385 127.199 22.7529 127.053 22.7813C126.915 22.8003 126.781 22.8464 126.661 22.9171C126.548 22.9739 126.45 23.0572 126.376 23.1601C126.301 23.2693 126.264 23.3996 126.269 23.5319C126.262 23.6522 126.292 23.7718 126.354 23.875C126.417 23.9803 126.499 24.0726 126.597 24.1466C126.72 24.2366 126.851 24.3156 126.989 24.3825L127.53 24.6255C127.734 24.7306 127.932 24.8476 128.122 24.9758C128.303 25.0902 128.468 25.2271 128.614 25.3832C128.759 25.5222 128.873 25.6902 128.949 25.8764C129.035 26.0646 129.076 26.2701 129.07 26.4769C129.077 26.7484 129.013 27.0171 128.885 27.256C128.76 27.466 128.586 27.6426 128.379 27.7707C128.159 27.9057 127.918 28.0024 127.666 28.0566C127.385 28.1156 127.098 28.1443 126.811 28.1424C126.711 28.1424 126.59 28.1424 126.44 28.1424C126.29 28.1424 126.148 28.1424 125.984 28.0852C125.834 28.0581 125.686 28.0198 125.542 27.9709C125.422 27.9213 125.31 27.8564 125.207 27.7779ZM128.058 29.0645C128.058 29.6078 127.652 29.8794 126.846 29.8794C126.73 29.8873 126.613 29.8873 126.497 29.8794V29.4076C126.625 29.4076 126.718 29.4076 126.796 29.4076C127.16 29.4076 127.359 29.2933 127.359 29.0574C127.359 28.8215 127.188 28.75 126.853 28.75C126.801 28.7449 126.749 28.7449 126.697 28.75V28.0137H127.274V28.4069C127.48 28.3969 127.684 28.4574 127.851 28.5785C127.921 28.6379 127.976 28.7128 128.012 28.7971C128.047 28.8815 128.063 28.973 128.058 29.0645Z" fill="white"/>
  <path d="M135.129 28.014H134.038L133.497 26.4485H131.109L130.596 27.9854H129.498L131.765 21.9309H132.891L135.129 28.014ZM133.226 25.6622L132.392 23.2462C132.356 23.1196 132.33 22.9906 132.314 22.8602C132.302 22.9921 132.274 23.1219 132.228 23.2462L131.408 25.6622H133.226Z" fill="white"/>
  <path d="M139.213 22.8242H136.961V24.6398H139.042V25.4904H136.961V28.0137H135.963V21.9592H139.227V22.8242H139.213Z" fill="white"/>
  <path d="M147.374 21.9735L145.236 28.028H144.117L141.979 21.9735H143.076L144.559 26.5626C144.612 26.7257 144.65 26.8931 144.673 27.063C144.696 26.8878 144.737 26.7154 144.794 26.5483L146.319 21.9592H147.374V21.9735Z" fill="white"/>
  <path d="M147.78 24.5616H152.364C152.338 24.0485 152.113 23.5658 151.736 23.2177C151.341 22.8779 150.831 22.7016 150.311 22.7245C149.702 22.7107 149.104 22.8882 148.6 23.232V22.3099C149.156 21.9965 149.787 21.8408 150.425 21.8596C150.828 21.8337 151.233 21.8943 151.611 22.0372C151.99 22.1802 152.334 22.4023 152.62 22.6888C152.897 22.9942 153.11 23.352 153.247 23.7411C153.384 24.1302 153.442 24.5428 153.418 24.9547C153.448 25.7863 153.163 26.5984 152.62 27.2278C152.352 27.527 152.021 27.7629 151.652 27.9186C151.282 28.0743 150.882 28.146 150.482 28.1285C150.096 28.1487 149.712 28.0778 149.359 27.9213C149.006 27.7648 148.695 27.5273 148.45 27.2278C147.938 26.4384 147.702 25.5003 147.78 24.5616ZM152.364 25.3979H148.864C148.851 25.8917 149.015 26.3738 149.327 26.7561C149.481 26.9252 149.669 27.0583 149.88 27.146C150.091 27.2338 150.318 27.2739 150.546 27.2636C150.781 27.2709 151.015 27.2297 151.233 27.1423C151.451 27.055 151.649 26.9235 151.815 26.7561C152.151 26.382 152.345 25.9012 152.364 25.3979Z" fill="white"/>
  <path d="M64.093 39.1072H63.0025L60.1514 34.661C60.0829 34.5504 60.021 34.4358 59.9661 34.3179C59.9846 34.5916 59.9846 34.8662 59.9661 35.1399V39.1072H58.9824V33.0598H60.1443L62.9241 37.3987C63.0091 37.513 63.0831 37.635 63.1451 37.7633C63.1288 37.4943 63.1288 37.2246 63.1451 36.9556V33.0598H64.0788V39.1072H64.093Z" fill="white"/>
  <path d="M65.191 35.6624H69.7742C69.7632 35.4063 69.7015 35.1549 69.5926 34.9229C69.4837 34.6909 69.3297 34.4831 69.1398 34.3114C68.7453 33.9697 68.2349 33.7931 67.7143 33.8182C67.1062 33.8042 66.5088 33.979 66.0036 34.3186V33.4036C66.5579 33.0925 67.1864 32.9393 67.8212 32.9604C68.225 32.9371 68.6293 32.9981 69.0084 33.1396C69.3876 33.2811 69.7333 33.5 70.0237 33.7824C70.2995 34.0899 70.5121 34.449 70.6491 34.8391C70.7861 35.2292 70.8448 35.6426 70.822 36.0556C70.8484 36.8845 70.5635 37.6932 70.0237 38.3215C69.7557 38.6207 69.4249 38.8566 69.0552 39.0123C68.6855 39.168 68.2859 39.2397 67.8853 39.2222C67.4997 39.2447 67.1143 39.1748 66.761 39.0182C66.4078 38.8615 66.0968 38.6227 65.8539 38.3215C65.3434 37.5341 65.11 36.5981 65.191 35.6624ZM69.7742 36.4987H66.2887C66.2808 36.993 66.4474 37.474 66.7591 37.8569C66.9134 38.0247 67.1025 38.1565 67.3131 38.243C67.5237 38.3295 67.7507 38.3685 67.978 38.3573C68.2112 38.3646 68.4434 38.3239 68.6604 38.2379C68.8773 38.1518 69.0745 38.0222 69.2396 37.8569C69.5707 37.4808 69.7599 37.0002 69.7742 36.4987Z" fill="white"/>
  <path d="M74.4355 39.2081C74.0303 39.2148 73.6279 39.1394 73.2523 38.9866C72.9068 38.8448 72.5957 38.6302 72.34 38.3575C72.0895 38.0772 71.8936 37.7523 71.7626 37.3997C71.6219 37.0003 71.552 36.5794 71.5559 36.1559C71.551 35.7066 71.6208 35.2597 71.7626 34.8335C71.8885 34.4602 72.0899 34.1171 72.3542 33.8256C72.6127 33.5427 72.932 33.3227 73.288 33.1822C73.6808 33.0289 74.0996 32.9536 74.5211 32.9607C74.9169 32.9561 75.3096 33.0315 75.6758 33.1822C76.0145 33.3287 76.3201 33.5428 76.5739 33.8113C76.8292 34.0879 77.0257 34.4138 77.1512 34.7691C77.2914 35.1661 77.3613 35.5846 77.3579 36.0058C77.3684 36.5421 77.269 37.075 77.0657 37.5712C76.8929 37.9938 76.6186 38.367 76.2674 38.6577L78.0066 39.923H76.4883L75.4049 39.0866L74.963 39.1867C74.7879 39.2063 74.6116 39.2135 74.4355 39.2081ZM74.4854 33.847C74.23 33.8397 73.9764 33.8914 73.7441 33.9979C73.5117 34.1045 73.3069 34.2632 73.1454 34.4618C72.9715 34.6724 72.8407 34.9153 72.7605 35.1766C72.6681 35.4775 72.6224 35.791 72.6251 36.1058C72.6239 36.4136 72.6696 36.7197 72.7605 37.0137C72.8366 37.2738 72.9625 37.5166 73.1311 37.7285C73.2885 37.9191 73.4856 38.0728 73.7085 38.1788C73.93 38.2887 74.1741 38.345 74.4213 38.3432C74.6879 38.3481 74.9525 38.297 75.1982 38.1931C75.4254 38.0972 75.6278 37.9505 75.7898 37.7642C75.9592 37.5539 76.083 37.3104 76.1533 37.0494C76.2453 36.7459 76.291 36.4302 76.2888 36.113C76.2957 35.7895 76.2549 35.4667 76.1676 35.1551C76.0945 34.8966 75.9736 34.6541 75.8112 34.4403C75.6642 34.241 75.4641 34.0873 75.2339 33.9971C74.9961 33.9 74.7421 33.849 74.4854 33.847Z" fill="white"/>
  <path d="M81.7985 39.1072H78.4556V33.0598H79.4463V38.2565H81.7842V39.1072H81.7985Z" fill="white"/>
  <path d="M83.1743 32.5027C83.0391 32.5002 82.9087 32.4524 82.8037 32.3669C82.7583 32.3222 82.7223 32.2687 82.6979 32.2098C82.6734 32.1509 82.6609 32.0877 82.6611 32.0238C82.6611 31.8929 82.7123 31.7671 82.8037 31.6736C82.9047 31.5812 83.0378 31.5325 83.1743 31.5377C83.3104 31.5354 83.4425 31.5838 83.545 31.6736C83.5927 31.7181 83.6301 31.7725 83.6547 31.8329C83.6793 31.8934 83.6905 31.9586 83.6875 32.0238C83.6895 32.0879 83.6778 32.1516 83.6532 32.2108C83.6286 32.27 83.5917 32.3232 83.545 32.3669C83.4432 32.4579 83.3106 32.5065 83.1743 32.5027ZM83.7018 39.1076H82.6825V33.0603H83.716L83.7018 39.1076Z" fill="white"/>
  <path d="M89.3824 33.067L87.4009 36.9127V39.1072H86.4102V36.927L84.4785 33.0598H85.619L86.8022 35.6474C86.8503 35.7589 86.8907 35.8736 86.9233 35.9906C86.9583 35.8724 87.0036 35.7576 87.0588 35.6474L88.299 33.0598H89.3682L89.3824 33.067Z" fill="white"/>
  <path d="M94.3647 33.067L92.3831 36.9127V39.1072H91.3852V36.927L89.4536 33.0598H90.6012L91.7773 35.6474C91.8258 35.7596 91.8686 35.8741 91.9056 35.9906C91.9056 35.9048 91.984 35.7833 92.041 35.6474L93.2884 33.0598H94.3575L94.3647 33.067Z" fill="white"/>
  <path d="M99.4256 39.1072H98.3636L97.8218 37.5703H95.4483L94.9351 39.1072H93.8374L96.0969 33.0598H97.2302L99.4256 39.1072ZM97.5225 36.7554L96.6885 34.3107C96.6515 34.1845 96.6253 34.0554 96.6101 33.9247C96.5936 34.0564 96.5625 34.1859 96.5175 34.3107L95.6978 36.7268L97.5225 36.7554Z" fill="white"/>
  <path d="M103.51 33.9183H101.778V39.1078H100.78V33.9183H99.0762V33.0676H103.538V33.9183H103.51Z" fill="white"/>
  <path d="M111.906 39.1072H110.809L107.958 34.661C107.889 34.5519 107.829 34.4371 107.779 34.3179C107.814 34.5905 107.826 34.8654 107.815 35.1399V39.1072H106.846V33.0598H108.015L110.795 37.3987C110.916 37.5846 110.987 37.7061 111.015 37.7633C110.987 37.495 110.975 37.2253 110.98 36.9556V33.0598H111.906V39.1072Z" fill="white"/>
  <path d="M118.322 39.1072H117.231L116.69 37.5703H114.316L113.803 39.1072H112.705L114.965 33.0598H116.098L118.322 39.1072ZM116.419 36.7554L115.585 34.3107C115.548 34.1845 115.521 34.0554 115.506 33.9247C115.488 34.0555 115.46 34.1846 115.421 34.3107L114.594 36.7268L116.419 36.7554Z" fill="white"/>
  <path d="M123.454 33.5037L120.146 38.2572H123.404V39.1078H118.742V38.6575L122.064 33.9183H119.034V33.0676H123.489V33.5037H123.454Z" fill="white"/>
  <path d="M124.886 32.5028C124.753 32.5015 124.624 32.4535 124.523 32.367C124.475 32.3236 124.437 32.2706 124.411 32.2115C124.385 32.1524 124.372 32.0884 124.373 32.0239C124.373 31.9583 124.386 31.8934 124.411 31.8332C124.437 31.7729 124.475 31.7186 124.523 31.6736C124.571 31.6278 124.628 31.5922 124.691 31.5688C124.753 31.5455 124.819 31.535 124.886 31.5378C125.022 31.5354 125.154 31.5838 125.257 31.6736C125.305 31.7178 125.344 31.7719 125.37 31.8324C125.395 31.8928 125.408 31.9581 125.406 32.0239C125.407 32.0884 125.394 32.1524 125.368 32.2115C125.342 32.2706 125.304 32.3236 125.257 32.367C125.208 32.4141 125.149 32.4504 125.086 32.4738C125.022 32.4972 124.954 32.5071 124.886 32.5028ZM125.421 39.1077H124.387V33.0604H125.449L125.421 39.1077Z" fill="white"/>
  <path d="M131.565 39.1072H130.396L129.441 37.4988C129.361 37.3645 129.273 37.2356 129.177 37.1128C129.104 37.015 129.018 36.9283 128.92 36.8555C128.833 36.7916 128.737 36.741 128.635 36.7054C128.525 36.6681 128.409 36.6512 128.293 36.6553H127.887V39.1072H126.875V33.0598H128.849C129.115 33.0604 129.381 33.0915 129.64 33.1527C129.866 33.2196 130.078 33.3261 130.267 33.4673C130.44 33.6013 130.582 33.7722 130.681 33.9676C130.784 34.1916 130.835 34.4359 130.83 34.6824C130.831 34.8845 130.797 35.0851 130.731 35.2757C130.672 35.4515 130.58 35.6141 130.46 35.7547C130.344 35.8975 130.204 36.0186 130.046 36.1121C129.874 36.2145 129.686 36.2892 129.49 36.3337C129.592 36.3935 129.687 36.4629 129.776 36.541C129.857 36.6142 129.933 36.693 130.004 36.7769C130.085 36.8612 130.158 36.952 130.225 37.0485C130.303 37.1486 130.374 37.2701 130.46 37.3916L131.565 39.1072ZM127.901 33.8819V35.8404H128.735C128.883 35.8435 129.03 35.8192 129.17 35.769C129.298 35.727 129.415 35.6561 129.512 35.5617C129.613 35.4706 129.689 35.3549 129.733 35.2257C129.789 35.0896 129.818 34.944 129.818 34.7968C129.832 34.6647 129.815 34.5313 129.767 34.4072C129.72 34.283 129.645 34.1717 129.547 34.082C129.325 33.9067 129.046 33.8178 128.763 33.8318H127.901V33.8819Z" fill="white"/>
  <path d="M135.606 39.1072H132.263V33.0598H133.29V38.2565H135.628V39.1072H135.606Z" fill="white"/>
  <path d="M136.975 32.5027C136.84 32.5002 136.709 32.4524 136.604 32.3669C136.557 32.3236 136.519 32.2706 136.493 32.2114C136.467 32.1523 136.454 32.0884 136.455 32.0238C136.454 31.9583 136.467 31.8934 136.493 31.8331C136.519 31.7729 136.557 31.7186 136.604 31.6736C136.705 31.5812 136.838 31.5325 136.975 31.5377C137.111 31.5354 137.243 31.5838 137.346 31.6736C137.392 31.7189 137.429 31.7735 137.453 31.8337C137.478 31.894 137.49 31.9587 137.488 32.0238C137.488 32.0877 137.476 32.1509 137.451 32.2098C137.427 32.2687 137.391 32.3222 137.346 32.3669C137.297 32.414 137.238 32.4504 137.174 32.4738C137.111 32.4971 137.043 32.507 136.975 32.5027ZM137.502 39.1076H136.469V33.0603H137.502V39.1076Z" fill="white"/>
  <path d="M143.197 33.067L141.216 36.9127V39.1072H140.218V36.927L138.279 33.0598H139.427L140.603 35.6474C140.651 35.7596 140.694 35.8741 140.731 35.9906C140.731 35.9048 140.81 35.7833 140.867 35.6474L142.114 33.0598H143.183L143.197 33.067Z" fill="white"/>
  <path d="M144.459 32.5028C144.326 32.5015 144.197 32.4535 144.095 32.367C144.048 32.3236 144.01 32.2706 143.984 32.2115C143.958 32.1524 143.945 32.0884 143.946 32.0239C143.945 31.9583 143.959 31.8934 143.984 31.8332C144.01 31.7729 144.048 31.7186 144.095 31.6736C144.144 31.6278 144.201 31.5922 144.263 31.5688C144.326 31.5455 144.392 31.535 144.459 31.5378C144.595 31.5354 144.727 31.5838 144.83 31.6736C144.878 31.7178 144.917 31.7719 144.942 31.8324C144.968 31.8928 144.981 31.9581 144.979 32.0239C144.98 32.0884 144.967 32.1524 144.941 32.2115C144.915 32.2706 144.877 32.3236 144.83 32.367C144.729 32.4593 144.595 32.5081 144.459 32.5028ZM144.986 39.1077H143.981V33.0604H145.008L144.986 39.1077Z" fill="white"/>
</svg>
