<svg xmlns="http://www.w3.org/2000/svg" width="171" height="47" viewBox="0 0 171 47" fill="none">
      <path d="M21.4237 24.8668C20.8632 24.8667 20.3201 24.6741 19.887 24.3216C19.4538 23.9691 19.1573 23.4787 19.0482 22.9339C18.939 22.3891 19.0239 21.8236 19.2883 21.3338C19.5527 20.8441 19.9803 20.4603 20.4982 20.2481C21.0162 20.0358 21.5923 20.0081 22.1286 20.1697C22.6648 20.3313 23.1279 20.6722 23.4389 21.1343C23.7499 21.5964 23.8896 22.1511 23.8341 22.7039C23.7786 23.2566 23.5315 23.7732 23.1348 24.1655C22.9102 24.3883 22.6435 24.565 22.3499 24.6854C22.0562 24.8057 21.7415 24.8674 21.4237 24.8668ZM11.9654 17.7374C12.2002 17.6027 12.3807 17.3916 12.4761 17.1398C12.5716 16.8881 12.576 16.6114 12.4886 16.3567C12.4012 16.1022 12.2275 15.8855 11.997 15.7436C11.7665 15.6017 11.4935 15.5434 11.2245 15.5786C10.9555 15.6138 10.7071 15.7403 10.5217 15.9366C10.3363 16.133 10.2253 16.3869 10.2075 16.6552C10.1899 16.9236 10.2666 17.1897 10.4246 17.4083C10.5827 17.6268 10.8123 17.7844 11.0744 17.854C11.3753 17.9335 11.6957 17.8916 11.9654 17.7374ZM30.446 17.307C30.5814 17.5401 30.7942 17.7194 31.048 17.8144C31.3019 17.9095 31.5811 17.9144 31.8381 17.8283C32.0952 17.7422 32.3142 17.5704 32.4578 17.3423C32.6014 17.1141 32.6608 16.8437 32.6258 16.577C32.5908 16.3103 32.4636 16.0639 32.2658 15.8798C32.0681 15.6956 31.812 15.5851 31.5413 15.567C31.2705 15.549 31.0019 15.6246 30.7811 15.7808C30.5602 15.937 30.4009 16.1644 30.3301 16.424C30.29 16.5715 30.2795 16.7254 30.2994 16.8769C30.3193 17.0285 30.3692 17.1746 30.446 17.307ZM20.8372 32.9513C20.7031 33.0271 20.5855 33.1286 20.4914 33.2499C20.3973 33.3711 20.3284 33.5098 20.2888 33.6577C20.2179 33.9182 20.2403 34.195 20.3522 34.4409C20.4641 34.6869 20.6587 34.8867 20.9026 35.0064C21.1466 35.1261 21.4249 35.1582 21.6901 35.0974C21.9553 35.0365 22.191 34.8863 22.357 34.6725C22.523 34.4587 22.609 34.1944 22.6005 33.9248C22.5919 33.6551 22.4892 33.3967 22.3099 33.1937C22.1306 32.9906 21.8859 32.8555 21.6173 32.8113C21.3488 32.7671 21.0731 32.8165 20.8372 32.9513ZM42.0012 10.6954V30.1581C41.9999 31.3999 41.6695 32.6195 41.0431 33.695C40.4168 34.7704 39.5164 35.664 38.4321 36.2862L29.927 41.1523L21.4237 46.0184L12.9204 41.1523L4.41534 36.2862C3.33104 35.664 2.43066 34.7704 1.80429 33.695C1.17792 32.6195 0.847529 31.3999 0.846191 30.1581V10.6954L9.34949 5.82928L17.8546 0.963194C18.9404 0.344279 20.1711 0.0185547 21.4237 0.0185547C22.6763 0.0185547 23.907 0.344279 24.9928 0.963194L33.4979 5.82928L42.0012 10.6954ZM29.4028 4.44731C30.6649 5.69516 31.7688 7.09085 32.69 8.60358C33.7559 10.3532 34.5037 12.2748 34.8993 14.2807L37.8214 12.609L40.7452 10.9355L35.0723 7.6914L29.4028 4.44731ZM9.66958 6.60946C12.5086 5.86703 16.1712 5.45208 19.9583 6.48941C23.7455 7.5268 27.6623 10.0181 30.9859 15.0832C30.9201 15.1026 30.8544 15.1249 30.7886 15.15C30.7234 15.1765 30.6598 15.2068 30.5983 15.2409C30.4719 15.313 30.3556 15.4012 30.2523 15.5033C30.1533 15.6027 30.0662 15.7132 29.9928 15.8325C29.5878 15.6134 29.1523 15.4551 28.7004 15.3626C28.1769 15.2553 27.6433 15.2031 27.1087 15.2066C27.0015 15.2066 26.8908 15.2066 26.7783 15.2169L26.4323 15.2374C26.6621 15.8234 26.8569 16.4223 27.0153 17.0309C27.1876 17.6898 27.3251 18.3571 27.4271 19.0302C27.965 19.4548 28.4801 19.9069 28.9703 20.3848C29.4234 20.8262 29.8503 21.2934 30.2488 21.7839C30.6217 21.2427 30.93 20.6603 31.1675 20.0487C31.3698 19.534 31.4827 18.9891 31.5014 18.4369C31.6424 18.4338 31.7823 18.4137 31.9183 18.3769C32.0591 18.3372 32.194 18.2796 32.3197 18.2055C32.3702 18.1778 32.4188 18.1469 32.4651 18.1129C32.5113 18.0804 32.5557 18.0454 32.5983 18.0083C33.1776 19.4244 33.4748 20.9382 33.4737 22.4663C33.4737 22.5246 33.4737 22.5829 33.4737 22.6378V22.8093C33.7695 21.874 33.9939 20.9179 34.1449 19.9492C34.2889 19.0247 34.3549 18.0898 34.3422 17.1544C34.3221 15.762 34.1161 14.3782 33.7297 13.0393C33.3332 11.6711 32.7635 10.3581 32.0343 9.1317C30.9582 7.33947 29.6215 5.71428 28.0672 4.30843C27.0629 3.39171 25.9792 2.56435 24.8285 1.83594L24.5724 1.68334C23.6142 1.13741 22.5282 0.850106 21.4228 0.850106C20.3175 0.850106 19.2315 1.13741 18.2733 1.68334L13.9688 4.14725L9.66958 6.60946ZM11.6609 27.9343C11.673 27.9583 11.6868 27.9823 11.7007 28.0046L11.7422 28.0749C12.11 28.6473 12.6569 29.0845 13.2993 29.3197C14.0787 29.6112 14.9076 29.7509 15.7404 29.7312C15.8477 29.7312 15.9584 29.7312 16.0709 29.7312L16.4168 29.7106C16.1867 29.1242 15.9921 28.5247 15.8338 27.9154C15.6576 27.2545 15.5166 26.5849 15.4117 25.9093C14.8742 25.4843 14.3591 25.0322 13.8685 24.5547C13.4153 24.1127 12.9884 23.645 12.5899 23.1539C12.0372 23.9331 11.6407 24.8103 11.4221 25.7378C11.2491 26.5523 11.3235 27.2999 11.6609 27.9343ZM12.0727 22.4698C11.7252 21.9818 11.4202 21.4656 11.1609 20.9266C10.9327 20.447 10.7586 19.9438 10.6419 19.4263C10.5016 19.9153 10.3947 20.4131 10.3218 20.9163C10.1015 22.4556 10.2105 24.0236 10.6419 25.5183C10.7586 25.0014 10.9327 24.4988 11.1609 24.0198C11.4199 23.4805 11.7249 22.9643 12.0727 22.4766M15.1557 22.4766C15.1557 22.0891 15.1654 21.7079 15.1851 21.3329C15.2024 20.9557 15.23 20.5854 15.2647 20.2219C14.8408 20.5888 14.4446 20.9626 14.0813 21.3398C13.7314 21.7016 13.4005 22.0811 13.0899 22.4766C13.4009 22.8718 13.7318 23.2512 14.0813 23.6134C14.4446 23.9906 14.8408 24.3644 15.2647 24.7313C15.23 24.3661 15.2024 23.9958 15.1851 23.6203C15.1677 23.2448 15.1557 22.8624 15.1557 22.4766ZM13.3875 30.2147C14.1047 30.9461 14.9197 31.5767 15.8096 32.0888C16.7123 32.6091 17.6843 33.001 18.6971 33.253C18.3035 32.893 17.9518 32.4904 17.6487 32.0528C17.3064 31.5597 17.0066 31.0389 16.7525 30.4959C16.5795 30.5131 16.4065 30.5234 16.2335 30.5319C16.0605 30.5405 15.8978 30.5439 15.7335 30.5439C15.3162 30.5449 14.8994 30.5168 14.4861 30.4599C14.1131 30.407 13.7451 30.3239 13.3858 30.2113M17.2525 29.6112C17.7536 29.5429 18.2508 29.4491 18.7421 29.33C19.2542 29.2065 19.7778 29.0539 20.313 28.8722C19.967 28.719 19.6279 28.5573 19.2957 28.3869C18.9497 28.2155 18.621 28.0354 18.2888 27.8451C17.9566 27.6548 17.6279 27.4524 17.3044 27.2535C16.9809 27.0547 16.6746 26.8403 16.3736 26.6277C16.4826 27.1747 16.6106 27.6993 16.7577 28.1983C16.8983 28.6786 17.064 29.1514 17.2542 29.6146M21.4237 28.4624C21.8735 28.2789 22.3268 28.08 22.7818 27.8605C23.2368 27.641 23.6918 27.4027 24.1469 27.1421C24.6018 26.8815 25.0379 26.6123 25.4583 26.3328C25.8786 26.0533 26.2818 25.7636 26.6693 25.4755C26.7351 24.9988 26.7852 24.5084 26.8198 24.0078C26.8544 23.5071 26.8717 22.9962 26.8717 22.4766C26.8717 21.9571 26.8544 21.4478 26.8198 20.9437C26.7852 20.4397 26.7351 19.9544 26.6693 19.476C26.2852 19.1811 25.8815 18.8953 25.4583 18.6187C25.035 18.3421 24.5978 18.0717 24.1469 17.8077C23.6918 17.5488 23.2351 17.3104 22.7818 17.091C22.3285 16.8715 21.8735 16.6709 21.4237 16.4891C20.9739 16.6709 20.5212 16.8715 20.0656 17.091C19.6123 17.3104 19.1556 17.5488 18.7023 17.8077C18.249 18.0666 17.8096 18.3392 17.3892 18.6187C16.9688 18.8982 16.5657 19.1862 16.1781 19.476C16.1124 19.9544 16.0622 20.4448 16.0276 20.9437C15.993 21.4427 15.9757 21.9571 15.9757 22.4766C15.9757 22.9962 15.993 23.5054 16.0276 24.0078C16.0622 24.5102 16.1124 24.9988 16.1781 25.4755C16.5622 25.7704 16.9653 26.0602 17.3892 26.3328C17.813 26.6054 18.2542 26.8832 18.7023 27.1421C19.1504 27.401 19.6123 27.641 20.0656 27.8605C20.5189 28.08 20.9739 28.2789 21.4237 28.4624ZM26.1053 14.4384C26.2783 14.423 26.4513 14.411 26.6243 14.4041C26.7973 14.3973 26.9703 14.3922 27.1261 14.3922C27.5427 14.3913 27.959 14.4194 28.3717 14.4762C28.7449 14.5282 29.1129 14.6114 29.472 14.7248C28.7544 13.9933 27.9396 13.3623 27.0499 12.849C26.1472 12.3293 25.1751 11.9379 24.1624 11.6865C24.556 12.0465 24.9077 12.4491 25.2108 12.8867C25.5527 13.3779 25.852 13.8971 26.1053 14.4384ZM25.5863 15.3232C25.0852 15.392 24.588 15.4865 24.0967 15.6061C23.5777 15.7295 23.0586 15.8822 22.5275 16.0639C22.8666 16.2159 23.2051 16.3777 23.543 16.5492C23.8891 16.7206 24.2178 16.8921 24.55 17.091C24.8821 17.2899 25.2178 17.4819 25.5361 17.6859C25.8544 17.89 26.1658 18.0974 26.4669 18.3101C26.3579 17.7648 26.2299 17.2402 26.0828 16.7412C25.9422 16.2603 25.7765 15.787 25.5863 15.3232ZM21.4237 11.3521C20.6798 11.3521 19.9705 11.6573 19.3251 12.2094C18.5979 12.8678 18.0098 13.6628 17.595 14.5482C18.2282 14.6465 18.855 14.7816 19.4722 14.9529C20.1303 15.1358 20.7788 15.3516 21.4151 15.5992C22.0513 15.3516 22.6997 15.1358 23.3579 14.9529C23.9768 14.7814 24.6054 14.6463 25.2402 14.5482C24.8255 13.6628 24.2374 12.8678 23.5102 12.2094C22.8649 11.6573 22.1555 11.3521 21.4116 11.3521M18.6798 11.6951C16.665 12.2002 14.8311 13.2496 13.3823 14.7265C13.7424 14.6123 14.1117 14.5292 14.4861 14.4779C14.8999 14.4196 15.3173 14.3909 15.7352 14.3922C15.9082 14.3922 16.0674 14.3922 16.237 14.4041C16.4065 14.4162 16.5829 14.423 16.756 14.4384C17.0075 13.8944 17.305 13.3725 17.6452 12.8781C17.9477 12.4405 18.2989 12.038 18.6919 11.6779M16.3736 18.2998C16.6746 18.0872 16.9849 17.8791 17.3044 17.6757C17.6245 17.4716 17.9514 17.2727 18.2905 17.0807C18.6296 16.8886 18.9601 16.7086 19.2975 16.5389C19.6348 16.3691 19.9739 16.2062 20.3147 16.0536C19.7796 15.8719 19.2559 15.7193 18.7438 15.5958C18.2526 15.4761 17.7554 15.3817 17.2542 15.3129C17.0655 15.7802 16.9015 16.2569 16.7629 16.7412C16.6158 17.2402 16.4878 17.7699 16.3788 18.3101M22.5379 28.8756C23.0731 29.0573 23.5967 29.21 24.1088 29.3334C24.6001 29.4526 25.0973 29.5464 25.5984 29.6146C25.7886 29.1514 25.9544 28.6786 26.0949 28.1983C26.242 27.6993 26.37 27.1696 26.479 26.6277C26.178 26.8403 25.8666 27.0495 25.5482 27.2535C25.2299 27.4576 24.8995 27.6548 24.5621 27.8485C24.2247 28.0423 23.8925 28.2189 23.5552 28.3903C23.2178 28.5618 22.8787 28.723 22.5379 28.8756ZM24.1607 33.2513C26.1807 32.7463 28.0191 31.6943 29.4703 30.213C29.1098 30.3256 28.7407 30.4087 28.3665 30.4616C27.9527 30.5199 27.5353 30.5486 27.1174 30.5474C26.953 30.5474 26.7852 30.5474 26.6157 30.5353C26.4461 30.5234 26.2696 30.5165 26.0967 30.4994C25.8439 31.0416 25.5446 31.5613 25.2022 32.0528C24.8991 32.4899 24.548 32.8925 24.1555 33.253M31.1121 28.068C31.126 28.0457 31.1381 28.0235 31.1502 28.0011L31.1883 27.9343C31.5239 27.2999 31.5914 26.5523 31.4253 25.7395C31.2062 24.8117 30.8098 23.9339 30.2575 23.1539C29.8595 23.6454 29.4326 24.1131 28.979 24.5547C28.4883 25.0322 27.9732 25.4843 27.4357 25.9093C27.3339 26.5818 27.1965 27.2486 27.024 27.9068C26.8658 28.5162 26.671 29.1156 26.4409 29.7021L26.787 29.7226C26.8994 29.7226 27.0101 29.7226 27.1174 29.7226C27.952 29.7445 28.7831 29.6071 29.5655 29.318C30.2087 29.0808 30.7556 28.6411 31.1225 28.0663M27.7022 22.4698C27.7022 22.8555 27.6918 23.2379 27.6745 23.6134C27.6572 23.9889 27.6278 24.3592 27.5932 24.7245C28.0171 24.3575 28.4132 23.9838 28.7765 23.6066C29.126 23.2443 29.4569 22.8649 29.7679 22.4698C29.4573 22.0742 29.1264 21.6948 28.7765 21.3329C28.4132 20.9557 28.0171 20.5819 27.5932 20.215C27.6278 20.5785 27.6549 20.9489 27.6745 21.3261C27.6918 21.7016 27.7022 22.0822 27.7022 22.4698ZM32.2211 25.5166C32.6524 24.0218 32.7614 22.4539 32.5412 20.9146C32.4687 20.4113 32.3618 19.9135 32.2211 19.4246C32.1041 19.9415 31.93 20.444 31.7021 20.9232C31.4421 21.4619 31.1371 21.978 30.7903 22.4663C31.1377 22.9543 31.4428 23.4705 31.7021 24.0095C31.9303 24.4891 32.1044 24.9923 32.2211 25.5098M2.1178 10.9355L5.17138 12.6861L8.22671 14.4384C9.84316 13.2102 11.6617 12.2681 13.6021 11.6539C15.7283 10.968 18.2092 10.5531 21.1019 10.5239H21.2628H21.4237C23.6646 10.5214 25.8613 11.1416 27.7645 12.314C27.093 11.5919 26.3677 10.9208 25.5949 10.3062C24.8584 9.71933 24.0737 9.19454 23.2489 8.73732C22.0367 8.06671 20.7416 7.55545 19.396 7.21643C18.0205 6.8731 16.607 6.70146 15.1885 6.7055H15.0847C12.9804 6.73194 10.8915 7.06646 8.88585 7.69827C7.57937 8.10074 6.31148 8.61711 5.09699 9.24143L4.99837 9.2774L3.5503 10.1056L2.1178 10.9355ZM1.68701 24.6319C2.14645 22.9262 2.81399 21.2823 3.67486 19.7366C4.67144 17.9475 5.97729 16.3457 7.53295 15.0043L4.60911 13.3308L1.68701 11.6556V24.6319ZM13.4515 40.4904C11.3755 38.4329 9.18861 35.4906 8.20076 31.7219C7.21286 27.9531 7.42049 23.3528 10.1886 17.962C10.2934 18.0608 10.4096 18.1471 10.5346 18.2192C10.6606 18.2941 10.7962 18.3518 10.9377 18.3907C11.0043 18.4085 11.0719 18.4222 11.1401 18.4318C11.2094 18.4318 11.2768 18.4455 11.3443 18.4473C11.3629 18.9984 11.4764 19.5423 11.6799 20.0555C11.9176 20.6663 12.2252 21.2479 12.5969 21.7891C12.9954 21.2985 13.4223 20.8314 13.8754 20.3899C14.3656 19.912 14.8807 19.4599 15.4186 19.0353C15.5206 18.3623 15.6581 17.695 15.8304 17.0361C15.9888 16.4274 16.1835 15.8285 16.4134 15.2426L16.0674 15.222C15.9549 15.222 15.8442 15.2117 15.737 15.2117C15.2018 15.2082 14.6677 15.2605 14.1435 15.3677C13.6918 15.4612 13.2563 15.6201 12.8512 15.8393C12.7466 15.6697 12.6124 15.52 12.455 15.3969C12.2994 15.275 12.1238 15.1804 11.936 15.1175C12.9607 13.8155 14.2452 12.7368 15.7093 11.9488C14.7431 12.1635 13.7947 12.4501 12.872 12.8061C11.991 13.1441 11.1403 13.5548 10.3287 14.0338C9.12301 14.7472 8.01773 15.6155 7.04157 16.616C6.04654 17.6411 5.18569 18.7864 4.47935 20.0247C3.45113 21.8448 2.69912 23.8051 2.24755 25.8424C1.94506 27.164 1.76152 28.5095 1.69912 29.8632C1.69912 29.8889 1.69912 30.1581 1.69912 30.1581C1.70088 31.2538 1.99258 32.3297 2.5451 33.2786C3.09762 34.2276 3.89162 35.0163 4.84786 35.5661L9.15231 38.0283L13.4515 40.4904ZM21.0102 37.8123C19.0908 37.0227 17.3264 35.9049 15.7975 34.5098C14.1038 32.9856 12.4775 31.0018 10.9879 28.4452C9.9262 26.6304 9.36867 24.5692 9.37203 22.4715V22.3C9.37203 22.2417 9.37203 22.1834 9.37203 22.1285C9.07755 23.0641 8.85375 24.0201 8.70248 24.9886C8.55849 25.9131 8.4925 26.848 8.50525 27.7834C8.52561 29.1757 8.73095 30.5593 9.11596 31.8985C9.51468 33.2662 10.0849 34.579 10.8132 35.8061C11.8892 37.5988 13.2266 39.2241 14.7819 40.6293C15.7849 41.5507 16.8687 42.3816 18.0207 43.1121L18.0743 43.1464L18.1124 43.1721L19.5587 44.0003L21.0051 44.8268V37.8123H21.0102ZM33.1882 38.3266C32.3246 38.5547 31.4483 38.7328 30.5637 38.8599C29.5931 38.9994 28.6137 39.0705 27.6329 39.0725C26.6812 39.0734 25.7308 39.0005 24.7905 38.8547C23.7899 38.701 22.8055 38.4576 21.8493 38.1277V44.8148L27.5187 41.5707L33.1882 38.3266ZM41.1569 20.3059C40.3871 23.1145 38.9183 26.4665 36.119 29.1979C33.3197 31.9294 29.1883 34.0417 23.0949 34.371C23.1462 34.1658 23.1591 33.9531 23.133 33.7434C23.1048 33.5339 23.0386 33.3311 22.9375 33.145C23.4116 32.8534 23.8318 32.4834 24.1797 32.0511C24.5956 31.5398 24.9509 30.9829 25.2385 30.3913C24.6053 30.2924 23.9786 30.1567 23.3614 29.9849C22.7047 29.8026 22.058 29.5868 21.4237 29.3386C20.7877 29.5865 20.1392 29.8017 19.4808 29.9832C18.8637 30.155 18.2369 30.2907 17.6037 30.3896C17.8924 30.9816 18.2482 31.539 18.6643 32.0511C19.0127 32.483 19.4327 32.8528 19.9064 33.145C19.8119 33.3198 19.7487 33.5095 19.7196 33.7057C19.6899 33.9035 19.6958 34.1049 19.7369 34.3007C18.0846 34.0713 16.4992 33.5012 15.083 32.6272C15.7544 33.351 16.4795 34.0239 17.2525 34.6402C17.9893 35.2266 18.774 35.7514 19.5985 36.2091C20.8285 36.8884 22.1438 37.4032 23.5102 37.7402C24.9039 38.0825 26.3356 38.2496 27.7713 38.2374C29.8758 38.2103 31.9646 37.8752 33.9702 37.243C35.2769 36.8411 36.5449 36.3247 37.7591 35.6998L38.0203 35.5575C38.9725 35.0065 39.763 34.2183 40.3131 33.2712C40.8634 32.3241 41.1542 31.251 41.1569 30.1581V20.3059ZM41.1569 11.6556L38.1016 13.408L35.0411 15.1586C35.3076 17.1999 35.211 19.2716 34.7557 21.2798C34.2695 23.4951 33.3491 25.8836 31.8595 28.4401C30.7401 30.3583 29.1081 31.933 27.1433 32.9907C28.1104 32.7752 29.06 32.4887 29.9841 32.1334C30.8641 31.7937 31.7141 31.3825 32.5256 30.904C33.7317 30.1911 34.8371 29.3228 35.8127 28.3218C36.8103 27.2975 37.6729 26.1521 38.3802 24.9131C39.4087 23.0933 40.1601 21.1329 40.6103 19.0954C40.9114 17.7742 41.0944 16.4293 41.1569 15.0763C41.1569 15.0506 41.1569 14.9803 41.1569 14.9683V11.6556Z" fill="white"/>
      <path d="M50.9423 13.624H52.3558L52.4803 14.3578H52.5236C53.0149 13.888 53.6049 13.4834 54.4007 13.4834C55.6723 13.4834 56.2139 14.3733 56.2139 15.8204V19.4212H54.4786V16.0399C54.4786 15.2066 54.2537 14.946 53.7519 14.946C53.3177 14.946 53.0513 15.1466 52.6706 15.5084V19.4177H50.9406L50.9423 13.624Z" fill="white"/>
      <path d="M57.681 13.624H59.0947L59.2189 14.3578H59.2625C59.7535 13.888 60.3434 13.4834 61.1392 13.4834C62.4108 13.4834 62.9544 14.3733 62.9544 15.8204V19.4212H61.2259V16.0399C61.2259 15.2066 61.0011 14.946 60.5011 14.946C60.0649 14.946 59.8088 15.1466 59.4179 15.5084V19.4177H57.6877L57.681 13.624Z" fill="white"/>
      <path d="M64.0806 16.5217C64.0806 14.5962 65.449 13.4834 66.9281 13.4834C68.4072 13.4834 69.7756 14.5928 69.7756 16.5217C69.7756 18.4507 68.4072 19.5652 66.9353 19.5652C65.4629 19.5652 64.0873 18.4524 64.0873 16.5303M68.0079 16.5303C68.0079 15.529 67.6511 14.8774 66.9353 14.8774C66.219 14.8774 65.8622 15.529 65.8622 16.5303C65.8622 17.5316 66.219 18.1798 66.9353 18.1798C67.6511 18.1798 68.0079 17.5333 68.0079 16.5303Z" fill="white"/>
      <path d="M70.2448 13.624H71.985L72.7444 16.3674C72.8954 16.9418 73.0492 17.5419 73.1979 18.1472H73.2466C73.3953 17.5419 73.5491 16.9469 73.6996 16.3674L74.459 13.624H76.1181L74.2151 19.4177H72.2137L70.2448 13.624Z" fill="white"/>
      <path d="M76.523 17.8094C76.523 16.5903 77.5022 15.9233 79.81 15.6867C79.7759 15.1809 79.5215 14.85 78.8862 14.85C78.3969 14.85 77.907 15.054 77.34 15.3644L76.7271 14.2498C77.4697 13.7704 78.3326 13.505 79.2184 13.4834C80.7131 13.4834 81.5419 14.3304 81.5419 16.1051V19.416H80.1288L80.0041 18.8228H79.961C79.4695 19.2514 78.9226 19.5566 78.2599 19.5566C77.1946 19.5566 76.5179 18.7868 76.5179 17.8094M79.805 17.734V16.7224C78.5747 16.8938 78.1721 17.2367 78.1721 17.6739C78.1721 18.0478 78.4316 18.2295 78.8431 18.2295C79.2547 18.2295 79.4991 18.0375 79.805 17.734Z" fill="white"/>
      <path d="M82.4831 18.7473L83.2637 17.6791C83.7927 18.0752 84.2809 18.2878 84.7702 18.2878C85.2892 18.2878 85.5089 18.0923 85.5089 17.7888C85.5089 17.4082 84.9296 17.235 84.3273 17.0001C83.611 16.7258 82.7806 16.2543 82.7806 15.2975C82.7806 14.219 83.6663 13.4834 85.0146 13.4834C85.7651 13.4903 86.4915 13.749 87.0747 14.2172L86.2997 15.246C85.8831 14.9477 85.4726 14.7522 85.07 14.7522C84.6215 14.7522 84.4017 14.9237 84.4017 15.2152C84.4017 15.5838 84.9486 15.7296 85.5542 15.9439C86.2946 16.2148 87.1284 16.6297 87.1284 17.686C87.1284 18.7421 86.2946 19.5652 84.7272 19.5652C83.909 19.5431 83.12 19.2592 82.478 18.7559" fill="white"/>
      <path d="M91.2945 21.5645L91.6027 20.2562C91.7302 20.2961 91.8616 20.3214 91.9952 20.3317C92.5679 20.3317 92.8603 20.0196 93.0192 19.5703L93.1058 19.2686L90.8567 13.624H92.5975L93.433 16.1171C93.6058 16.6417 93.7411 17.1904 93.8949 17.758H93.9413C94.071 17.211 94.203 16.6606 94.3478 16.1171L95.0575 13.624H96.715L94.68 19.4794C94.1247 20.9318 93.5023 21.6828 92.1267 21.6828C91.8448 21.687 91.5641 21.647 91.2945 21.5645Z" fill="white"/>
      <path d="M97.106 17.8094C97.106 16.5903 98.0851 15.9233 100.393 15.6867C100.358 15.1809 100.104 14.85 99.4692 14.85C98.9799 14.85 98.49 15.054 97.9224 15.3644L97.3101 14.2498C98.0544 13.7695 98.9189 13.5041 99.8064 13.4834C101.301 13.4834 102.13 14.3304 102.13 16.1051V19.416H100.717L100.592 18.8228H100.549C100.057 19.2514 99.5106 19.5566 98.8479 19.5566C97.7826 19.5566 97.106 18.7868 97.106 17.8094ZM100.393 17.734V16.7224C99.1633 16.8938 98.7601 17.2367 98.7601 17.6739C98.7601 18.0478 99.0196 18.2295 99.4312 18.2295C99.8427 18.2295 100.087 18.0375 100.393 17.734Z" fill="white"/>
      <path d="M105.318 13.624H107.059L107.82 16.3674C107.969 16.9418 108.123 17.5419 108.273 18.1472H108.32C108.471 17.5419 108.623 16.9469 108.773 16.3674L109.535 13.624H111.192L109.289 19.4177H107.289L105.318 13.624Z" fill="white"/>
      <path d="M111.768 16.7549C111.767 16.4994 111.791 16.2443 111.841 15.9937H115.337C115.201 15.174 114.723 14.7934 113.993 14.7934C113.538 14.8002 113.094 14.9345 112.713 15.1809L112.14 14.0698C112.783 13.6713 113.53 13.4681 114.289 13.4851C115.831 13.4851 117.015 14.6322 117.015 16.52C117.015 18.4078 115.737 19.5652 114.279 19.5652C112.618 19.5652 111.768 18.365 111.768 16.7635M115.356 17.1373H113.248C113.248 17.7991 113.543 18.2569 114.239 18.2569C114.808 18.2569 115.241 17.914 115.356 17.1373Z" fill="white"/>
      <path d="M126.711 19.4179L124.981 16.3727C125.801 16.0057 126.349 15.2959 126.349 14.1763C126.349 12.3673 125.014 11.8066 123.385 11.8066H120.617V19.4179H122.348V16.6744H123.301L124.768 19.4179H126.711ZM122.348 13.1732H123.235C124.149 13.1732 124.638 13.4235 124.638 14.1763C124.638 14.929 124.149 15.3131 123.235 15.3131H122.348V13.1732Z" fill="white"/>
      <path d="M127.355 16.7549C127.354 16.4994 127.378 16.2445 127.427 15.9936H130.924C130.787 15.1741 130.31 14.7934 129.581 14.7934C129.126 14.7999 128.682 14.9343 128.301 15.1809L127.728 14.0698C128.371 13.6711 129.119 13.4679 129.877 13.4851C131.419 13.4851 132.602 14.6322 132.602 16.52C132.602 18.4078 131.325 19.5652 129.865 19.5652C128.204 19.5652 127.355 18.365 127.355 16.7635M130.948 17.1287H128.834C128.834 17.7906 129.131 18.2484 129.827 18.2484C130.395 18.2484 130.827 17.9055 130.943 17.1287" fill="white"/>
      <path d="M137.285 19.8001L137.347 18.9153C136.958 19.3045 136.435 19.5336 135.882 19.5566C134.429 19.5566 133.491 18.4147 133.491 16.5217C133.491 14.6288 134.685 13.4834 135.913 13.4834C136.548 13.4834 137.01 13.7011 137.47 14.195H137.522L137.668 13.624H139.022V21.5662H137.292L137.285 19.8001ZM137.285 17.6328V15.2546C137.02 15.0137 136.671 14.8824 136.311 14.8877C135.751 14.8877 135.259 15.4021 135.259 16.5029C135.259 17.6396 135.656 18.1523 136.327 18.1523C136.516 18.1541 136.704 18.1078 136.87 18.0178C137.036 17.9277 137.177 17.797 137.279 17.6379" fill="white"/>
      <path d="M140.209 16.7549C140.208 16.4994 140.232 16.2443 140.281 15.9936H143.778C143.641 15.174 143.164 14.7934 142.436 14.7934C141.981 14.7997 141.537 14.9335 141.155 15.1792L140.583 14.0681C141.226 13.6696 141.973 13.4663 142.731 13.4834C144.273 13.4834 145.458 14.6305 145.458 16.5183C145.458 18.4061 144.18 19.5652 142.712 19.5652C141.051 19.5652 140.202 18.365 140.202 16.7635M143.79 17.1373H141.688C141.688 17.7991 141.984 18.2569 142.679 18.2569C143.249 18.2569 143.681 17.914 143.797 17.1373" fill="white"/>
      <path d="M146.645 13.624H148.058L148.183 14.3664H148.226C148.705 13.888 149.23 13.4834 149.998 13.4834C150.82 13.4834 151.316 13.8263 151.61 14.459C152.129 13.9275 152.674 13.4834 153.446 13.4834C154.709 13.4834 155.274 14.3733 155.274 15.8204V19.4212H153.544V16.0399C153.544 15.2066 153.314 14.946 152.823 14.946C152.529 14.946 152.197 15.1277 151.828 15.5084V19.4177H150.098V16.0399C150.098 15.2066 149.868 14.946 149.377 14.946C149.086 14.946 148.751 15.1277 148.382 15.5084V19.4177H146.652L146.645 13.624Z" fill="white"/>
      <path d="M156.226 18.7473L157.005 17.6791C157.534 18.0752 158.023 18.2878 158.513 18.2878C159.003 18.2878 159.252 18.0923 159.252 17.7888C159.252 17.4082 158.672 17.235 158.07 17.0001C157.354 16.7258 156.524 16.2543 156.524 15.2975C156.524 14.219 157.408 13.4834 158.757 13.4834C159.508 13.4903 160.234 13.749 160.818 14.2172L160.043 15.246C159.626 14.9477 159.216 14.7522 158.811 14.7522C158.365 14.7522 158.143 14.9237 158.143 15.2152C158.143 15.5838 158.691 15.7296 159.297 15.9439C160.037 16.2148 160.872 16.6297 160.872 17.686C160.872 18.7421 160.037 19.5652 158.47 19.5652C157.652 19.5431 156.863 19.2592 156.221 18.7559" fill="white"/>
      <path d="M161.693 17.8094C161.693 16.5903 162.672 15.9233 164.98 15.6867C164.945 15.1809 164.69 14.85 164.056 14.85C163.565 14.85 163.075 15.054 162.508 15.3643L161.899 14.2499C162.643 13.7707 163.507 13.5064 164.393 13.4868C165.888 13.4868 166.717 14.3339 166.717 16.1085V19.4194H165.304L165.179 18.8262H165.136C164.645 19.2548 164.098 19.56 163.435 19.56C162.37 19.56 161.693 18.7902 161.693 17.8128M164.98 17.7374V16.7258C163.748 16.8972 163.347 17.2401 163.347 17.6774C163.347 18.0512 163.605 18.2329 164.017 18.2329C164.428 18.2329 164.672 18.0409 164.98 17.7374Z" fill="white"/>
      <path d="M168.17 17.6174V11.2373H169.901V17.6791C169.901 18.0478 170.073 18.1644 170.214 18.1644C170.285 18.1664 170.356 18.1589 170.425 18.1421L170.633 19.4075C170.356 19.5107 170.062 19.559 169.768 19.5498C168.579 19.5498 168.172 18.7816 168.172 17.6105" fill="white"/>
      <path d="M47.5409 11.8066H49.271V19.4178H47.5409V11.8066ZM47.5409 9.81763H49.2883V11.2391H47.5375L47.5409 9.81763Z" fill="white"/>
      <path d="M88.215 13.6241H89.9452V19.4178H88.215V13.6241ZM88.215 11.1636H89.9575V12.5867H88.215V11.1636Z" fill="white"/>
      <path d="M50.9423 27.636H52.3558L52.4803 28.3698H52.5236C53.0149 27.9 53.6049 27.4954 54.4007 27.4954C55.6723 27.4954 56.2139 28.3853 56.2139 29.8324V33.4331H54.4786V30.0553C54.4786 29.222 54.2537 28.9614 53.7519 28.9614C53.3177 28.9614 53.0513 29.1619 52.6706 29.5237V33.4331H50.9406L50.9423 27.636Z" fill="white"/>
      <path d="M57.681 25.2493H59.3749V29.9353H59.4179L61.2712 27.6361H63.1512L61.1051 30.0228L63.3072 33.4297H61.43L60.1153 31.1699L59.3749 32.0032V33.4297H57.681V25.2493Z" fill="white"/>
      <path d="M71.518 31.7014C71.518 30.6417 70.6826 30.2285 69.9439 29.9576C69.3366 29.7381 68.7897 29.5975 68.7897 29.2272C68.7897 28.9391 69.0111 28.7659 69.4574 28.7659C69.8622 28.7659 70.2721 28.9596 70.6876 29.2597L71.4644 28.231C70.8811 27.7627 70.1547 27.504 69.4037 27.4971C68.0543 27.4971 67.1702 28.2327 67.1702 29.3112C67.1702 30.2679 68.0006 30.7395 68.717 31.0138C69.3192 31.2487 69.8969 31.4202 69.8969 31.8025C69.8969 32.106 69.6754 32.3015 69.1599 32.3015C68.6443 32.3015 68.1807 32.0889 67.6511 31.6928L66.8727 32.761C67.4487 33.2109 68.1426 33.4877 68.873 33.5583L68.3921 34.527C69.1045 34.6196 69.2896 34.7842 69.2896 35.0192C69.2896 35.3501 69.0044 35.4821 68.0789 35.5335L68.2086 36.2194C69.6771 36.1697 70.5338 35.8079 70.5338 35.0192C70.5338 34.5339 70.2224 34.2853 69.6307 34.1481L69.9209 33.4914C70.9594 33.2582 71.5147 32.557 71.5147 31.7082" fill="white"/>
      <path d="M72.3402 31.8214C72.3402 30.6022 73.3194 29.9352 75.6272 29.6986C75.5926 29.1928 75.3364 28.8619 74.7017 28.8619C74.2119 28.8619 73.722 29.066 73.155 29.3849L72.5387 28.2584C73.2836 27.7795 74.1481 27.5153 75.0356 27.4954C76.5304 27.4954 77.3591 28.3424 77.3591 30.117V33.4297H75.9454L75.8207 32.8347H75.7777C75.2861 33.2634 74.7398 33.5686 74.0771 33.5686C73.0112 33.5686 72.3346 32.7987 72.3346 31.8214M75.6216 31.7459V30.7343C74.3903 30.9057 73.9887 31.2487 73.9887 31.6859C73.9887 32.0597 74.2465 32.2415 74.6581 32.2415C75.0703 32.2415 75.3141 32.0494 75.6216 31.7459Z" fill="white"/>
      <path d="M81.5162 26.4547C81.7242 26.4595 81.9294 26.5019 82.1218 26.5798L82.4333 25.3144C82.0597 25.1783 81.6649 25.1087 81.2668 25.1086C79.6892 25.1086 79.1183 26.1117 79.1183 27.3377V27.6446L78.3398 27.7029V28.9837H79.1183V33.4315H80.8485V28.982H81.9003V27.636H80.8485V27.2931C80.8485 26.693 81.0923 26.4615 81.5162 26.4615" fill="white"/>
      <path d="M92.1183 33.4281H93.9553L91.5435 25.8186H89.4677L87.0558 33.4281H88.829L89.3049 31.6158H91.6458L92.1183 33.4281ZM89.6544 30.2784L89.8395 29.5754C90.0526 28.8141 90.2584 27.9225 90.4435 27.12H90.4899C90.6963 27.9139 90.9004 28.8141 91.1129 29.5754L91.298 30.2784H89.6544Z" fill="white"/>
      <path d="M100.656 30.539C100.656 28.653 102.007 27.5007 103.412 27.5007C105.076 27.5007 105.902 28.7009 105.902 30.2818C105.903 30.5362 105.879 30.7902 105.829 31.0397H102.332C102.488 31.8799 103.069 32.2657 103.848 32.2657C104.297 32.258 104.735 32.1267 105.113 31.8867L105.685 32.9155C105.072 33.329 104.351 33.5561 103.609 33.5688C101.941 33.5688 100.652 32.4525 100.652 30.5339M104.419 29.8995C104.419 29.2634 104.139 28.8038 103.447 28.8038C102.9 28.8038 102.427 29.169 102.31 29.8995H104.419Z" fill="white"/>
      <path d="M107.097 27.636H108.51L108.635 28.3698H108.678C109.17 27.9 109.76 27.4954 110.555 27.4954C111.827 27.4954 112.368 28.3853 112.368 29.8324V33.4331H110.639V30.0553C110.639 29.222 110.412 28.9614 109.913 28.9614C109.478 28.9614 109.211 29.1619 108.831 29.5237V33.4331H107.101L107.097 27.636Z" fill="white"/>
      <path d="M114.071 31.3224V28.9819H113.272V27.7011L114.168 27.6359L114.37 26.0928H115.803V27.6359H117.204V28.9819H115.803V31.3018C115.803 31.9585 116.104 32.2226 116.559 32.2226C116.749 32.2163 116.937 32.1792 117.114 32.1128L117.387 33.3594C116.969 33.4969 116.53 33.5675 116.088 33.5685C114.646 33.5685 114.071 32.665 114.071 31.3224Z" fill="white"/>
      <path d="M118.35 31.6294V25.2493H120.079V31.698C120.079 32.0666 120.253 32.1832 120.393 32.1832C120.464 32.1853 120.535 32.1778 120.604 32.1609L120.811 33.4264C120.535 33.5295 120.242 33.5779 119.946 33.5686C118.758 33.5686 118.353 32.8005 118.353 31.6294" fill="white"/>
      <path d="M124.792 35.5764L125.1 34.2682C125.229 34.3081 125.361 34.3334 125.495 34.3436C126.066 34.3436 126.36 34.0316 126.517 33.5823L126.604 33.2806L124.354 27.636H126.095L126.931 30.1291C127.104 30.6538 127.238 31.2024 127.391 31.7699H127.439C127.569 31.223 127.699 30.6726 127.844 30.1291L128.555 27.636H130.213L128.179 33.4915C127.626 34.9437 127.002 35.6947 125.628 35.6947C125.345 35.6991 125.064 35.6592 124.794 35.5764" fill="white"/>
      <path d="M100.014 32.437C100.014 34.2562 98.7528 35.1307 96.8447 35.1307C96.1211 35.1412 95.4048 34.9844 94.7527 34.6729L95.2146 33.5258C95.7012 33.7945 96.2481 33.9372 96.805 33.9407C97.6869 33.9407 98.3115 33.5549 98.3115 32.4987V32.1832H98.2909C98.1046 32.4395 97.8575 32.6466 97.5717 32.7865C97.2854 32.9263 96.9694 32.9947 96.6507 32.9857C95.2773 32.9857 94.3741 31.878 94.3741 30.3435C94.3741 28.8088 95.2963 27.5897 96.7116 27.5897C97.055 27.5859 97.3939 27.6665 97.6987 27.8246C98.0029 27.9826 98.2629 28.2129 98.4553 28.4951H98.476L98.5173 27.7012H100.014V32.437ZM98.3725 30.2937C98.3725 29.4193 97.962 28.8088 97.2356 28.8088C96.5092 28.8088 96.0971 29.469 96.0971 30.3126C96.0971 31.1562 96.4656 31.7975 97.225 31.7975C97.985 31.7975 98.3725 31.1665 98.3725 30.2937Z" fill="white"/>
      <path d="M47.5392 25.8186H49.2693V33.4281H47.5392V25.8186ZM47.5392 23.8279H49.2883V25.251H47.5375L47.5392 23.8279Z" fill="white"/>
      <path d="M64.1376 27.636H65.8678V33.428H64.1376V27.636ZM64.1376 25.179H65.8812V26.5952H64.1343L64.1376 25.179Z" fill="white"/>
      <path d="M121.718 27.636H123.448V33.428H121.718V27.636ZM121.718 25.179H123.462V26.5952H121.714L121.718 25.179Z" fill="white"/>
      <path d="M131.109 27.636H132.839V33.428H131.109V27.636ZM131.109 25.179H132.851V26.5952H131.105L131.109 25.179Z" fill="white"/>
</svg>
