<svg xmlns="http://www.w3.org/2000/svg" width="152" height="33" viewBox="0 0 152 33" fill="none">

        <path d="M17.7776 22.4962C17.7032 22.6207 17.852 22.7556 17.9584 22.6518C23.9346 16.8223 28.1137 13.7624 29.7407 13.9387C34.2068 14.4885 29.2303 29.9439 18.0966 31.7798C17.9371 31.8006 17.969 32.0392 18.1285 32.0184C26.6887 31.6243 33.8134 24.633 33.7603 16.0132C33.7603 13.5445 33.2817 11.3455 32.1864 9.16724C26.4229 12.6628 21.2868 16.8638 17.7776 22.4962Z" fill="white"/>
        <path d="M31.4952 6.55345C32.75 6.03484 33.4412 5.77553 33.941 5.15315C34.6535 4.24034 34.1218 2.66368 32.2396 2.94375C30.9635 3.13046 29.6662 3.70096 28.337 4.41668C18.0754 10.018 10.5041 19.8721 7.65422 31.1784C7.62236 31.334 7.84565 31.3859 7.88819 31.2614C13.8112 17.8494 21.5526 10.6196 31.4952 6.55345Z" fill="white"/>
        <path d="M18.6604 3.30662C18.9793 3.82526 18.7454 4.39576 18.1287 5.15297C16.2146 7.48687 11.5676 12.2376 9.60037 16.5941C9.54716 16.7186 9.72797 16.8224 9.81304 16.7186C14.2261 10.9098 19.6493 6.00353 26.2422 2.58052C14.9917 -4.4937 -0.320984 3.90824 1.00824 17.6729C1.02951 17.8285 1.24219 17.8285 1.24219 17.6729C1.43359 8.31665 10.366 3.09916 15.4383 2.50792C17.0015 2.33158 18.2243 2.5909 18.6497 3.30662H18.6604Z" fill="white"/>
        <path d="M48.8071 10.3391H50.8807V20.214H48.8071V18.5544C47.9776 19.7991 46.8079 20.4215 45.266 20.4215C43.9049 20.4215 42.7671 19.9236 41.9163 18.9693C41.0444 18.0046 40.619 16.7703 40.619 15.2558C40.619 13.7414 41.0657 12.5382 41.9483 11.5527C42.8309 10.5881 43.9474 10.1006 45.266 10.1006C46.8079 10.1006 48.0096 10.7437 48.8283 11.9884L48.8071 10.3288V10.3391ZM45.6913 18.4818C46.5952 18.4818 47.3396 18.1706 47.9245 17.569C48.5093 16.9674 48.8071 16.1894 48.8071 15.2558C48.8071 14.3223 48.5093 13.5443 47.9245 12.9531C47.3396 12.3514 46.5952 12.0403 45.6913 12.0403C44.7875 12.0403 44.0644 12.3514 43.5114 12.9531C42.9585 13.5443 42.6607 14.3223 42.6607 15.2558C42.6607 16.1894 42.9585 16.9674 43.5114 17.569C44.0963 18.1602 44.8194 18.4818 45.6913 18.4818Z" fill="white"/>
        <path d="M55.0492 18.2951H60.9508V20.2141H52.3907V18.2951L58.1864 12.2478H52.7416V10.3289H60.8767V12.2478L55.0492 18.2951Z" fill="white"/>
        <path d="M67.0124 10.1006C68.6286 10.1006 69.9046 10.64 70.8405 11.7291C71.7758 12.8183 72.2227 14.1667 72.1165 15.8264H63.8751C63.9603 16.708 64.3005 17.4133 64.8536 17.9009C65.4382 18.3988 66.1617 18.6581 67.0334 18.6581C67.6501 18.6581 68.2032 18.5336 68.6817 18.2951C69.1601 18.0357 69.5003 17.6727 69.7448 17.2059H71.9036C71.5313 18.2639 70.8936 19.073 70.0108 19.6435C69.1391 20.214 68.1286 20.4734 67.0124 20.4734C65.4703 20.4734 64.2258 19.9755 63.2374 19.0212C62.2484 18.0669 61.7484 16.8221 61.7484 15.3388C61.7484 13.8555 62.2484 12.6212 63.2158 11.6357C64.2264 10.5985 65.4703 10.1109 67.0229 10.1109L67.0124 10.1006ZM67.0124 11.8639C66.2358 11.8639 65.5765 12.0714 65.066 12.507C64.5344 12.922 64.1838 13.4925 64.0029 14.1667H69.9046C69.7448 13.4717 69.4046 12.922 68.8941 12.4863C68.3625 12.0714 67.7563 11.8639 67.0124 11.8639Z" fill="white"/>
        <path d="M79.1881 10.1006C79.4536 10.1006 79.6345 10.1213 79.7938 10.1524V12.227C79.5598 12.2062 79.3474 12.2062 79.156 12.2062C78.146 12.2062 77.3484 12.4863 76.7317 13.0879C76.1255 13.6792 75.7958 14.5401 75.7958 15.7019V20.2348H73.7222V10.308H75.7958V12.2581C76.4336 10.8267 77.5824 10.1109 79.177 10.1109L79.1881 10.1006Z" fill="white"/>
        <path d="M85.6534 20.4215C84.1644 20.4215 82.9094 19.9236 81.8994 18.9382C80.8895 17.9527 80.4105 16.7391 80.4105 15.2558C80.4105 13.7725 80.9105 12.5589 81.8994 11.5735C82.8779 10.5881 84.1539 10.1006 85.6744 10.1006C86.8974 10.1006 87.9925 10.4325 88.9179 11.1378C89.8538 11.8328 90.4384 12.7456 90.6403 13.9074H88.482C88.3012 13.285 87.95 12.8183 87.4184 12.4759C86.8869 12.144 86.3017 11.9884 85.6639 11.9884C84.7281 11.9884 83.9626 12.2996 83.3774 12.9012C82.7927 13.5236 82.4951 14.3015 82.4951 15.2558C82.4951 16.2101 82.7927 16.9881 83.3774 17.6104C83.9626 18.2328 84.7281 18.5233 85.6319 18.5233C86.2912 18.5233 86.9079 18.3469 87.4079 18.0046C87.9074 17.6727 88.2586 17.1748 88.471 16.5732H90.6298C90.3958 17.7661 89.8001 18.6996 88.8753 19.3738C87.9394 20.0688 86.8758 20.4111 85.6319 20.4111L85.6534 20.4215Z" fill="white"/>
        <path d="M96.9995 10.1006C98.4669 10.1006 99.7114 10.5881 100.721 11.5735C101.731 12.5589 102.242 13.7725 102.242 15.2558C102.242 16.7391 101.742 17.9527 100.721 18.9382C99.7114 19.9236 98.4669 20.4215 96.9784 20.4215C95.4894 20.4215 94.2665 19.9236 93.2565 18.9382C92.246 17.9527 91.736 16.7391 91.736 15.2558C91.736 13.7725 92.2355 12.5589 93.2776 11.5735C94.3196 10.5881 95.532 10.1006 96.9995 10.1006ZM99.2324 12.9531C98.6157 12.3514 97.8717 12.0403 96.9995 12.0403C96.1277 12.0403 95.3833 12.3514 94.7665 12.9531C94.1603 13.5443 93.8627 14.3223 93.8627 15.2558C93.8627 16.1894 94.1603 16.9674 94.7665 17.569C95.3833 18.1602 96.1277 18.4818 97.021 18.4818C97.9138 18.4818 98.6688 18.1706 99.275 17.569C99.8917 16.9674 100.179 16.1894 100.179 15.2558C100.179 14.3223 99.8386 13.5443 99.2219 12.9531H99.2324Z" fill="white"/>
        <path d="M108.25 20.4322C106.921 20.4322 105.804 20.1209 104.9 19.5193C103.996 18.9281 103.465 18.0879 103.273 17.0299H105.4C105.559 17.5692 105.879 17.9842 106.336 18.2435C106.793 18.5028 107.453 18.6377 108.303 18.6377C108.963 18.6377 109.494 18.5339 109.898 18.3576C110.302 18.1501 110.483 17.8908 110.483 17.5278C110.483 17.2892 110.377 17.0817 110.185 16.9262C109.994 16.7705 109.781 16.6668 109.526 16.5942C109.26 16.5112 108.867 16.4075 108.303 16.283C108.09 16.2312 107.931 16.2104 107.824 16.1793C106.304 15.8162 105.272 15.4532 104.667 15.0694C104.049 14.6752 103.784 14.084 103.784 13.306C103.784 12.3206 104.188 11.5427 104.954 10.9929C105.73 10.4224 106.761 10.1631 108.069 10.1631C109.377 10.1631 110.323 10.4224 111.068 10.9721C111.812 11.5115 112.291 12.2377 112.482 13.1712H110.388C110.089 12.3621 109.292 11.9783 108.016 11.9783C107.357 11.9783 106.825 12.0821 106.453 12.2895C106.08 12.497 105.889 12.7563 105.889 13.1193C105.889 13.4305 106.049 13.638 106.347 13.7624C106.644 13.8869 107.303 14.0736 108.282 14.3018C108.92 14.4263 109.43 14.5611 109.802 14.6649C110.175 14.7686 110.568 14.8931 110.972 15.0798C111.377 15.2665 111.695 15.4117 111.908 15.6296C112.121 15.837 112.28 16.0755 112.408 16.3349C112.535 16.5942 112.62 16.9572 112.62 17.3411C112.62 18.3576 112.217 19.1356 111.398 19.6749C110.568 20.1417 109.537 20.4322 108.261 20.4322H108.25Z" fill="white"/>
        <path d="M126.062 10.1007C127.125 10.1007 127.976 10.4326 128.593 11.0861C129.198 11.7604 129.497 12.6628 129.497 13.8349V20.1831H127.423V14.2913C127.423 12.7873 126.764 12.0404 125.423 12.0404C124.626 12.0404 124.02 12.3205 123.595 12.8703C123.169 13.42 122.957 14.1669 122.957 15.0693L122.989 20.2038H120.83V14.2913C120.83 12.7873 120.171 12.0404 118.831 12.0404C118.033 12.0404 117.427 12.3205 117.002 12.8703C116.576 13.42 116.363 14.1669 116.363 15.0693V20.2038H114.29V10.2978H116.363V11.8745C117.108 10.6816 118.139 10.0903 119.522 10.0903C121.085 10.0903 122.127 10.7853 122.659 12.1649C123.382 10.7853 124.52 10.0903 126.062 10.0903V10.1007Z" fill="white"/>
        <path d="M136.323 10.1006C137.79 10.1006 139.035 10.5881 140.045 11.5735C141.055 12.5589 141.565 13.7725 141.565 15.2558C141.565 16.7391 141.055 17.9527 140.045 18.9382C139.035 19.9236 137.79 20.4215 136.302 20.4215C134.813 20.4215 133.59 19.9236 132.58 18.9382C131.57 17.9527 131.06 16.7391 131.06 15.2558C131.06 13.7725 131.559 12.5589 132.602 11.5735C133.644 10.5881 134.856 10.1006 136.323 10.1006ZM138.578 12.9531C137.971 12.3514 137.227 12.0403 136.345 12.0403C135.462 12.0403 134.717 12.3514 134.112 12.9531C133.506 13.5443 133.207 14.3223 133.207 15.2558C133.207 16.1894 133.506 16.9674 134.112 17.569C134.717 18.1602 135.472 18.4818 136.366 18.4818C137.259 18.4818 138.014 18.1706 138.599 17.569C139.205 16.9674 139.503 16.1894 139.503 15.2558C139.503 14.3223 139.163 13.5443 138.567 12.9531H138.578Z" fill="white"/>
        <path d="M147.563 20.4322C146.234 20.4322 145.118 20.1209 144.214 19.5193C143.342 18.9281 142.778 18.0879 142.597 17.0299H144.724C144.884 17.5692 145.203 17.9842 145.66 18.2435C146.107 18.5028 146.776 18.6377 147.627 18.6377C148.286 18.6377 148.818 18.5339 149.222 18.3576C149.626 18.1813 149.807 17.8908 149.807 17.5278C149.807 17.2892 149.701 17.0817 149.52 16.9262C149.328 16.7705 149.115 16.6668 148.861 16.5942C148.594 16.5112 148.201 16.4075 147.638 16.283C147.425 16.2312 147.265 16.2104 147.159 16.1793C145.639 15.8162 144.607 15.4532 144.022 15.0694C143.437 14.6856 143.15 14.084 143.15 13.306C143.15 12.3206 143.554 11.5427 144.32 10.9929C145.096 10.4224 146.128 10.1631 147.436 10.1631C148.744 10.1631 149.69 10.4224 150.434 10.9721C151.179 11.5115 151.657 12.2377 151.838 13.1712H149.743C149.445 12.3621 148.648 11.9783 147.372 11.9783C146.713 11.9783 146.181 12.0821 145.808 12.2895C145.437 12.497 145.224 12.7563 145.224 13.1193C145.224 13.4305 145.383 13.638 145.681 13.7624C146 13.8869 146.638 14.0736 147.617 14.3018C148.254 14.4263 148.754 14.5611 149.137 14.6649C149.509 14.7686 149.903 14.8931 150.307 15.0798C150.711 15.2665 151.03 15.4117 151.243 15.6296C151.455 15.837 151.614 16.0755 151.753 16.3349C151.891 16.5942 151.966 16.9572 151.966 17.3411C151.966 18.3576 151.561 19.1356 150.743 19.6749C149.913 20.2247 148.882 20.4322 147.605 20.4322H147.563Z" fill="white"/>
</svg>
