<svg xmlns="http://www.w3.org/2000/svg" width="68" height="68" viewBox="0 0 68 68" fill="none">
  <path d="M25.6923 51.7778H42.3072M33.9996 2V8.4M56.6272 11.3726L51.6 16.3998M66 33.9996H59.6M8.4 33.9996H2M16.3998 16.4L11.3724 11.3726M21.429 46.571C14.4864 39.6281 14.4864 28.3719 21.429 21.4293C28.3716 14.4866 39.6281 14.4866 46.5707 21.4293C53.5132 28.3719 53.5132 39.6281 46.5707 46.571L44.6254 48.5163C42.3751 50.7662 41.1108 53.8183 41.1108 57.0009V58.8889C41.1108 62.8164 37.9271 66 33.9996 66C30.0725 66 26.8887 62.8164 26.8887 58.8889V57.0009C26.8887 53.8183 25.6245 50.7662 23.3743 48.5163L21.429 46.571Z" stroke="#696DD4" stroke-width="3.5" stroke-linecap="round"/>
</svg>
