<svg width="64" height="64" viewBox="0 0 64 64" fill="none" xmlns="http://www.w3.org/2000/svg">
<path d="M20.2349 39.3287C19.0584 21.4266 27.6859 10.9837 31.9996 8C36.3133 10.9837 44.9408 21.4266 43.7643 39.3287M20.2349 39.3287C17.4898 40.8205 10.6663 45.2587 10.6663 56L21.0861 50.7982M20.2349 39.3287C20.4689 42.8898 20.7814 47.4452 21.0861 50.7982M21.0861 50.7982C21.1969 52.0178 21.3067 53.0783 21.4113 53.8741L31.9996 52.3077L42.5879 53.8741C42.6925 53.0783 42.8022 52.0178 42.9131 50.7982M43.7643 39.3287C46.5094 40.8205 53.3329 45.2587 53.3329 56L42.9131 50.7982M43.7643 39.3287C43.5303 42.8898 43.2178 47.4451 42.9131 50.7982M35.529 29.2587C35.529 31.1126 33.9488 32.6154 31.9996 32.6154C30.0504 32.6154 28.4702 31.1126 28.4702 29.2587C28.4702 27.4049 30.0504 25.9021 31.9996 25.9021C33.9488 25.9021 35.529 27.4049 35.529 29.2587Z" stroke="#696DD4" stroke-width="3.5" stroke-linecap="round"/>
</svg>
