<svg xmlns="http://www.w3.org/2000/svg" width="64" height="64" viewBox="0 0 64 64" fill="none">
  <path d="M45 53H58V47.75C58 43.4006 54.5079 39.875 50.2 39.875C47.7154 39.875 45.5021 41.0479 44.0739 42.8751M45 53H19M45 53V47.75C45 46.0275 44.6714 44.3821 44.0739 42.8751M19 53H6V47.75C6 43.4006 9.49219 39.875 13.8 39.875C16.2846 39.875 18.4978 41.0479 19.9262 42.8751M19 53V47.75C19 46.0275 19.3287 44.3821 19.9262 42.8751M19.9262 42.8751C21.8431 38.0401 26.5265 34.625 32 34.625C37.4735 34.625 42.1569 38.0401 44.0739 42.8751M39.8 18.875C39.8 23.2242 36.3079 26.75 32 26.75C27.6921 26.75 24.2 23.2242 24.2 18.875C24.2 14.5258 27.6921 11 32 11C36.3079 11 39.8 14.5258 39.8 18.875ZM55.4 26.75C55.4 29.6496 53.072 32 50.2 32C47.328 32 45 29.6496 45 26.75C45 23.8505 47.328 21.5 50.2 21.5C53.072 21.5 55.4 23.8505 55.4 26.75ZM19 26.75C19 29.6496 16.6719 32 13.8 32C10.9281 32 8.6 29.6496 8.6 26.75C8.6 23.8505 10.9281 21.5 13.8 21.5C16.6719 21.5 19 23.8505 19 26.75Z" stroke="#696DD4" stroke-width="3.5" stroke-linecap="round" stroke-linejoin="round"/>
</svg>
