<svg xmlns="http://www.w3.org/2000/svg" width="68" height="68" viewBox="0 0 68 68" fill="none">
  <path d="M46.8 38.7999C32.5636 43.7112 27.8704 49.1797 24.4 62.8C20.9296 49.1797 16.2365 43.7112 2 38.7999C16.2365 33.8889 20.9296 28.4204 24.4 14.8C27.8704 28.4204 32.5636 33.8889 46.8 38.7999Z" stroke="#696DD4" stroke-width="3.45" stroke-linecap="round" stroke-linejoin="round"/>
  <path d="M66 16.4001C57.8647 19.3467 55.1831 22.6279 53.1999 30.8C51.2169 22.6279 48.535 19.3467 40.4 16.4001C48.535 13.4534 51.2169 10.1722 53.1999 2C55.1831 10.1722 57.8647 13.4534 66 16.4001Z" stroke="#696DD4" stroke-width="3.45" stroke-linecap="round" stroke-linejoin="round"/>
  <path d="M66 58C60.9157 59.6369 59.2396 61.4599 58 66C56.7607 61.4599 55.0845 59.6369 50 58C55.0845 56.3629 56.7607 54.5401 58 50C59.2396 54.5401 60.9157 56.3629 66 58Z" stroke="#696DD4" stroke-width="3.45" stroke-linecap="round" stroke-linejoin="round"/>
</svg>
