<svg xmlns="http://www.w3.org/2000/svg" width="58" height="44" viewBox="0 0 58 44" fill="none">
  <path d="M7.00708 44C5.77692 43.999 4.56866 43.6664 3.50359 43.0356C2.43853 42.4049 1.55412 41.4981 0.939156 40.4064C0.32419 39.3147 0.000300845 38.0764 2.0948e-07 36.8159C-0.000300426 35.5553 0.322998 34.3169 0.937443 33.2249L16.5704 5.48108C17.5625 3.72045 19.0128 2.27719 20.7592 1.31257C22.5057 0.347948 24.4796 -0.100023 26.4602 0.0187171C28.4408 0.137457 30.3503 0.818229 31.975 1.98496C33.5998 3.15168 34.876 4.7584 35.6609 6.62556L37.3697 10.6878C40.3583 10.3864 43.3642 11.0474 45.969 12.5788C48.5737 14.1101 50.6477 16.4356 51.9021 19.2315L56.6086 29.7117C57.087 30.774 57.3546 31.9232 57.396 33.0924C57.4374 34.2616 57.2516 35.4276 56.8496 36.5226C56.4475 37.6177 55.8372 38.62 55.054 39.4713C54.2708 40.3227 53.3303 41.0061 52.2872 41.4819C51.2441 41.9577 50.1192 42.2165 48.9777 42.2431C47.8362 42.2698 46.7009 42.0637 45.6377 41.6371C44.5746 41.2104 43.6047 40.5715 42.7845 39.7576C41.9643 38.9437 41.3101 37.9709 40.8598 36.8957L33.657 19.7694C33.5954 19.8288 33.5339 19.8881 33.476 19.9549L11.9526 41.9058C10.6401 43.248 8.8613 44.0012 7.00708 44ZM25.8188 7.08743C25.1564 7.08286 24.505 7.26004 23.932 7.60057C23.359 7.94109 22.8854 8.43256 22.5604 9.02395L6.92743 36.7696C6.91572 36.7897 6.91201 36.8136 6.91706 36.8364C6.92212 36.8592 6.93556 36.8791 6.95458 36.892C6.97203 36.9051 6.9935 36.9114 7.01509 36.9097C7.03668 36.908 7.05696 36.8984 7.07225 36.8827L28.5884 14.9262C29.274 14.2285 30.026 13.6028 30.8331 13.0584L29.3125 9.43017C29.0415 8.76426 28.5913 8.19109 28.0143 7.77757C27.4373 7.36406 26.7575 7.12726 26.0541 7.09485C25.9763 7.08928 25.8984 7.08743 25.8188 7.08743ZM40.3946 17.883L47.2064 34.093C47.2878 34.3163 47.413 34.5203 47.5742 34.6922C47.7355 34.8641 47.9294 35.0003 48.1441 35.0924C48.3587 35.1846 48.5894 35.2307 48.8221 35.2279C49.0548 35.2251 49.2845 35.1735 49.4969 35.0762C49.7094 34.979 49.9002 34.8382 50.0575 34.6625C50.2148 34.4868 50.3353 34.2799 50.4116 34.0546C50.4878 33.8294 50.5182 33.5905 50.5009 33.3527C50.4836 33.1149 50.419 32.8833 50.3109 32.6721L45.6044 22.1919C45.1262 21.1056 44.4055 20.1497 43.5006 19.4013C42.5956 18.6528 41.5317 18.1327 40.3946 17.883Z" fill="url(#paint0_linear_744_5512)"/>
  <path d="M33.657 19.7773C34.4469 18.7837 35.5195 18.0516 36.7257 17.7131C37.932 17.3746 39.2113 17.4305 40.3851 17.873C41.0935 19.5536 41.8031 21.2341 42.5139 22.9146L36.2033 25.8157L33.657 19.7773Z" fill="url(#paint1_linear_744_5512)"/>
  <defs>
    <linearGradient id="paint0_linear_744_5512" x1="33.5374" y1="-12.0258" x2="-16.5098" y2="10.9064" gradientUnits="userSpaceOnUse">
      <stop stop-color="#FFBBAC"/>
      <stop offset="0.482869" stop-color="#E498FF"/>
      <stop offset="1" stop-color="#696DD4"/>
    </linearGradient>
    <linearGradient id="paint1_linear_744_5512" x1="36.8716" y1="17.6612" x2="39.7432" y2="24.024" gradientUnits="userSpaceOnUse">
      <stop stop-color="#CD92B8"/>
      <stop offset="1" stop-color="#F7B1C7" stop-opacity="0"/>
    </linearGradient>
  </defs>
</svg>
