<svg xmlns="http://www.w3.org/2000/svg" width="203" height="44" viewBox="0 0 203 44" fill="none">
  <path fill-rule="evenodd" clip-rule="evenodd" d="M125.054 18.5036C125.054 19.394 124.839 20.0351 124.409 20.4271C123.979 20.8191 123.364 21.0152 122.563 21.0152H121.685V19.2882H122.249C122.477 19.3111 122.705 19.2449 122.887 19.1027C122.954 19.0223 123.005 18.9288 123.036 18.8277C123.067 18.7267 123.078 18.6202 123.068 18.5147V9.14562H125.05L125.054 18.5036ZM123.191 7.84719C123.081 7.73625 122.994 7.60411 122.935 7.45844C122.875 7.31277 122.845 7.15646 122.845 6.99857C122.845 6.84069 122.875 6.68438 122.935 6.53871C122.994 6.39303 123.081 6.2609 123.191 6.14996C123.309 6.03616 123.448 5.94743 123.6 5.88886C123.752 5.83029 123.914 5.80303 124.076 5.80865C124.235 5.80349 124.394 5.83102 124.542 5.88964C124.691 5.94826 124.827 6.03677 124.941 6.14996C125.158 6.37644 125.28 6.68117 125.28 6.99857C125.28 7.31598 125.158 7.62071 124.941 7.84719C124.827 7.96073 124.691 8.04946 124.543 8.1081C124.394 8.16674 124.235 8.19408 124.076 8.18849C123.914 8.19453 123.752 8.16746 123.6 8.10887C123.448 8.05028 123.309 7.96133 123.191 7.84719ZM119.367 7.45871C119.427 7.60442 119.514 7.73648 119.624 7.84716C119.863 8.06706 120.173 8.18871 120.494 8.18871C120.815 8.18871 121.125 8.06706 121.364 7.84716C121.474 7.73648 121.562 7.60442 121.621 7.45871C121.681 7.313 121.712 7.15656 121.712 6.99854C121.712 6.84052 121.681 6.68408 121.621 6.53837C121.562 6.39266 121.474 6.2606 121.364 6.14992C121.125 5.93002 120.815 5.80837 120.494 5.80837C120.173 5.80837 119.863 5.93002 119.624 6.14992C119.514 6.2606 119.427 6.39266 119.367 6.53837C119.308 6.68408 119.277 6.84052 119.277 6.99854C119.277 7.15656 119.308 7.313 119.367 7.45871ZM121.471 17.1903V9.14559H119.48V17.1903H121.471ZM105.57 9.00623C105.036 8.99891 104.508 9.12631 104.033 9.37721C103.613 9.59978 103.254 9.92622 102.989 10.3269V6.44647H100.998V17.1901H102.978V16.0233C103.254 16.4127 103.616 16.7304 104.033 16.9508C104.51 17.1953 105.037 17.317 105.57 17.3051C106.21 17.3111 106.838 17.1296 107.38 16.782C107.934 16.4225 108.38 15.9135 108.669 15.311C108.995 14.6324 109.157 13.8839 109.143 13.1278C109.159 12.3758 108.996 11.6311 108.669 10.9576C108.38 10.3627 107.933 9.86273 107.38 9.51448C106.835 9.17555 106.208 8.99952 105.57 9.00623ZM106.066 11.0689C106.393 11.2596 106.66 11.5413 106.837 11.8813C107.037 12.2656 107.138 12.6961 107.129 13.1315C107.139 13.5754 107.038 14.0145 106.837 14.4077C106.659 14.7517 106.392 15.0391 106.066 15.2387C105.756 15.4289 105.401 15.5272 105.04 15.5225C104.684 15.5229 104.334 15.4255 104.028 15.2406C103.704 15.0435 103.44 14.7593 103.264 14.4188C103.072 14.027 102.973 13.5948 102.973 13.1566C102.973 12.7183 103.072 12.2861 103.264 11.8943C103.44 11.5549 103.705 11.2719 104.028 11.0763C104.334 10.89 104.684 10.7919 105.04 10.7925C105.4 10.7894 105.754 10.8848 106.066 11.0689ZM77.039 15.2553H73.1018L72.4502 17.1899H70.3684L73.9237 7.04731H76.2317L79.7851 17.1899H77.6889L77.039 15.2553ZM76.496 13.6285L75.0695 9.39933L73.6395 13.6359L76.496 13.6285ZM82.5742 15.5206H86.0715V17.1901H80.3223V15.5448L83.7508 10.8148H80.3368V9.14535H86.0299V10.7851L82.5742 15.5206ZM88.7467 13.7734H94.4797C94.5183 13.5144 94.5359 13.2526 94.5322 12.9906C94.5457 12.2649 94.3774 11.5477 94.0434 10.9076C93.7278 10.3145 93.2504 9.82845 92.6695 9.50896C92.0571 9.17464 91.372 9.00488 90.6782 9.01555C89.9627 9.00137 89.2557 9.17642 88.6255 9.5238C88.0347 9.85789 87.5526 10.3622 87.2388 10.9743C86.8953 11.6481 86.7223 12.3994 86.7356 13.1594C86.72 13.9167 86.8932 14.6656 87.2388 15.3352C87.5569 15.9491 88.0416 16.4555 88.6345 16.7932C89.257 17.1428 89.9576 17.3205 90.6674 17.3088C91.5141 17.3384 92.3462 17.0772 93.0315 16.5669C93.659 16.0945 94.1187 15.4249 94.3403 14.66H92.2024C92.0674 14.966 91.8449 15.2228 91.5643 15.3963C91.2837 15.5699 90.9583 15.6521 90.6312 15.632C90.1554 15.645 89.6932 15.4681 89.3423 15.1386C88.9786 14.7798 88.7651 14.2903 88.7467 13.7734ZM92.3495 11.7188C92.445 11.9359 92.4924 12.172 92.4884 12.41H88.7667C88.8135 11.9242 89.0324 11.4728 89.3821 11.1413C89.7241 10.8347 90.1661 10.6712 90.6203 10.6831C91.1006 10.6693 91.569 10.837 91.9363 11.1543C92.113 11.309 92.2541 11.5017 92.3495 11.7188ZM98.6094 9.39923C99.039 9.14959 99.5257 9.02155 100.02 9.02825V11.1614H99.4946C98.8719 11.1614 98.4085 11.3135 98.0862 11.6121C97.764 11.9108 97.612 12.4338 97.612 13.1795V17.1898H95.6298V9.14511H97.612V10.3935C97.8571 9.98098 98.2002 9.63891 98.6094 9.39923ZM110.206 10.9745C110.495 10.3769 110.942 9.87442 111.496 9.52396C112.042 9.18503 112.669 9.009 113.307 9.01572C113.841 9.00592 114.369 9.13346 114.843 9.3867C115.257 9.60702 115.618 9.91948 115.899 10.3012V9.14556H117.89V17.1903H115.899V16.0087C115.624 16.4023 115.263 16.7234 114.843 16.9454C114.365 17.1997 113.833 17.3273 113.294 17.3164C112.654 17.3237 112.026 17.1421 111.484 16.7933C110.931 16.4332 110.485 15.9244 110.195 15.3224C109.87 14.6436 109.708 13.8951 109.722 13.1392C109.711 12.3883 109.877 11.6458 110.206 10.9745ZM115.622 11.9019C115.447 11.5625 115.182 11.2808 114.858 11.0895C114.544 10.9023 114.187 10.8043 113.824 10.8057C113.46 10.8023 113.102 10.9013 112.789 11.092C112.476 11.2827 112.22 11.5577 112.048 11.8871C111.847 12.2727 111.746 12.7055 111.757 13.1429C111.748 13.583 111.849 14.0182 112.048 14.4079C112.224 14.7522 112.488 15.0404 112.812 15.2408C113.117 15.4318 113.467 15.5326 113.824 15.532C114.187 15.5331 114.544 15.4358 114.858 15.25C115.182 15.0577 115.447 14.7754 115.622 14.4357C115.821 14.0446 115.918 13.6078 115.906 13.167C115.919 12.7255 115.821 12.2881 115.622 11.8964V11.9019ZM127.906 9.52396C127.352 9.87469 126.906 10.3772 126.617 10.9745C126.29 11.6461 126.125 12.3886 126.137 13.1392C126.123 13.8951 126.285 14.6436 126.61 15.3224C126.9 15.9244 127.345 16.4332 127.898 16.7933C128.44 17.1421 129.069 17.3237 129.709 17.3164C130.247 17.3273 130.78 17.1997 131.258 16.9454C131.677 16.7234 132.039 16.4023 132.314 16.0087V17.1903H134.305V9.14556H132.314V10.2919C132.033 9.914 131.674 9.60481 131.262 9.3867C130.788 9.13346 130.259 9.00592 129.725 9.01572C129.084 9.00727 128.454 9.18336 127.906 9.52396ZM131.269 11.0895C131.594 11.2808 131.858 11.5625 132.033 11.9019V11.8964C132.23 12.2879 132.327 12.7246 132.314 13.1651C132.327 13.6063 132.231 14.0437 132.033 14.4357C131.858 14.7754 131.593 15.0577 131.269 15.25C130.955 15.4358 130.598 15.5331 130.235 15.532C129.878 15.5326 129.528 15.4318 129.224 15.2408C128.899 15.0404 128.635 14.7522 128.46 14.4079C128.26 14.0182 128.159 13.583 128.168 13.1429C128.157 12.7055 128.258 12.2727 128.46 11.8871C128.631 11.5577 128.887 11.2827 129.2 11.092C129.513 10.9013 129.871 10.8023 130.235 10.8057C130.598 10.8043 130.955 10.9023 131.269 11.0895ZM142.512 9.93535C143.087 10.5401 143.375 11.384 143.375 12.4673V17.1899H141.384V12.7381C141.384 12.1 141.228 11.6103 140.917 11.2653C140.753 11.0921 140.556 10.9566 140.337 10.8677C140.119 10.7788 139.885 10.7385 139.65 10.7497C139.41 10.737 139.171 10.7764 138.948 10.8653C138.724 10.9542 138.522 11.0905 138.354 11.2653C138.037 11.6103 137.879 12.1 137.879 12.7381V17.1899H135.888V9.14516H137.879V10.1412C138.148 9.78909 138.495 9.50797 138.891 9.32138C139.315 9.12038 139.777 9.01897 140.243 9.0246C141.179 9.02707 141.935 9.33065 142.512 9.93535ZM150.054 15.2553H153.98L154.632 17.1899H156.728L153.175 7.04731H150.867L147.311 17.1899H149.393L150.054 15.2553ZM152.012 9.39933L153.437 13.6285L150.582 13.6359L152.012 9.39933ZM160.685 9.39922C161.114 9.14973 161.6 9.02169 162.093 9.02823V11.1614H161.57C160.947 11.1614 160.484 11.3135 160.162 11.6121C159.839 11.9108 159.687 12.4338 159.687 13.1795V17.1898H157.696V9.14509H159.687V10.3934C159.932 9.98097 160.276 9.6389 160.685 9.39922ZM165.379 14.7099V10.8146H167.13V9.14521H165.374V7.15861H163.383V9.14521H162.449V10.8146H163.383V14.6932C163.383 16.3577 164.219 17.1899 165.89 17.1899H167.135V15.4834H166.216C165.986 15.5048 165.757 15.4387 165.571 15.2979C165.501 15.2191 165.448 15.126 165.415 15.0248C165.382 14.9235 165.37 14.8162 165.379 14.7099ZM168.346 7.84672C168.236 7.73603 168.149 7.60398 168.089 7.45827C168.029 7.31256 167.999 7.15612 167.999 6.9981C167.999 6.84007 168.029 6.68364 168.089 6.53793C168.149 6.39222 168.236 6.26016 168.346 6.14948C168.586 5.92983 168.896 5.80837 169.217 5.80837C169.538 5.80837 169.848 5.92983 170.088 6.14948C170.197 6.26042 170.284 6.39256 170.344 6.53823C170.403 6.68391 170.434 6.84022 170.434 6.9981C170.434 7.15598 170.403 7.31229 170.344 7.45796C170.284 7.60364 170.197 7.73578 170.088 7.84672C169.848 8.06637 169.538 8.18783 169.217 8.18783C168.896 8.18783 168.586 8.06637 168.346 7.84672ZM170.193 9.14515V17.1899H168.201V9.14515H170.193ZM174.023 10.8149H175.397V9.14548H174.023V8.8116C174.023 8.35715 174.119 8.04367 174.307 7.86931C174.496 7.69495 174.832 7.61333 175.312 7.6226V5.91053C174.207 5.88456 173.381 6.1022 172.834 6.56345C172.287 7.02471 172.014 7.74997 172.014 8.73926V9.14548H171.121V10.8149H172.014V17.1902H174.023V10.8149ZM176.458 7.84672C176.348 7.73603 176.261 7.60398 176.201 7.45827C176.142 7.31256 176.111 7.15612 176.111 6.9981C176.111 6.84007 176.142 6.68364 176.201 6.53793C176.261 6.39222 176.348 6.26016 176.458 6.14948C176.698 5.92983 177.008 5.80837 177.329 5.80837C177.651 5.80837 177.961 5.92983 178.2 6.14948C178.31 6.26042 178.397 6.39256 178.456 6.53823C178.515 6.68391 178.546 6.84022 178.546 6.9981C178.546 7.15598 178.515 7.31229 178.456 7.45796C178.397 7.60364 178.31 7.73578 178.2 7.84672C177.961 8.06637 177.651 8.18783 177.329 8.18783C177.008 8.18783 176.698 8.06637 176.458 7.84672ZM178.305 9.14515V17.1899H176.314V9.14515H178.305ZM181.267 9.53123C180.683 9.87062 180.206 10.3739 179.893 10.9818C179.55 11.655 179.38 12.406 179.397 13.165C179.383 13.9235 179.557 14.6731 179.902 15.3445C180.216 15.9518 180.692 16.4544 181.276 16.7932C181.889 17.1444 182.583 17.3224 183.285 17.3088C184.248 17.3101 185.051 17.0535 185.693 16.5391C186.34 16.018 186.794 15.2866 186.982 14.4653H184.835C184.587 15.1998 184.063 15.5671 183.262 15.5671C183.005 15.5784 182.749 15.5273 182.515 15.418C182.282 15.3087 182.077 15.1443 181.917 14.9383C181.587 14.5265 181.422 13.9335 181.422 13.1594C181.422 12.3853 181.587 11.788 181.917 11.3676C182.076 11.1612 182.281 10.9964 182.515 10.8868C182.749 10.7772 183.005 10.7259 183.262 10.7369C183.617 10.7241 183.967 10.8281 184.261 11.0337C184.533 11.2371 184.734 11.5245 184.835 11.8536H186.973C186.798 11.0229 186.344 10.2812 185.691 9.75753C185.054 9.26289 184.249 9.01557 183.276 9.01557C182.573 9.00114 181.88 9.17916 181.267 9.53123ZM188.211 7.84672C188.101 7.73578 188.014 7.60364 187.955 7.45796C187.895 7.31229 187.865 7.15598 187.865 6.9981C187.865 6.84022 187.895 6.68391 187.955 6.53823C188.014 6.39256 188.101 6.26042 188.211 6.14948C188.45 5.92983 188.76 5.80837 189.082 5.80837C189.403 5.80837 189.713 5.92983 189.952 6.14948C190.062 6.26016 190.15 6.39222 190.21 6.53793C190.269 6.68364 190.3 6.84007 190.3 6.9981C190.3 7.15612 190.269 7.31256 190.21 7.45827C190.15 7.60398 190.062 7.73603 189.952 7.84672C189.713 8.06637 189.403 8.18783 189.082 8.18783C188.76 8.18783 188.45 8.06637 188.211 7.84672ZM190.059 9.14515V17.1899H188.068V9.14515H190.059ZM192.912 9.52395C192.358 9.87413 191.911 10.3768 191.623 10.9745C191.296 11.6457 191.133 12.3875 191.145 13.1373C191.127 13.8931 191.286 14.6422 191.608 15.3224C191.898 15.9248 192.344 16.4338 192.897 16.7933C193.439 17.1421 194.068 17.3237 194.707 17.3164C195.247 17.3275 195.78 17.2 196.259 16.9454C196.678 16.7233 197.04 16.4023 197.314 16.0087V17.1903H199.305V9.14555H197.314V10.3011C197.033 9.91947 196.673 9.60701 196.259 9.38668C195.785 9.13359 195.256 9.00606 194.722 9.0157C194.084 9.00899 193.457 9.18502 192.912 9.52395ZM196.275 11.0895C196.6 11.2808 196.865 11.5625 197.039 11.9019V11.8964C197.236 12.2856 197.333 12.7195 197.323 13.1577C197.335 13.5984 197.237 14.035 197.039 14.4265C196.864 14.7661 196.599 15.0484 196.275 15.2408C195.961 15.4264 195.604 15.5236 195.241 15.5227C194.884 15.5233 194.533 15.4225 194.228 15.2315C193.904 15.0301 193.64 14.7422 193.464 14.3986C193.264 14.0077 193.164 13.5711 193.174 13.1299C193.163 12.6926 193.263 12.2599 193.464 11.8741C193.64 11.5395 193.902 11.261 194.222 11.0691C194.533 10.8893 194.885 10.7984 195.241 10.8057C195.604 10.8045 195.961 10.9025 196.275 11.0895ZM202.889 6.44647V17.1901H200.907V6.44647H202.889ZM72.9608 34.1127V23.9849H70.9786V34.1127H72.9608ZM81.1734 26.8637C81.7491 27.4684 82.0369 28.3123 82.0369 29.3956V34.1126H80.0547V29.672C80.0547 29.0339 79.8972 28.5442 79.5877 28.1992C79.4243 28.026 79.2268 27.8905 79.0083 27.8016C78.7898 27.7127 78.5554 27.6724 78.3205 27.6835C78.0812 27.6707 77.8419 27.71 77.6185 27.7989C77.3951 27.8877 77.1926 28.0242 77.0244 28.1992C76.7076 28.5442 76.5502 29.0339 76.5502 29.672V34.1126H74.568V26.0735H76.5592V27.0751C76.8278 26.723 77.1748 26.4418 77.5711 26.2552C77.9945 26.0537 78.4565 25.9516 78.9233 25.9566C79.8466 25.9566 80.5966 26.259 81.1734 26.8637ZM85.8745 31.6376V27.7423H87.625V26.0729H85.8691V24.0845H83.8778V26.0729H82.942V27.7423H83.8778V31.6265C83.8778 33.291 84.7129 34.1232 86.3832 34.1232H87.6304V32.4111H86.709C86.4792 32.4325 86.2499 32.3664 86.0646 32.2256C85.995 32.1464 85.9421 32.0532 85.9094 31.952C85.8767 31.8508 85.8648 31.7438 85.8745 31.6376ZM95.9415 30.701H90.2067C90.2249 31.2171 90.4377 31.7058 90.8005 32.0643C91.151 32.3945 91.6134 32.5715 92.0893 32.5577C92.4163 32.5768 92.7413 32.4944 93.0219 32.3214C93.3025 32.1483 93.5257 31.8926 93.6624 31.5876H95.7985C95.5801 32.3521 95.1228 33.022 94.4969 33.4945C93.8116 34.0048 92.9795 34.266 92.1328 34.2364C91.423 34.2481 90.7224 34.0704 90.0999 33.7208C89.5058 33.3829 89.0193 32.8767 88.6988 32.2628C88.3539 31.5929 88.1807 30.8442 88.1956 30.087C88.1789 29.3279 88.3482 28.5767 88.6879 27.9019C89.0018 27.2892 89.4846 26.7848 90.0764 26.4514C90.7028 26.1199 91.3971 25.9457 92.1021 25.9432C92.8071 25.9406 93.5026 26.1097 94.1312 26.4366C94.7125 26.7555 95.1901 27.2417 95.5052 27.8352C95.8394 28.4752 96.0076 29.1924 95.9939 29.9182C95.9976 30.1802 95.98 30.442 95.9415 30.701ZM93.9502 29.3376C93.9553 29.1003 93.9093 28.8647 93.8154 28.6477C93.7215 28.4306 93.5822 28.2374 93.4072 28.0819C93.0391 27.7646 92.5701 27.597 92.0893 27.6107C91.6348 27.5969 91.1922 27.7607 90.8511 28.0689C90.5019 28.4007 90.283 28.852 90.2357 29.3376H93.9502ZM99.0697 34.1118V23.3738H97.0785V34.1118H99.0697ZM102.653 23.3738V34.1118H100.67V23.3738H102.653ZM104.13 24.3862C104.19 24.5319 104.277 24.6639 104.387 24.7746C104.626 24.9943 104.936 25.1157 105.258 25.1157C105.579 25.1157 105.889 24.9943 106.128 24.7746C106.238 24.6637 106.325 24.5315 106.385 24.3859C106.444 24.2402 106.475 24.0839 106.475 23.926C106.475 23.7681 106.444 23.6118 106.385 23.4661C106.325 23.3205 106.238 23.1883 106.128 23.0774C105.889 22.8577 105.579 22.7363 105.258 22.7363C104.936 22.7363 104.626 22.8577 104.387 23.0774C104.277 23.1881 104.19 23.3201 104.13 23.4658C104.07 23.6115 104.039 23.768 104.039 23.926C104.039 24.084 104.07 24.2405 104.13 24.3862ZM106.233 34.1122V26.0731H104.255V34.1122H106.233ZM112.452 26.2975C112.869 26.514 113.229 26.8325 113.498 27.225V26.0786H115.489V34.1753C115.501 34.8668 115.35 35.5512 115.051 36.1712C114.756 36.7582 114.297 37.2424 113.733 37.5623C113.082 37.9226 112.35 38.1005 111.61 38.078C110.495 38.078 109.581 37.8121 108.869 37.2804C108.524 37.0306 108.237 36.7063 108.028 36.3304C107.818 35.9544 107.692 35.536 107.658 35.1046H109.631C109.738 35.4745 109.979 35.7885 110.305 35.9819C110.685 36.2081 111.12 36.3206 111.559 36.3066C111.815 36.3179 112.071 36.277 112.311 36.1863C112.552 36.0955 112.773 35.9567 112.96 35.7779C113.322 35.4255 113.503 34.8913 113.503 34.1753V32.9269C113.229 33.3218 112.868 33.6453 112.45 33.8711C111.976 34.1257 111.448 34.2533 110.913 34.2421C110.273 34.2477 109.645 34.0663 109.103 33.719C108.546 33.3607 108.097 32.8508 107.807 32.2462C107.48 31.5679 107.317 30.8191 107.332 30.063C107.318 29.314 107.48 28.5725 107.807 27.902C108.095 27.3048 108.541 26.8023 109.094 26.4515C109.643 26.1113 110.273 25.9353 110.915 25.9432C111.447 25.9323 111.975 26.0539 112.452 26.2975ZM113.216 28.822C113.039 28.4842 112.775 28.203 112.452 28.0096C112.137 27.824 111.781 27.7267 111.418 27.7276C111.053 27.7239 110.695 27.8227 110.381 28.0134C110.068 28.2041 109.812 28.4793 109.64 28.809C109.439 29.1941 109.339 29.6263 109.351 30.063C109.341 30.5048 109.44 30.942 109.64 31.3336C109.816 31.6771 110.081 31.965 110.404 32.1664C110.709 32.3577 111.06 32.4585 111.418 32.4576C111.781 32.4585 112.137 32.3613 112.452 32.1757C112.775 31.9821 113.039 31.7001 113.216 31.3614C113.401 30.9652 113.498 30.5313 113.498 30.0917C113.498 29.6521 113.401 29.2182 113.216 28.822ZM118.582 30.701H124.317C124.354 30.4419 124.371 30.1801 124.366 29.9182C124.38 29.1926 124.212 28.4754 123.879 27.8352C123.563 27.2421 123.086 26.7561 122.505 26.4366C121.876 26.1097 121.18 25.9406 120.475 25.9432C119.769 25.9457 119.075 26.1199 118.448 26.4514C117.857 26.7855 117.375 27.2898 117.062 27.9019C116.72 28.578 116.549 29.3313 116.566 30.0926C116.551 30.8478 116.723 31.5945 117.067 32.2628C117.388 32.8772 117.875 33.3836 118.47 33.7208C119.092 34.0702 119.792 34.2479 120.501 34.2364C121.348 34.2664 122.181 34.0052 122.867 33.4945C123.492 33.021 123.949 32.3515 124.168 31.5876H122.038C121.903 31.8934 121.68 32.15 121.399 32.3232C121.119 32.4964 120.794 32.5782 120.467 32.5578C119.991 32.5719 119.528 32.3949 119.178 32.0644C118.814 31.706 118.601 31.2173 118.582 30.701ZM122.191 28.6477C122.285 28.8647 122.331 29.1003 122.326 29.3376H118.611C118.659 28.8522 118.878 28.4012 119.227 28.0689C119.568 27.7608 120.011 27.597 120.467 27.6107C120.947 27.5969 121.415 27.7646 121.783 28.0819C121.958 28.2375 122.097 28.4306 122.191 28.6477ZM132.077 26.8637C132.653 27.4684 132.941 28.3124 132.941 29.3956V34.1126H130.949V29.672C130.949 29.0339 130.794 28.5442 130.482 28.1992C130.319 28.026 130.121 27.8905 129.903 27.8016C129.684 27.7127 129.45 27.6724 129.215 27.6835C128.976 27.671 128.737 27.7105 128.513 27.7994C128.29 27.8882 128.087 28.0245 127.919 28.1992C127.602 28.5442 127.445 29.0339 127.445 29.672V34.1126H125.454V26.0735H127.445V27.0751C127.713 26.7223 128.061 26.441 128.459 26.2553C128.881 26.0535 129.343 25.9514 129.809 25.9566C130.747 25.9566 131.503 26.259 132.077 26.8637ZM135.828 26.4571C135.245 26.7977 134.768 27.3015 134.454 27.9095H134.45C134.125 28.5891 133.956 29.3359 133.956 30.0927C133.956 30.8496 134.125 31.5964 134.45 32.2759C134.765 32.8834 135.241 33.3865 135.824 33.7265C136.438 34.0775 137.131 34.2554 137.834 34.2421C138.798 34.2434 139.6 33.9868 140.241 33.4724C140.888 32.9513 141.343 32.2199 141.53 31.3986H139.392C139.146 32.1331 138.622 32.5004 137.821 32.5004C137.564 32.5114 137.308 32.4601 137.075 32.3505C136.841 32.2409 136.636 32.0761 136.476 31.8697C136.145 31.4592 135.98 30.8668 135.98 30.0927C135.98 29.3186 136.145 28.7213 136.476 28.3009C136.637 28.0926 136.843 27.9265 137.079 27.8165C137.315 27.7065 137.573 27.6557 137.832 27.6684C138.187 27.656 138.536 27.7606 138.829 27.967C139.099 28.169 139.297 28.4545 139.396 28.7813H141.534C141.359 27.9509 140.906 27.2094 140.254 26.6853C139.617 26.1906 138.811 25.9433 137.837 25.9433C137.135 25.9294 136.441 26.1067 135.828 26.4571ZM149.874 30.701H144.141C144.159 31.2173 144.373 31.706 144.736 32.0644C145.087 32.3949 145.549 32.5719 146.025 32.5578C146.352 32.5782 146.677 32.4964 146.958 32.3232C147.239 32.15 147.461 31.8934 147.596 31.5876H149.734C149.513 32.3525 149.053 33.0221 148.425 33.4945C147.74 34.0052 146.907 34.2664 146.059 34.2364C145.35 34.2479 144.65 34.0702 144.028 33.7208C143.434 33.3834 142.947 32.8771 142.627 32.2628C142.282 31.5932 142.108 30.8444 142.124 30.087C142.112 29.3265 142.287 28.5752 142.633 27.9019C142.946 27.2898 143.429 26.7855 144.019 26.4514C144.646 26.1199 145.341 25.9457 146.046 25.9432C146.751 25.9406 147.447 26.1097 148.076 26.4366C148.657 26.7561 149.134 27.2421 149.45 27.8352C149.784 28.4752 149.952 29.1925 149.939 29.9182C149.938 30.1806 149.916 30.4424 149.874 30.701ZM147.882 29.3376C147.886 29.0996 147.839 28.8635 147.743 28.6465C147.648 28.4294 147.507 28.2366 147.33 28.0819C146.963 27.7646 146.494 27.5969 146.014 27.6107C145.559 27.597 145.116 27.7608 144.774 28.0689C144.425 28.4012 144.207 28.8522 144.159 29.3376H147.882ZM159.285 32.5008H156.027V23.9849H154.035V34.1127H159.285V32.5008ZM160.146 27.9021C160.435 27.3049 160.88 26.8025 161.433 26.4516C161.982 26.1115 162.613 25.9355 163.254 25.9434C163.788 25.9311 164.316 26.0554 164.791 26.3051C165.204 26.5259 165.564 26.8383 165.845 27.2195V26.0732H167.836V34.1124H165.845V32.9364C165.57 33.3267 165.209 33.6445 164.791 33.8638C164.312 34.1179 163.779 34.2454 163.24 34.2348C162.6 34.242 161.972 34.0604 161.43 33.7117C160.877 33.3508 160.432 32.8414 160.143 32.2389C159.816 31.5606 159.653 30.8119 159.668 30.0557C159.656 29.3089 159.82 28.5701 160.146 27.9021ZM165.562 28.8296C165.386 28.4918 165.121 28.2106 164.798 28.0171C164.484 27.8315 164.128 27.7343 163.765 27.7352C163.4 27.7315 163.042 27.8303 162.728 28.021C162.415 28.2117 162.158 28.4869 161.987 28.8166C161.786 29.2017 161.686 29.6339 161.698 30.0705C161.687 30.5124 161.787 30.9496 161.987 31.3411C162.163 31.6847 162.427 31.9726 162.751 32.174C163.056 32.3653 163.407 32.4661 163.765 32.4652C164.128 32.4661 164.484 32.3689 164.798 32.1833C165.122 31.9896 165.386 31.7077 165.562 31.369C165.748 30.9728 165.845 30.5388 165.845 30.0993C165.845 29.6597 165.748 29.2258 165.562 28.8296ZM174.002 25.9429C173.469 25.9327 172.941 26.0569 172.466 26.3046C172.044 26.5246 171.682 26.8491 171.414 27.2487V23.3738H169.423V34.1081H171.41V32.96C171.686 33.3497 172.048 33.6674 172.466 33.8874C172.942 34.1325 173.47 34.2542 174.002 34.2417C174.645 34.2495 175.277 34.0679 175.822 33.7186C176.375 33.3584 176.821 32.8488 177.111 32.2458C177.436 31.5672 177.599 30.8187 177.585 30.0626C177.6 29.3112 177.437 28.5671 177.111 27.8942C176.821 27.2993 176.374 26.7994 175.822 26.4511C175.274 26.1105 174.643 25.9344 174.002 25.9429ZM174.504 28.0037C174.828 28.1932 175.093 28.4722 175.27 28.8087C175.47 29.1941 175.57 29.626 175.559 30.0626C175.57 30.5069 175.47 30.9467 175.27 31.3406C175.091 31.6811 174.827 31.9662 174.504 32.1661C174.195 32.3589 173.839 32.4597 173.477 32.4573C173.122 32.4576 172.772 32.3603 172.466 32.1753C172.142 31.9788 171.878 31.6944 171.702 31.3536C171.51 30.9618 171.41 30.5296 171.41 30.0913C171.41 29.6531 171.51 29.2209 171.702 28.8291C171.878 28.4888 172.142 28.205 172.466 28.0092C172.772 27.8243 173.122 27.7269 173.477 27.7273C173.837 27.7242 174.192 27.8196 174.504 28.0037Z" fill="white"/>
  <path d="M7.00708 44C5.77692 43.999 4.56866 43.6664 3.50359 43.0356C2.43853 42.4049 1.55412 41.4981 0.939156 40.4064C0.32419 39.3147 0.000300845 38.0764 2.0948e-07 36.8159C-0.000300426 35.5553 0.322998 34.3169 0.937443 33.2249L16.5704 5.48108C17.5625 3.72045 19.0128 2.27719 20.7592 1.31257C22.5057 0.347948 24.4796 -0.100023 26.4602 0.0187171C28.4408 0.137457 30.3503 0.818229 31.975 1.98496C33.5998 3.15168 34.876 4.7584 35.6609 6.62556L37.3697 10.6878C40.3583 10.3864 43.3642 11.0474 45.969 12.5788C48.5737 14.1101 50.6477 16.4356 51.9021 19.2315L56.6086 29.7117C57.087 30.774 57.3546 31.9232 57.396 33.0924C57.4374 34.2616 57.2516 35.4276 56.8496 36.5226C56.4475 37.6177 55.8372 38.62 55.054 39.4713C54.2708 40.3227 53.3303 41.0061 52.2872 41.4819C51.2441 41.9577 50.1192 42.2165 48.9777 42.2431C47.8362 42.2698 46.7009 42.0637 45.6377 41.6371C44.5746 41.2104 43.6047 40.5715 42.7845 39.7576C41.9643 38.9437 41.3101 37.9709 40.8598 36.8957L33.657 19.7694C33.5954 19.8288 33.5339 19.8881 33.476 19.9549L11.9526 41.9058C10.6401 43.248 8.8613 44.0012 7.00708 44ZM25.8188 7.08743C25.1564 7.08286 24.505 7.26004 23.932 7.60057C23.359 7.94109 22.8854 8.43256 22.5604 9.02395L6.92743 36.7696C6.91572 36.7897 6.91201 36.8136 6.91706 36.8364C6.92212 36.8592 6.93556 36.8791 6.95458 36.892C6.97203 36.9051 6.9935 36.9114 7.01509 36.9097C7.03668 36.908 7.05696 36.8984 7.07225 36.8827L28.5884 14.9262C29.274 14.2285 30.026 13.6028 30.8331 13.0584L29.3125 9.43017C29.0415 8.76426 28.5913 8.19109 28.0143 7.77757C27.4373 7.36406 26.7575 7.12726 26.0541 7.09485C25.9763 7.08928 25.8984 7.08743 25.8188 7.08743ZM40.3946 17.883L47.2064 34.093C47.2878 34.3163 47.413 34.5203 47.5742 34.6922C47.7355 34.8641 47.9294 35.0003 48.1441 35.0924C48.3587 35.1846 48.5894 35.2307 48.8221 35.2279C49.0548 35.2251 49.2845 35.1735 49.4969 35.0762C49.7094 34.979 49.9002 34.8382 50.0575 34.6625C50.2148 34.4868 50.3353 34.2799 50.4116 34.0546C50.4878 33.8294 50.5182 33.5905 50.5009 33.3527C50.4836 33.1149 50.419 32.8833 50.3109 32.6721L45.6044 22.1919C45.1262 21.1056 44.4055 20.1497 43.5006 19.4013C42.5956 18.6528 41.5317 18.1327 40.3946 17.883Z" fill="url(#paint0_linear_1222_654)"/>
  <path d="M33.657 19.7773C34.4469 18.7837 35.5195 18.0516 36.7257 17.7131C37.932 17.3746 39.2113 17.4305 40.3851 17.873C41.0935 19.5536 41.8031 21.2341 42.5139 22.9146L36.2033 25.8157L33.657 19.7773Z" fill="url(#paint1_linear_1222_654)"/>
  <defs>
    <linearGradient id="paint0_linear_1222_654" x1="33.5374" y1="-12.0258" x2="-16.5098" y2="10.9064" gradientUnits="userSpaceOnUse">
      <stop stop-color="#FFBBAC"/>
      <stop offset="0.482869" stop-color="#E498FF"/>
      <stop offset="1" stop-color="#696DD4"/>
    </linearGradient>
    <linearGradient id="paint1_linear_1222_654" x1="36.8716" y1="17.6612" x2="39.7432" y2="24.024" gradientUnits="userSpaceOnUse">
      <stop stop-color="#CD92B8"/>
      <stop offset="1" stop-color="#F7B1C7" stop-opacity="0"/>
    </linearGradient>
  </defs>
</svg>
