<svg xmlns="http://www.w3.org/2000/svg" width="40" height="40" viewBox="0 0 40 40" fill="none">
  <path fill-rule="evenodd" clip-rule="evenodd" d="M18.3337 2.9165C16.9693 2.91666 15.6553 3.43168 14.6542 4.35863C13.653 5.28559 13.0386 6.55619 12.9337 7.9165H12.4403C10.9337 7.9165 9.71866 7.9165 8.73699 8.00484C7.72699 8.0965 6.84366 8.2915 6.04199 8.75484C5.09175 9.30302 4.30254 10.0917 3.75366 11.0415C3.29199 11.8432 3.09699 12.7265 3.00533 13.7365C2.91699 14.7182 2.91699 15.9332 2.91699 17.4398V17.5598C2.91699 19.0665 2.91699 20.2815 3.00533 21.2632C3.09699 22.2732 3.29199 23.1565 3.75533 23.9582C4.17699 24.6915 4.74366 25.3282 5.41699 25.8332V25.9248C5.41699 28.2032 5.41699 30.0415 5.61199 31.4865C5.81199 32.9865 6.24533 34.2498 7.24699 35.2532C8.25033 36.2565 9.51366 36.6865 11.0137 36.8898C12.4587 37.0832 14.297 37.0832 16.5753 37.0832H23.4253C25.7037 37.0832 27.542 37.0832 28.987 36.8898C30.487 36.6865 31.7503 36.2565 32.7537 35.2532C33.757 34.2498 34.187 32.9865 34.3903 31.4865C34.5837 30.0415 34.5837 28.2032 34.5837 25.9248V25.8332C35.259 25.3269 35.8248 24.6891 36.247 23.9582C36.7087 23.1565 36.9037 22.2732 36.9953 21.2632C37.0837 20.2815 37.0837 19.0665 37.0837 17.5598V17.4398C37.0837 15.9332 37.0837 14.7182 36.9953 13.7365C36.9037 12.7265 36.7087 11.8432 36.2453 11.0415C35.6971 10.0913 34.9085 9.30205 33.9587 8.75317C33.157 8.2915 32.2737 8.0965 31.2637 8.00484C30.282 7.9165 29.067 7.9165 27.5603 7.9165H27.067C26.962 6.55619 26.3476 5.28559 25.3465 4.35863C24.3454 3.43168 23.0313 2.91666 21.667 2.9165H18.3337ZM18.3337 5.4165C17.6323 5.41652 16.9545 5.66926 16.4243 6.12841C15.8941 6.58755 15.5472 7.22235 15.447 7.9165H24.5537C24.4535 7.22235 24.1065 6.58755 23.5763 6.12841C23.0462 5.66926 22.3683 5.41652 21.667 5.4165H18.3337ZM8.08866 31.1532C7.94533 30.0882 7.92199 28.7298 7.91699 26.8898C8.18199 26.9348 8.45533 26.9682 8.73699 26.9948C9.71866 27.0832 10.9337 27.0832 12.4403 27.0832H15.5903C15.8627 28.043 16.4408 28.8879 17.2368 29.4894C18.0329 30.091 19.0034 30.4165 20.0012 30.4165C20.9989 30.4165 21.9695 30.091 22.7655 29.4894C23.5615 28.8879 24.1396 28.043 24.412 27.0832H27.5603C29.067 27.0832 30.282 27.0832 31.2637 26.9948C31.547 26.9682 31.8187 26.9348 32.0837 26.8898C32.0787 28.7298 32.0553 30.0882 31.912 31.1532C31.747 32.3765 31.4453 33.0232 30.9853 33.4848C30.5237 33.9465 29.877 34.2465 28.652 34.4115C27.3937 34.5798 25.7253 34.5832 23.3337 34.5832H16.667C14.2753 34.5832 12.6053 34.5798 11.347 34.4115C10.1237 34.2465 9.47699 33.9448 9.01533 33.4848C8.55366 33.0232 8.25366 32.3765 8.08866 31.1515V31.1532ZM24.412 24.5832H27.5003C29.0803 24.5832 30.1837 24.5832 31.037 24.5048C31.8753 24.4282 32.3503 24.2882 32.7087 24.0815C33.2787 23.7515 33.752 23.2782 34.082 22.7082C34.2887 22.3498 34.4287 21.8748 34.5053 21.0365C34.582 20.1832 34.5837 19.0798 34.5837 17.4998C34.5837 15.9198 34.5837 14.8165 34.5053 13.9632C34.4287 13.1248 34.2887 12.6498 34.082 12.2915C33.7528 11.7211 33.2791 11.2474 32.7087 10.9182C32.3503 10.7115 31.8753 10.5715 31.037 10.4948C30.1837 10.4182 29.0803 10.4165 27.5003 10.4165H12.5003C10.9203 10.4165 9.81699 10.4165 8.96366 10.4948C8.12533 10.5715 7.65033 10.7115 7.29199 10.9182C6.72156 11.2474 6.24789 11.7211 5.91866 12.2915C5.71199 12.6498 5.57199 13.1248 5.49533 13.9632C5.41866 14.8165 5.41699 15.9198 5.41699 17.4998C5.41699 19.0798 5.41699 20.1832 5.49533 21.0365C5.57199 21.8732 5.71199 22.3498 5.91866 22.7082C6.24866 23.2782 6.72199 23.7515 7.29199 24.0815C7.65033 24.2882 8.12533 24.4282 8.96366 24.5048C9.81699 24.5815 10.9203 24.5832 12.5003 24.5832H15.5903C15.8627 23.6233 16.4408 22.7785 17.2368 22.1769C18.0329 21.5754 19.0034 21.2499 20.0012 21.2499C20.9989 21.2499 21.9695 21.5754 22.7655 22.1769C23.5615 22.7785 24.1396 23.6233 24.412 24.5832ZM17.917 25.8332C17.917 25.2806 18.1365 24.7507 18.5272 24.36C18.9179 23.9693 19.4478 23.7498 20.0003 23.7498C20.5529 23.7498 21.0828 23.9693 21.4735 24.36C21.8642 24.7507 22.0837 25.2806 22.0837 25.8332C22.0837 26.3857 21.8642 26.9156 21.4735 27.3063C21.0828 27.697 20.5529 27.9165 20.0003 27.9165C19.4478 27.9165 18.9179 27.697 18.5272 27.3063C18.1365 26.9156 17.917 26.3857 17.917 25.8332Z" fill="url(#paint0_linear_1524_2662)"/>
  <defs>
    <linearGradient id="paint0_linear_1524_2662" x1="22.8791" y1="-6.42171" x2="-9.20629" y2="4.84774" gradientUnits="userSpaceOnUse">
      <stop stop-color="#FFBBAC"/>
      <stop offset="0.482869" stop-color="#E498FF"/>
      <stop offset="1" stop-color="#696DD4"/>
    </linearGradient>
  </defs>
</svg>
