<svg width="321" height="59" viewBox="0 0 321 59" fill="none" xmlns="http://www.w3.org/2000/svg">
<path d="M77.3137 38.1384L84.694 18.3528H88.1486L95.529 38.1384H91.6032L90.19 34.0556H82.6526L81.2394 38.1384H77.3137ZM83.9089 30.601H88.9338L86.4213 23.3777L83.9089 30.601ZM97.4231 38.1384V18.3528H101.192V38.1384H97.4231ZM110.13 38.1384L117.51 18.3528H120.965L128.345 38.1384H124.42L123.006 34.0556H115.469L114.056 38.1384H110.13ZM116.725 30.601H121.75L119.238 23.3777L116.725 30.601ZM139.504 32.7994H143.116C142.456 35.6573 139.818 38.2954 136.364 38.2954C132.469 38.2954 129.14 34.9978 129.14 30.9151C129.14 26.8323 132.469 23.5347 136.364 23.5347C139.818 23.5347 142.456 26.1728 143.116 29.0307H139.504C139.347 28.6539 139.096 28.3084 138.813 28.0257C138.311 27.5233 137.526 26.9894 136.364 26.9894C134.322 26.9894 132.752 28.5282 132.752 30.9151C132.752 33.3019 134.322 34.8408 136.364 34.8408C137.526 34.8408 138.311 34.3383 138.813 33.8358C139.096 33.5531 139.347 33.2077 139.504 32.7994ZM154.579 38.1384L153.951 36.7251C153.605 37.0078 153.26 37.2904 152.852 37.5103C152.129 37.9185 151.124 38.2954 149.868 38.2954C146.728 38.2954 145 36.5995 145 34.2127C145 31.3547 147.042 29.3448 153.637 29.3448C153.637 27.7431 152.695 26.8323 151.281 26.8323C150.308 26.8323 149.805 27.2406 149.46 27.6175C149.271 27.8373 149.146 28.12 149.083 28.4026H145.471C145.817 25.7645 147.984 23.5347 151.595 23.5347C154.862 23.5347 157.248 25.9216 157.248 29.1878V38.1384H154.579ZM153.637 32.4853V31.8572C149.397 31.8572 148.612 32.6424 148.612 33.8986C148.612 34.6837 149.397 35.4689 150.496 35.4689C152.381 35.4689 153.637 34.2441 153.637 32.4853ZM171.212 38.1384L170.584 36.7251C170.238 37.0078 169.893 37.2904 169.484 37.5103C168.762 37.9185 167.757 38.2954 166.501 38.2954C162.889 38.2954 159.749 35.1862 159.749 30.9151C159.749 26.6439 162.889 23.5347 166.501 23.5347C167.663 23.5347 168.605 23.9116 169.265 24.2571C169.641 24.4769 169.987 24.6967 170.269 24.948V18.3528H173.881V38.1384H171.212ZM166.972 34.8408C169.013 34.8408 170.584 33.3019 170.584 30.9151C170.584 28.5282 169.013 26.9894 166.972 26.9894C164.931 26.9894 163.36 28.5282 163.36 30.9151C163.36 33.3019 164.931 34.8408 166.972 34.8408ZM186.448 33.7416H190.217C189.463 35.9086 187.045 38.2954 183.779 38.2954C179.885 38.2954 176.556 34.9978 176.556 30.9151C176.556 26.8323 179.885 23.5347 183.779 23.5347C187.547 23.5347 190.688 26.5183 190.688 30.9151C190.688 31.2605 190.625 31.5746 190.594 31.8572L190.531 32.3283H180.481C180.827 33.7416 181.894 34.8408 183.779 34.8408C184.752 34.8408 185.349 34.5895 185.82 34.3069C186.071 34.1498 186.291 33.9614 186.448 33.7416ZM180.324 29.8159H187.233C186.888 28.2142 185.663 26.9894 183.779 26.9894C181.894 26.9894 180.67 28.2142 180.324 29.8159ZM193.35 38.1384V23.6918H196.02L196.648 25.105C196.93 24.8224 197.276 24.5397 197.621 24.3199C198.218 23.943 199.066 23.5347 200.102 23.5347C201.578 23.5347 202.615 24.0058 203.274 24.4769C203.651 24.7596 203.965 25.0736 204.185 25.4191C204.531 25.0736 204.907 24.7596 205.347 24.4769C206.101 24.0058 207.169 23.5347 208.425 23.5347C211.565 23.5347 213.607 25.5761 213.607 29.5018V38.1384H209.995V29.8159C209.995 28.0572 208.896 26.9894 207.64 26.9894C206.384 26.9894 205.284 28.0572 205.284 29.8159V38.1384H201.673V29.8159C201.673 28.0572 200.573 26.9894 199.317 26.9894C198.061 26.9894 196.962 28.0572 196.962 29.8159V38.1384H193.35ZM217.69 43.1633V40.1797C219.291 40.1797 220.045 39.3946 220.516 38.2954L220.83 37.5103L215.334 23.6918H219.103L222.714 33.1135L226.012 23.6918H229.781L226.986 30.8523C225.572 34.4953 224.159 38.264 223.971 38.6095C222.557 42.0327 221.301 43.3203 218.946 43.3203C218.6 43.3203 218.286 43.2889 218.066 43.2575L217.69 43.1633Z" fill="white"/>
<rect y="0.518127" width="58.2912" height="58.2912" rx="15.3809" fill="#D7EB56"/>
<path fill-rule="evenodd" clip-rule="evenodd" d="M37.5194 26.8245L35.8116 28.3977C35.8101 28.3992 35.8092 28.4012 35.8092 28.4034C35.8092 28.4055 35.8083 28.4076 35.8067 28.409L33.0535 30.9473C33.0516 30.9491 33.0486 30.9477 33.0486 30.9451C33.0486 30.9426 33.0455 30.9412 33.0436 30.943L20.4307 42.58C19.6833 43.2668 18.7541 43.6169 17.8115 43.6169C17.091 43.6169 16.3571 43.4082 15.704 42.984C14.1958 42.0077 13.5629 40.2099 14.1285 38.5132L19.9122 21.1013C20.9289 18.0377 23.6559 16.0784 26.9012 16.1457C30.1264 16.1996 32.7994 18.233 33.7152 21.3302L33.7361 21.4012C33.9172 22.0136 33.7358 22.6756 33.268 23.1102C32.3528 23.9605 30.8629 23.5517 30.5098 22.3535L30.49 22.2863C29.8975 20.2731 28.2142 19.5325 26.8406 19.5123H26.78C25.4132 19.5123 23.7568 20.2058 23.1037 22.1651L17.3267 39.5703C17.2459 39.8194 17.3132 40.0147 17.5287 40.1561C17.7509 40.2975 17.9596 40.2773 18.1481 40.1022L26.4586 32.4377C26.4605 32.436 26.4636 32.4373 26.4636 32.4399C26.4636 32.4425 26.4666 32.4438 26.4685 32.4421L35.6274 23.9898L36.2737 23.3906L36.6441 23.0472L39.4114 20.502L40.4685 19.5257C41.1485 18.8928 42.2191 18.9399 42.8453 19.62C43.4378 20.2596 43.4311 21.2292 42.8789 21.8689C42.8386 21.916 42.7981 21.9631 42.751 22.0035L40.4618 24.1043L37.7012 26.6561L37.5194 26.8245Z" fill="#0F0F11"/>
<path d="M42.9454 32.5304L42.9437 32.5244L41.9318 29.0583C41.5849 27.8701 40.1113 27.4587 39.199 28.2954C38.7223 28.7326 38.5407 29.4056 38.7332 30.0231C39.1828 31.4654 39.6335 32.9065 40.084 34.3469L40.0846 34.3489L40.0848 34.3494L40.0859 34.3529C40.509 35.7059 40.9321 37.0585 41.3538 38.411C41.4144 38.5591 41.5154 38.8688 41.4481 39.2459C41.4279 39.3873 41.3875 39.6297 41.1989 39.8519C40.9027 40.202 40.4718 40.2357 40.3573 40.2424C40.1284 40.2626 39.3406 40.2559 39.078 39.3603L37.3069 33.3845C36.9528 32.1899 35.4692 31.78 34.5521 32.6233C34.0789 33.0584 33.8947 33.7249 34.0771 34.3412L35.8461 40.3165C36.479 42.4509 38.4047 43.7773 40.6199 43.6022C40.9902 43.5753 42.3234 43.4474 43.4545 42.3701C43.7777 42.0603 44.7002 41.084 44.7944 39.6229C44.8212 39.1873 44.768 38.8318 44.721 38.5895C44.7206 38.5874 44.7189 38.586 44.7168 38.586C44.7149 38.586 44.7133 38.5848 44.7127 38.583C44.1236 36.5666 43.5345 34.5485 42.9454 32.5304Z" fill="#0F0F11"/>
<path d="M38.358 17.5305L38.3098 17.3658C38.06 16.5203 37.1761 16.0272 36.3178 16.277C35.4724 16.5267 34.9856 17.417 35.2354 18.2625L35.284 18.4291C35.6175 19.5729 37.0387 19.9649 37.9114 19.1539C38.3557 18.741 38.5286 18.1125 38.358 17.5305Z" fill="#0F0F11"/>
</svg>
